<?xml version="1.0" encoding="utf-8"?>
<!DOCTYPE svg PUBLIC "-//W3C//DTD SVG 1.1//EN" "http://www.w3.org/Graphics/SVG/1.1/DTD/svg11.dtd">
<svg version="1.1" id="active" xmlns="http://www.w3.org/2000/svg" xmlns:xlink="http://www.w3.org/1999/xlink" x="0px" y="0px" xml:space="preserve">
<path fill="#333" d="M42.916,28.091c-0.138-0.305-0.44-0.483-0.782-0.478l-6.861,0.366l5.606-10.465
	c0.191-0.357,0.091-0.802-0.238-1.039c-0.328-0.237-0.782-0.197-1.062,0.098l-16.501,17.32c-0.235,0.246-0.29,0.612-0.14,0.917
	c0.151,0.305,0.483,0.491,0.811,0.447l6.576-0.699l-7.877,12.698c-0.217,0.352-0.137,0.809,0.188,1.063
	c0.148,0.117,0.323,0.174,0.5,0.174c0.211,0,0.42-0.081,0.576-0.24l19.04-19.262C42.987,28.754,43.053,28.396,42.916,28.091z"/>
</svg>
