<?xml version="1.0" encoding="utf-8"?>
<!DOCTYPE svg PUBLIC "-//W3C//DTD SVG 1.1//EN" "http://www.w3.org/Graphics/SVG/1.1/DTD/svg11.dtd">
<svg version="1.1" id="claimTask" xmlns="http://www.w3.org/2000/svg" xmlns:xlink="http://www.w3.org/1999/xlink" x="0px" y="0px" xml:space="preserve">
<path fill="#333" d="M16.294,32.248c0,7.926,6.449,14.375,14.409,14.373l17.359-1.985c0.168-0.018,0.297-0.159,0.297-0.329
	v-8.169c0-0.092-0.038-0.18-0.105-0.242s-0.157-0.094-0.249-0.088l-17.336,1.378c-2.723,0-4.938-2.216-4.938-4.938
	c0-2.723,2.215-4.938,4.904-4.94l17.359,1.986c0.093,0.01,0.186-0.021,0.255-0.084c0.07-0.062,0.109-0.151,0.109-0.245v-8.114
	c0-0.165-0.122-0.306-0.286-0.327l-17.404-2.651C22.743,17.872,16.294,24.321,16.294,32.248z M46.696,43.204l-3.4,0.315v-5.834
	l3.4-0.38V43.204z M46.696,21.696v5.898l-3.4-0.38v-5.834L46.696,21.696z"/>
</svg>
