<?xml version="1.0" encoding="utf-8"?>
<!-- Generator: Adobe Illustrator 16.2.0, SVG Export Plug-In . SVG Version: 6.00 Build 0)  -->
<!DOCTYPE svg PUBLIC "-//W3C//DTD SVG 1.1//EN" "http://www.w3.org/Graphics/SVG/1.1/DTD/svg11.dtd">
<svg version="1.1" id="watch" xmlns="http://www.w3.org/2000/svg" xmlns:xlink="http://www.w3.org/1999/xlink" x="0px" y="0px"
	 width="63.5px" height="59.5px" viewBox="0 0 63.5 59.5" enable-background="new 0 0 63.5 59.5" xml:space="preserve">
<path fill="#41423F" d="M14.978,30.02c0,8.821,6.851,15.998,15.305,15.996l13.438-2.21c0.179-0.02,0.315-0.177,0.315-0.366v-9.091
	c0-0.103-0.04-0.2-0.112-0.27c-0.071-0.069-0.167-0.104-0.265-0.098l-13.413,1.533c-2.892,0-5.245-2.466-5.245-5.495
	c0-3.03,2.354-5.496,5.209-5.498l13.439,2.211c0.099,0.011,0.196-0.023,0.271-0.094c0.075-0.069,0.116-0.168,0.116-0.272v-9.03
	c0-0.184-0.129-0.341-0.305-0.364l-13.485-2.951C21.828,14.021,14.978,21.198,14.978,30.02z M42.271,42.213l-3.613,0.351v-6.492
	l3.613-0.423V42.213z M42.271,18.276v6.564l-3.613-0.423v-6.492L42.271,18.276z"/>
</svg>
