<?xml version="1.0" encoding="utf-8"?>
<!-- Generator: Adobe Illustrator 16.2.0, SVG Export Plug-In . SVG Version: 6.00 Build 0)  -->
<!DOCTYPE svg PUBLIC "-//W3C//DTD SVG 1.1//EN" "http://www.w3.org/Graphics/SVG/1.1/DTD/svg11.dtd">
<svg version="1.1" id="watch" xmlns="http://www.w3.org/2000/svg" xmlns:xlink="http://www.w3.org/1999/xlink" x="0px" y="0px"
	 width="63.5px" height="59.5px" viewBox="0 0 63.5 59.5" enable-background="new 0 0 63.5 59.5" xml:space="preserve">
<g>
	<path fill="#41423F" d="M20.035,33.371v11.915c0,0.315,0.312,0.571,0.698,0.571h10.222V33.371H20.035z"/>
	<path fill="#41423F" d="M46.138,23.01l-6.639-0.018c1.029-0.361,2.052-0.88,3.065-1.566c1.054-0.714,3.244-2.199,2.805-4.781
		c-0.222-1.306-1.375-2.845-3.385-3.141c-4.009-0.59-7.381,1.529-9.448,4.503c-2.066-2.975-5.438-5.093-9.449-4.503
		c-2.009,0.296-3.163,1.835-3.384,3.14c-0.44,2.583,1.751,4.068,2.805,4.782c0.981,0.665,1.971,1.17,2.967,1.529l-6.666-0.018
		h-0.001c-0.185,0-0.362,0.061-0.494,0.167c-0.131,0.107-0.205,0.253-0.205,0.404v6.793c0,0.316,0.312,0.572,0.698,0.572h1.227
		v0.014h10.92v-7.964h3.034v7.964h10.92v-0.014h1.227c0.386,0,0.698-0.256,0.698-0.572v-6.721
		C46.833,23.266,46.523,23.011,46.138,23.01z M24.732,19.227c-1.337-0.907-1.706-1.418-1.575-2.189
		c0.065-0.388,0.394-0.7,0.546-0.723c0.243-0.036,0.479-0.053,0.711-0.053c2.668,0,4.708,2.241,5.795,4.356
		C28.398,20.99,26.671,20.541,24.732,19.227z M34.86,20.619c1.183-2.299,3.488-4.746,6.507-4.304
		c0.152,0.022,0.481,0.335,0.547,0.724c0.131,0.771-0.237,1.281-1.575,2.188C38.399,20.542,36.67,20.989,34.86,20.619z"/>
	<path fill="#41423F" d="M33.989,33.371v12.486h10.223c0.386,0,0.698-0.256,0.698-0.571V33.371H33.989z"/>
</g>
</svg>
