<?xml version="1.0" encoding="utf-8"?>
<!-- Generator: Adobe Illustrator 16.2.0, SVG Export Plug-In . SVG Version: 6.00 Build 0)  -->
<!DOCTYPE svg PUBLIC "-//W3C//DTD SVG 1.1//EN" "http://www.w3.org/Graphics/SVG/1.1/DTD/svg11.dtd">
<svg version="1.1" id="watch" xmlns="http://www.w3.org/2000/svg" xmlns:xlink="http://www.w3.org/1999/xlink" x="0px" y="0px"
	 width="63.5px" height="59.5px" viewBox="0 0 63.5 59.5" enable-background="new 0 0 63.5 59.5" xml:space="preserve">
<path fill="#41423F" d="M50.666,28.743c-5.438-4.25-10.877-8.499-16.316-12.749c-0.676-0.528-1.575,0.167-1.575,1.093
	c0,2.276,0,4.556,0,6.833c-6.36-0.233-12.93,1.593-16.711,8.292c-1.618,2.866-2.621,6.741-2.536,10.245
	c-0.095,0.708,0.33,1.192,0.827,1.307c0.033,0.01,0.066,0.019,0.1,0.024c0.001,0,0.001,0,0.003,0
	c0.515,0.082,1.066-0.233,1.152-0.949c2.123-7.628,11.182-8.68,17.166-8.271c0,2.671,0,5.342,0,8.013
	c0,0.926,0.899,1.62,1.575,1.091c5.439-4.25,10.878-8.498,16.316-12.749C51.34,30.398,51.34,29.27,50.666,28.743z"/>
</svg>
