<?xml version="1.0" encoding="utf-8"?>
<!DOCTYPE svg PUBLIC "-//W3C//DTD SVG 1.1//EN" "http://www.w3.org/Graphics/SVG/1.1/DTD/svg11.dtd">
<svg version="1.1" id="list" xmlns="http://www.w3.org/2000/svg" xmlns:xlink="http://www.w3.org/1999/xlink" x="0px" y="0px" xml:space="preserve">
<g>
	<path fill="#ccc" d="M40.592,46.126H24.613c-2.339,0-4.235-1.896-4.235-4.234v2.329c0,2.338,1.896,4.233,4.235,4.233h15.979
		c2.338,0,4.235-1.896,4.235-4.233v-2.329C44.827,44.229,42.93,46.126,40.592,46.126z"/>
	<path fill="#ccc" d="M40.592,42.569H24.613c-2.339,0-4.235-1.895-4.235-4.233v2.149c0,2.34,1.896,4.234,4.235,4.234h15.979
		c2.338,0,4.235-1.895,4.235-4.234v-2.149C44.827,40.675,42.93,42.569,40.592,42.569z"/>
	<path fill="#ccc" d="M40.592,16.325H24.613c-2.339,0-4.235,1.896-4.235,4.233V36.54c0,2.339,1.896,4.234,4.235,4.234h15.979
		c2.338,0,4.235-1.896,4.235-4.234V20.559C44.827,18.221,42.93,16.325,40.592,16.325z M38.719,26.28l-7.573,7.574
		c-0.045,0.044-0.104,0.068-0.167,0.068c-0.061,0-0.12-0.024-0.165-0.069l-0.357-0.36c-0.015-0.008-0.024-0.019-0.037-0.029 l-3.933-3.935c-0.043-0.044-0.069-0.103-0.069-0.165c0-0.062,0.027-0.121,0.071-0.165l2.706-2.703c0.092-0.092,0.238-0.092,0.331,0
		l1.454,1.456l4.705-4.707c0.086-0.088,0.242-0.088,0.33,0l2.705,2.705C38.807,26.042,38.807,26.188,38.719,26.28z"/>
</g>
</svg>