<?xml version="1.0" encoding="utf-8"?>
<!DOCTYPE svg PUBLIC "-//W3C//DTD SVG 1.1//EN" "http://www.w3.org/Graphics/SVG/1.1/DTD/svg11.dtd">
<svg version="1.1" id="listShipped" xmlns="http://www.w3.org/2000/svg" xmlns:xlink="http://www.w3.org/1999/xlink" x="0px" y="0px" xml:space="preserve">
<path fill="#ccc" d="M33.118,12.03c-11.096-0.831-20.766,7.49-21.598,18.587s7.49,20.766,18.587,21.598
	c11.096,0.831,20.766-7.49,21.598-18.587C52.536,22.532,44.215,12.862,33.118,12.03z M33.758,25.551
	c0.961,1.199,0.768,2.951-0.431,3.912c-1.2,0.961-2.951,0.769-3.913-0.43c-0.962-1.199-0.769-2.951,0.431-3.912
	C31.044,24.159,32.796,24.352,33.758,25.551z M16.335,30.978c0.592-7.901,7.077-13.95,14.828-14.169
	c-2.195,2.239-3.836,5.312-5.081,8.119c-1.132,2.558-1.552,5.37-1.424,8.151c-1.26,1.129-2.134,2.582-2.851,4.098
	c-0.448,0.951-0.838,1.766-0.738,2.816c0.144,1.514,0.737,3.04,1.472,4.459C18.438,41.426,15.926,36.436,16.335,30.978z
	 M30.468,47.4c-2.113-0.158-4.094-0.738-5.866-1.651c0.671-1.187,1.638-2.243,2.656-3.133c0.178,0.339,0.361,0.673,0.555,0.997
	c0.024,0.041,0.049,0.083,0.074,0.123c0.021,0.076,0.065,0.143,0.138,0.182c0.078,0.062,0.169,0.072,0.255,0.046
	c0.054,0,0.109,0.003,0.162,0.004c0.125,0.356,0.252,0.71,0.377,1.065c0.026,0.074,0.116,0.145,0.194,0.145
	c1.358-0.012,2.714-0.023,4.07-0.035c0.11-0.001,0.21-0.043,0.252-0.152c0.104-0.277,0.207-0.555,0.312-0.831
	c0.315-0.054,0.583-0.173,0.745-0.408c0.145-0.212,0.286-0.425,0.425-0.64c0.91,0.973,1.729,2.093,2.253,3.312
	C35.028,47.205,32.793,47.574,30.468,47.4z M46.891,33.268c-0.408,5.451-3.629,10.007-8.127,12.389
	c0.966-1.455,1.811-3.072,2.162-4.719c0.219-1.023,0.004-1.673-0.324-2.649c-0.51-1.511-1.209-3.008-2.23-4.243
	c0.062-0.387,0.118-0.775,0.16-1.167c0.548-5.167-0.986-10.419-3.805-14.738c-0.162-0.25-0.398-0.682-0.648-1.129
	C41.844,18.27,47.489,25.277,46.891,33.268z"/>
</svg>