<?xml version="1.0" encoding="utf-8"?>
<!DOCTYPE svg PUBLIC "-//W3C//DTD SVG 1.1//EN" "http://www.w3.org/Graphics/SVG/1.1/DTD/svg11.dtd">
<svg version="1.1" id="projects" xmlns="http://www.w3.org/2000/svg" xmlns:xlink="http://www.w3.org/1999/xlink" x="0px" y="0px" xml:space="preserve">
	<path fill="#ccc" d="M42.002,15.812H25.126c-1.874,0-3.398,1.525-3.398,3.399v1.655h-0.13c-0.828,0-1.498,0.77-1.498,1.719 c0,0.949,0.67,1.718,1.498,1.718h0.13v3.438h-0.13c-0.828,0-1.498,0.77-1.498,1.719s0.67,1.719,1.498,1.719h0.13v3.438h-0.13 c-0.828,0-1.498,0.77-1.498,1.719c0,0.948,0.67,1.718,1.498,1.718h0.13v0.689c0,0.077,0.018,0.15,0.023,0.228 c-0.004,0.04-0.023,0.074-0.023,0.113v5.783c0,1.874,1.524,3.398,3.398,3.398h16.876c1.873,0,3.398-1.524,3.398-3.398V19.211 C45.4,17.337,43.875,15.812,42.002,15.812z M24.272,20.812h1.049c0.828,0,1.499,0.77,1.499,1.719c0,0.949-0.67,1.718-1.499,1.718 h-1.049c0.828,0,1.499-0.77,1.499-1.718C25.771,21.582,25.1,20.812,24.272,20.812z M24.272,27.82h1.049 c0.828,0,1.499,0.771,1.499,1.72c0,0.948-0.67,1.717-1.499,1.717h-1.049c0.828,0,1.499-0.769,1.499-1.717 C25.771,28.591,25.1,27.82,24.272,27.82z M24.272,34.517h1.049c0.828,0,1.499,0.77,1.499,1.719c0,0.948-0.67,1.718-1.499,1.718 h-1.049c0.828,0,1.499-0.77,1.499-1.718C25.771,35.286,25.1,34.517,24.272,34.517z M42.984,44.868c0,0.541-0.441,0.982-0.982,0.982 H25.126c-0.542,0-0.983-0.441-0.983-0.982v-0.287c0.262,0.077,0.534,0.132,0.821,0.132H41.84c0.406,0,0.793-0.085,1.145-0.235 V44.868z M42.984,42.702c-0.269,0.339-0.68,0.562-1.145,0.562H24.964c-0.304,0-0.587-0.094-0.821-0.253v-1.03 c0.313,0.096,0.639,0.162,0.983,0.162h16.876c0.344,0,0.67-0.066,0.982-0.162V42.702z"/>
</svg>