<?xml version="1.0" encoding="utf-8"?>
<!DOCTYPE svg PUBLIC "-//W3C//DTD SVG 1.1//EN" "http://www.w3.org/Graphics/SVG/1.1/DTD/svg11.dtd">
<svg version="1.1" id="ship" xmlns="http://www.w3.org/2000/svg" xmlns:xlink="http://www.w3.org/1999/xlink" x="0px" y="0px" xml:space="preserve">
<g>
	<path fill="#333" d="M48.375,16.086c-0.009-0.235-0.186-0.412-0.422-0.422c-4.341-0.156-8.674,0.534-12.557,2.546
		c-2.91,1.507-5.355,3.771-7.278,6.406c-1.979,0.109-3.843,0.797-5.611,1.659c-1.105,0.539-2.06,0.997-2.739,2.031
		c-1.496,2.28-2.063,5.354-2.357,8.027c-0.025,0.223,0.254,0.336,0.423,0.242c1.69-0.919,3.746-1.252,5.67-1.333
		c-0.085,0.44-0.163,0.879-0.224,1.318c-0.008,0.057-0.015,0.112-0.022,0.167c-0.037,0.085-0.044,0.178-0.007,0.268
		c0.026,0.113,0.103,0.189,0.199,0.228c0.049,0.042,0.097,0.083,0.146,0.124c-0.146,0.417-0.29,0.834-0.436,1.251
		c-0.029,0.085,0,0.217,0.072,0.273c1.249,0.984,2.498,1.968,3.748,2.952c0.1,0.079,0.222,0.114,0.34,0.044
		c0.299-0.177,0.597-0.353,0.895-0.53c0.328,0.183,0.66,0.27,0.98,0.173c0.288-0.087,0.573-0.179,0.858-0.273
		c0.139,1.82,0.048,3.744-0.589,5.437c-0.078,0.21,0.154,0.395,0.347,0.347c2.545-0.644,5.368-1.618,7.42-3.294
		c0.949-0.775,1.23-1.525,1.646-2.659c0.642-1.754,1.1-3.637,1.071-5.515c0.342-0.309,0.676-0.622,1.002-0.949
		c4.289-4.322,6.735-10.249,7.324-16.262C48.352,17.543,48.404,16.877,48.375,16.086z M38.694,27.666
		c-1.802,0-3.261-1.46-3.261-3.261c0-1.802,1.459-3.262,3.261-3.262s3.261,1.46,3.261,3.262
		C41.955,26.206,40.496,27.666,38.694,27.666z"/>
	<path fill="#777" d="M24.889,42.455c-0.024-0.036-0.051-0.062-0.08-0.085c-1.373-1.53-3.604-1.883-5.261-0.554
		c-0.028,0.011-0.055,0.025-0.08,0.046c-1.697,1.344,0.107,4.308-2.274,4.92c-0.175,0.046-0.227,0.363-0.072,0.521
		c1.195,1.216,2.942,1.784,4.619,1.517c3.023-0.483,4.901-3.606,3.205-6.274C24.932,42.517,24.915,42.484,24.889,42.455z"/>
</g>
</svg>
