<?xml version="1.0" encoding="utf-8"?>
<!-- Generator: Adobe Illustrator 16.0.0, SVG Export Plug-In . SVG Version: 6.00 Build 0)  -->
<!DOCTYPE svg PUBLIC "-//W3C//DTD SVG 1.1//EN" "http://www.w3.org/Graphics/SVG/1.1/DTD/svg11.dtd">
<svg version="1.1" id="Layer_1" xmlns="http://www.w3.org/2000/svg" xmlns:xlink="http://www.w3.org/1999/xlink" x="0px" y="0px"
	 width="674.078px" height="317.92px" viewBox="0 0 674.078 317.92" enable-background="new 0 0 674.078 317.92"
	 xml:space="preserve">
<g>
	<path fill="#126D8F" d="M327.268,158.98c-0.092-0.117-0.18-0.236-0.26-0.358c0.08,0.122,0.166,0.242,0.258,0.358
		C327.268,158.98,327.268,158.98,327.268,158.98z"/>
	<path fill="#126D8F" d="M329.643,157.9c-0.021-0.015-0.043-0.031-0.064-0.047c0,0.002-0.002,0.004-0.002,0.006
		C329.598,157.874,329.621,157.886,329.643,157.9z"/>
	<path fill="#126D8F" d="M539.389,150.9c0.506,0.606,1.264,1.224,1.824,1.832C540.652,152.124,539.895,151.506,539.389,150.9
		c-0.439,0.488-1.062,0.938-1.49,1.43C538.326,151.838,538.949,151.388,539.389,150.9z"/>
	<path fill="#126D8F" d="M327.697,155.012c0.064,0.239,0.133,0.469,0.219,0.685C327.83,155.481,327.762,155.25,327.697,155.012z"/>
	<path fill="#126D8F" d="M327.5,154.056c0.045,0.304,0.1,0.592,0.17,0.865C327.6,154.648,327.545,154.359,327.5,154.056z"/>
	<path fill="#126D8F" d="M46.211,154.168c-0.17-0.051-0.342-0.102-0.512-0.153c-0.104-1.195-0.291-2.391-0.293-3.586
		c-0.006-2.839-1.311-4.671-3.75-6.167c-4.447-2.729-8.492-1.178-12.07,1.249c-3.99,2.708-7.449,6.191-11.197,9.266
		c-0.592,0.487-1.492,0.601-2.248,0.888c-0.143-0.746-0.426-1.496-0.402-2.237c0.215-6.938,0.348-13.883,0.775-20.81
		c0.389-6.3,1.074-12.584,1.717-18.866c0.291-2.849-0.703-4.731-3.436-5.387c-0.934-0.224-2.457-0.104-2.936,0.486
		c-0.479,0.59-0.07,1.981,0.096,2.997c0.24,1.466,0.986,2.942,0.867,4.36c-0.666,7.957-1.707,15.885-2.275,23.847
		c-0.758,10.588-0.973,21.219-3.273,31.648c-0.234,1.064-0.473,2.499,0.033,3.277c0.986,1.512,2.5,2.68,3.795,3.99
		c1.049-1.087,2.23-2.078,3.1-3.293c0.58-0.809,0.73-1.932,1.043-2.923c1.295-4.122,2.619-8.257,5.562-11.55
		c2.332-2.608,4.74-5.176,7.346-7.503c1.922-1.718,4.057-3.363,6.381-4.422c3.238-1.477,5.389,0.047,5.123,3.637
		c-0.178,2.396-0.926,4.876-1.969,7.053c-2.107,4.398-4.066,8.79-4.527,13.713c-0.195,2.064,0.855,3.685,2.588,4.097
		c1.49,0.354,3.375-0.081,4.83-0.736c1.041-0.47,1.682-1.863,2.467-2.873c0.791-1.019,0.904-1.995-0.199-2.939
		c-1.26-1.079-1.217-2.223-0.65-3.835C43.723,163.054,44.896,158.586,46.211,154.168z"/>
	<path fill="#126D8F" d="M661.098,121.445c-5.182,0.944-10.34,2.021-15.49,3.13c-5.764,1.241-11.506,2.579-17.262,3.861
		c-2.104,0.468-4.203,1.009-6.334,1.266c-0.525,0.063-1.709-0.902-1.674-1.317c0.232-2.763,0.494-5.56,1.162-8.242
		c1.107-4.448,0.611-5.954-3.701-8.426c-0.391,1.739-0.732,3.404-1.152,5.049c-0.27,1.059-0.812,2.065-0.965,3.133
		c-0.42,2.968-0.656,5.961-1.051,8.933c-0.23,1.734-1.291,2.638-3.082,2.777c-5.172,0.402-10.348,0.792-15.5,1.373
		c-0.785,0.089-1.893,1.049-2.1,1.811c-0.496,1.825,1.314,3.393,3.943,3.407c3.564,0.019,7.133-0.085,10.691-0.287
		c4.197-0.238,4.516,0.062,3.912,4.158c-0.984,6.695-1.971,13.389-2.863,20.097c-0.334,2.526-0.672,5.102-0.531,7.628
		c0.143,2.589,0.158,4.948-1.832,6.529c0.256,1.367,0.197,2.663,0.752,3.597c0.65,1.099,1.834,1.881,2.785,2.8
		c0.908-1.062,2.467-2.039,2.621-3.2c1.117-8.43,1.953-16.897,2.877-25.352c0.492-4.501,0.996-9.002,1.477-13.505
		c0.252-2.35,1.191-3.994,3.703-4.683c8.037-2.204,16.053-4.479,24.039-6.854c4.955-1.473,9.84-3.184,14.764-4.767
		c1.705-0.549,3.432-1.03,5.312-1.591C664.395,120.164,662.539,121.182,661.098,121.445z"/>
	<path fill="#126D8F" d="M576.434,141.34c-2.756,2.282-5.111,5.043-7.748,7.478c-0.744,0.687-1.875,1.427-2.781,1.37
		c-2.178-0.136-2.787,1.024-3.004,2.767c-0.088,0.708,0.051,1.454-0.098,2.143c-1.643,7.612-3.35,15.211-4.965,22.829
		c-0.381,1.8-0.207,3.749-0.762,5.477c-2.027,6.319-1.865,12.866-2.068,19.35c-0.039,1.221,1.637,2.496,2.52,3.746
		c0.965-0.824,2.059-1.545,2.846-2.514c0.518-0.635,0.709-1.613,0.836-2.469c0.705-4.731,1.422-9.463,1.982-14.213
		c0.492-4.176,0.719-8.382,1.184-12.562c0.41-3.682,1.086-4.177,4.627-3.625c10.234,1.596,16.541-3.004,21.309-12.12
		c1.467-2.806,1.754-6.23,2.455-8.897c-0.303-1.878-0.268-3.224-0.746-4.353C589.418,139.593,581.799,136.897,576.434,141.34z
		 M584.77,157.106c-2.793,2.894-6.037,5.369-9.197,7.889c-0.963,0.768-2.219,1.228-3.406,1.642
		c-3.826,1.336-5.619-0.109-5.219-4.162c0.514-5.194,2.609-9.662,6.299-13.355c1.596-1.6,2.734-3.528,5.262-4.285
		c4.498-1.347,8.943-0.314,9.02,6.598C586.639,153.352,586.158,155.668,584.77,157.106z"/>
	<path fill="#126D8F" d="M133.111,150.233c-1.875,1.607-3.518,3.483-5.277,5.222c-0.525,0.519-1.098,0.988-2.102,1.882
		c-0.572-3.396-1.072-6.048-1.459-8.717c-0.691-4.776-5.035-7.26-9.277-5.015c-1.836,0.972-3.445,2.49-4.922,3.99
		c-1.201,1.219-2.248,1.947-3.924,1.011c-1.688-0.944-2.578-0.103-2.906,1.526c-0.283,1.407-0.375,2.853-0.643,4.264
		c-0.717,3.765-1.506,7.516-2.219,11.281c-0.465,2.464,0.967,4.882,3.199,5.379c2.742,0.61,3.045-1.626,3.727-3.35
		c0.232-0.587,0.293-1.239,0.453-1.857c1.475-5.695,3.891-10.959,7.434-15.657c0.562-0.745,1.666-1.345,2.576-1.439
		c0.389-0.041,1.09,1.342,1.357,2.171c0.314,0.966,0.607,2.106,0.389,3.05c-1.08,4.641-2.15,9.299-3.592,13.834
		c-0.863,2.723-1,3.088,1.75,4.711c2.355,1.39,3.059,1.135,4.758-1.056c3.67-4.73,7.42-9.401,11.219-14.028
		c0.465-0.567,1.438-0.717,2.176-1.061c0.193,0.731,0.635,1.497,0.539,2.187c-0.359,2.56-0.785,5.121-1.393,7.631
		c-0.523,2.16,0.318,4.55,2.037,5.021c2.217,0.608,3.703-0.57,4.184-3.328c0.139-0.787,0.256-1.577,0.379-2.367
		c0.672-4.344,1.518-8.657-0.219-13.002C139.812,148.663,136.258,147.536,133.111,150.233z"/>
	<path fill="#126D8F" d="M188.953,173.803c-0.238-0.207-0.766-0.046-1.148-0.124c-2.963-0.6-4.482-2.706-4.105-5.713
		c0.088-0.712,0.229-1.428,0.432-2.118c0.74-2.513,1.568-5.003,2.266-7.529c0.506-1.828-0.402-3.302-1.93-3.973
		c-1.611-0.708-2.893,0.267-3.701,1.784c-0.26,0.49-0.557,0.979-0.928,1.389c-3.301,3.654-6.363,7.582-10.023,10.837
		c-2.732,2.432-6.152,4.169-9.441,5.878c-2.414,1.254-3.742,0.202-3.461-2.479c0.109-1.07,0.619-2.134,1.107-3.124
		c2.936-5.977,7.396-10.72,12.396-14.987c0.85-0.724,2.023-1.067,3.127-1.626c0.533,1.014,0.896,1.709,1.252,2.385
		c0.709,0.109,1.398,0.192,2.078,0.325c2.199,0.429,2.818-0.052,2.834-2.238c0.023-3.111-2.24-5.982-5.701-7.229
		c-2.609-0.941-5.561,0.208-7.852,2.753c-5.43,6.027-9.562,12.906-13.436,19.971c-2.408,4.394-1.744,6.021,1.039,10.322
		c1.189,1.839,2.979,2.271,5.055,1.795c4.271-0.977,8.1-2.583,11.146-6.016c2.07-2.334,4.725-4.15,7.441-6.476
		c0.383,1.014,0.707,1.651,0.865,2.328c1.143,4.871,5.229,7.744,10.289,7.067c0.82-0.11,1.568-0.763,2.35-1.166
		C190.262,175.151,189.662,174.413,188.953,173.803z"/>
	<path fill="#126D8F" d="M293.82,152.539c0.668,1.056,1.936,2.137,1.893,3.163C295.756,154.675,294.869,152.539,293.82,152.539z"/>
	<path fill="#126D8F" d="M295.713,155.702c0.043-1.026-1.225-2.107-1.893-3.163c-0.91,0.579-2.303,0.959-2.639,1.774
		c-0.963,2.345-2.043,4.852-2.107,7.32c-0.238,9.424-0.096,18.857-0.096,27.479c-0.492,3.128-0.988,5.396-1.186,7.691
		c-0.559,6.482-2.943,12.23-6.834,17.365c-0.641,0.846-1.824,1.281-2.758,1.908c-0.455-1.143-1.098-2.25-1.318-3.436
		c-0.273-1.467-0.037-3.031-0.34-4.488c-0.146-0.711-0.936-1.656-1.578-1.785c-0.553-0.111-1.748,0.676-1.891,1.256
		c-0.434,1.773-0.758,3.654-0.656,5.467c0.25,4.381,1.912,8.115,5.447,10.984c1.203,0.977,2.039,0.811,2.871-0.074
		c1.416-1.504,2.795-3.064,4.018-4.727c3.873-5.26,6.977-11.01,8.244-17.4c1.664-8.392,1.76-16.96,1.553-25.513
		c-0.09-3.801-0.205-7.614,0.01-11.403C294.736,161.859,295.586,158.797,295.713,155.702z"/>
	<path fill="#126D8F" d="M87.021,142.677c-1.76-0.653-3.463-0.831-4.594,1.184c-1.779,3.176-3.266,6.585-5.463,9.444
		c-3.248,4.226-6.951,8.112-10.588,12.024c-1.193,1.28-3.1,0.733-3.223-0.963c-0.25-3.388-0.504-6.885,0.066-10.195
		c0.629-3.657,0.699-4.602-2.957-7.519c-0.709,2.006-1.633,3.764-1.93,5.622c-0.768,4.781-1.539,9.486-0.58,14.482
		c0.82,4.272,5.67,7.709,9.211,5.164c2.383-1.713,4.113-4.322,6.172-6.498c0.842-0.888,1.775-1.689,2.988-2.834
		c0.824,3.475,1.34,6.031,2.045,8.534c0.992,3.508,3.342,5.715,6.951,6.306c0.814,0.133,1.76-0.542,2.645-0.844
		c-0.496-0.808-0.877-1.73-1.521-2.393c-0.805-0.826-2.496-1.324-2.641-2.164c-0.559-3.239-1.455-6.744-0.742-9.805
		c1.273-5.479,3.615-10.711,5.523-16.042C88.951,144.6,88.709,143.304,87.021,142.677z"/>
	<path fill="#126D8F" d="M415.111,165.141c0.73-1.495,1.441-3.014,1.971-4.586c0.549-1.625,0.932-3.365-1.107-4.372
		c-2.127-1.051-3.928,0.228-4.697,1.701c-2.967,5.678-8.311,8.505-13.373,11.604c-1.803,1.102-4.195,1.343-6.363,1.67
		c-0.535,0.081-1.885-1.224-1.781-1.574c0.658-2.25,1.076-4.95,2.6-6.48c2.605-2.618,5.787-4.831,9.082-6.522
		c1.627-0.835,4.049-0.171,6.107-0.102c1.057,0.036,2.109,0.256,3.162,0.393c-0.119-1.192,0.172-2.678-0.434-3.522
		c-2.371-3.305-8.199-4.51-11.484-2.03c-5.525,4.171-11.082,8.484-13.709,15.281c-0.6,1.549-1.275,3.39-0.971,4.905
		c0.879,4.369,5.275,6.298,10.002,5.12c4.008-1,7.223-3.243,10.387-5.672c2.688-2.062,3.094-2.017,5.158,0.669
		c2.24,2.916,6.43,3.151,9.512,0.208c-0.787-0.548-1.451-1.167-2.234-1.527C414.314,169.095,413.836,167.75,415.111,165.141z"/>
	<path fill="#126D8F" d="M332.686,169.867c0.895-2.448,1.717-4.922,2.365-6.788c-0.016-2.324-0.365-3.238-1.551-3.738
		c-0.293-0.122-1.934-0.561-2.006-0.569c-1.316-0.15-3.061,2.781-4.418,5.225c-2.246,4.04-5.65,6.918-9.973,8.56
		c-2.496,0.948-4.793-0.847-4.635-4.351c0.016-3.06,2.76-5.767,4.625-8.892c0.404-0.677,0.809-1.362,1.129-2.081
		c1.039-2.329,3.279-3.73,5.768-3.443c0.471,0.055,1.088,0.42,1.301,0.822c0.088,0.163,0.164,0.331,0.24,0.5
		c0.014,0.035,0.029,0.069,0.045,0.103c0.068,0.163,0.133,0.327,0.195,0.493c0.014,0.038,0.027,0.076,0.041,0.114
		c0.055,0.151,0.109,0.304,0.162,0.458c0.062,0.179,0.125,0.358,0.189,0.537c0.014,0.038,0.027,0.075,0.041,0.112
		c0.062,0.175,0.129,0.349,0.199,0.522c0.008,0.017,0.014,0.034,0.021,0.052c0.066,0.157,0.135,0.311,0.211,0.465
		c0.014,0.029,0.027,0.06,0.043,0.089c0.08,0.159,0.168,0.315,0.264,0.469c0.021,0.033,0.043,0.065,0.064,0.098
		c0.908,1.367,1.611,0.719,1.695,0.358c0.107-0.456,0.092-1.262-0.461-2.495c-0.215-0.664-0.844-3.438-0.854-3.803
		c-0.111-3.843-3.021-5.604-6.318-3.65c-1.766,1.046-3.387,2.406-4.875,3.83c-4.617,4.416-8.441,9.189-9.088,16.026
		c-0.514,5.452,5.365,11.669,11.162,9.187c1.457-0.624,2.873-1.388,4.195-2.26c1.758-1.158,3.09-1.316,4.312,0.773
		c1.408,2.41,3.75,3.463,6.473,3.428c0.732-0.009,2.004-0.665,2.062-1.145c0.109-0.868-0.232-2.158-0.871-2.688
		C331.844,174.029,331.506,173.1,332.686,169.867z"/>
	<path fill="#126D8F" d="M457.32,161.322c-3.713-3.31-8.439-2.408-12.758-3.099c-2.186-0.344-4.389-0.614-6.549-1.076
		c-0.617-0.133-1.551-0.804-1.568-1.257c-0.025-0.638,0.512-1.625,1.084-1.906c3.643-1.795,7.303-3.59,11.094-5.021
		c0.895-0.338,2.605,0.415,3.42,1.204c0.98,0.95,1.877,1.541,2.773,0.545c0.572-0.636,0.896-2.12,0.541-2.828
		c-0.576-1.149-1.777-2-2.758-2.93c-2.414-2.285-7.328-2.628-9.92-0.639c-3.479,2.671-6.861,5.468-10.375,8.089
		c-1.643,1.225-2.545,2.693-2.205,4.686c0.383,2.247,1.475,4.265,3.881,4.657c3.836,0.625,7.758,0.729,11.588,1.377
		c1.572,0.266,3.004,1.372,4.5,2.096c-1.318,0.849-2.598,2.345-3.957,2.422c-4.004,0.229-5.873,2.9-7.578,5.808
		c-0.416,0.708-0.426,2.249,0.059,2.749c0.689,0.713,2.201,1.378,3.025,1.094c6.598-2.278,12.281-5.949,16.477-11.671
		C459.355,163.9,458.832,162.668,457.32,161.322z"/>
	<path fill="#126D8F" d="M229.48,155.003c-0.568-0.886-1.412-2.079-2.273-2.214c-4.48-0.705-9.107-2.113-13.104,1.644
		c-0.961,0.904-2.238,1.574-3.484,2.039c-0.848,0.315-2.115,0.452-2.816,0.034c-2.469-1.475-3.512-1.018-4.094,1.826
		c-0.797,3.898-1.795,7.755-2.707,11.63c-0.217,0.93-0.52,1.851-0.623,2.794c-0.215,1.947,1.799,4.325,3.727,4.509
		c1.979,0.191,3.191-1.119,3.693-3.553c0.414-2.011,1.066-3.979,1.727-5.929c1.475-4.351,5.152-6.807,8.619-9.24
		c1.357-0.954,3.877-1.329,5.326-0.706c0.998,0.428,1.656,3.12,1.416,4.634c-0.453,2.869-1.557,5.659-2.592,8.405
		c-0.871,2.306-0.326,6.145,1.648,7.501c1.98,1.361,4.072,0.954,6.355-0.784c-2.367-3.218-1.131-6.312-0.256-9.628
		C231.17,163.689,232.156,159.181,229.48,155.003z"/>
	<path fill="#126D8F" d="M380.398,148.882c-1.125-0.293-2.801-0.036-3.697,0.672c-2.115,1.665-3.912,3.737-5.834,5.647
		c-2.875,2.855-5.748,5.712-8.623,8.568c-0.273-0.096-0.547-0.191-0.818-0.288c-0.127-0.894-0.336-1.786-0.367-2.684
		c-0.121-3.421-0.031-6.861-0.385-10.255c-0.084-0.794-1.629-2.031-2.447-1.99c-0.889,0.045-2.342,1.258-2.457,2.11
		c-0.471,3.47-0.654,6.995-0.689,10.503c-0.029,2.94,0.205,5.893,0.494,8.824c0.184,1.876,0.514,3.775,1.076,5.569
		c0.709,2.257,3.973,2.622,5.301,0.459c2.541-4.137,5.311-8.145,8.18-12.064c2.689-3.675,5.568-7.167,9.883-9.225
		c1.131-0.54,2.098-2.113,2.41-3.39C382.584,150.679,381.281,149.112,380.398,148.882z"/>
	<path fill="#126D8F" d="M524.244,139.298c-3.486,2.333-6.664,5.149-9.852,7.902c-1.496,1.292-2.764,2.537-4.613,0.652
		c-0.807-0.823-1.732-2.068-2.898-1.062c-0.895,0.771-1.621,2.104-1.799,3.282c-0.869,5.738-1.689,11.495-2.139,17.276
		c-0.107,1.372,1.084,3.026,2.078,4.218c0.428,0.513,2.354,0.606,2.76,0.147c1.141-1.287,2.438-2.898,2.604-4.493
		c0.48-4.608,2.293-8.791,4.688-12.423c3.768-5.716,8.471-10.782,14.49-14.397c0.721-0.432,1.119-1.402,1.701-2.17
		C528.264,136.535,526.051,138.091,524.244,139.298z"/>
	<path fill="#126D8F" d="M492.201,162.961c-4.424,0.924-8.816,2.152-13.287,2.646c-3.098,0.343-5.252-2.865-4.367-5.917
		c0.492-1.698,1.531-3.232,2.127-4.909c1.479-4.161,6.01-6.541,10.287-5.395c0.721,0.193,1.568-0.082,2.355-0.14
		c-0.121-0.233-0.24-0.467-0.361-0.7c-0.416-0.877-0.697-1.862-1.289-2.599c-0.572-0.714-1.467-1.646-2.213-1.641
		c-1.385,0.01-2.812,0.511-4.143,1.021c-5.275,2.029-8.896,5.859-11.182,10.915c-0.893,1.971-1.934,4.227-1.76,6.254
		c0.357,4.202,4.936,7.632,9.199,7.997c7.205,0.617,12.924-2.785,18.557-6.501c0.477-0.315,0.701-1.012,1.045-1.531
		C495.252,162.295,493.729,162.642,492.201,162.961z"/>
	<path fill="#126D8F" d="M541.213,152.732c-0.561-0.608-1.318-1.226-1.824-1.832c-0.439,0.488-1.062,0.938-1.49,1.43
		c-0.062,0.07-0.119,0.141-0.17,0.213c-0.139,0.192-0.24,0.393-0.285,0.604c-1.125,5.354-2.049,10.751-3.039,16.134
		c-0.143,0.781-0.289,1.562-0.486,2.631c0.096,0.281,0.217,0.803,0.445,1.271c0.701,1.445,2.082,2.553,3.416,1.839
		c1.188-0.636,2.385-2.262,2.564-3.588c0.779-5.741,1.332-11.523,1.598-17.309c0.012-0.259-0.086-0.522-0.252-0.789
		C541.562,153.137,541.398,152.935,541.213,152.732z"/>
	<path fill="#126D8F" d="M290.865,130.166c-1.451-0.995-3.664-2-5.162,0.033C287.201,128.166,288.998,129.693,290.865,130.166z"/>
	<path fill="#126D8F" d="M288.936,136.331c2.326-1.403,1.754-3.811,1.93-6.165c-1.867-0.473-3.664-2-5.162,0.033
		c-1.676,2.272,0.719,3.587,1.623,5.19C287.602,135.879,288.666,136.493,288.936,136.331z"/>
	<path fill="#126D8F" d="M547.691,134.434c-1.148,0.591-1.965,1.011-2.781,1.432c0.404,0.695,0.756,1.429,1.227,2.076
		c0.461,0.636,1.004,1.228,1.58,1.764c1.207,1.124,2.746,0.978,3.635-0.03c0.49-0.556,0.289-2.362-0.275-3.052
		C550.26,135.625,548.832,135.129,547.691,134.434z"/>
	<path fill="#126D8F" d="M325.576,155.214c0.068,0.163,0.133,0.327,0.195,0.493"/>
	<path fill="#126D8F" d="M326.404,157.45c0.008,0.017,0.014,0.034,0.021,0.052"/>
	<path fill="#126D8F" d="M325.291,154.611c0.088,0.163,0.164,0.331,0.24,0.5"/>
	<path fill="#126D8F" d="M326.943,158.524c0.021,0.033,0.043,0.065,0.064,0.098"/>
	<path fill="#126D8F" d="M326.68,158.055c-0.016-0.029-0.029-0.06-0.043-0.089"/>
	<path fill="#126D8F" d="M325.812,155.821c0.055,0.151,0.109,0.304,0.162,0.458"/>
	<path fill="#126D8F" d="M326.164,156.815c0.014,0.038,0.027,0.075,0.041,0.112"/>
	<path fill="#126D8F" d="M327.352,159.089c-0.006-0.004-0.008-0.009-0.012-0.014c0,0.002,0.002,0.005,0.004,0.007
		S327.348,159.086,327.352,159.089z"/>
</g>
<g>
	<path fill-rule="evenodd" clip-rule="evenodd" fill="#126D8F" d="M356.079,291.819c-0.256,3.764-0.383,6.928-0.719,10.068
		c-0.227,2.123-1.189,4.096-3.645,3.928c-2.113-0.143-2.922-1.951-3.055-3.955c-0.045-0.664-0.021-1.332-0.037-1.998
		c-0.072-2.957-0.271-4.49-3.826-2.006c-4.971,3.477-10.174,6.311-16.869,6.439c-5.801,0.113-8.705-3.086-10.027-7.096
		c-1.818-5.516-3.145-3.467-5.336-0.676c-2.812,3.582-6.662,5.502-11.033,6.256c-6.121,1.059-10.172-3.262-8.486-9.25
		c2.588-9.199,9.109-15.582,16.182-21.48c1.598-1.332,3.512-0.658,5.299-0.799c1.711-0.135,3.109,0.457,3.277,2.227
		c0.164,1.73-1.213,2.318-2.707,3.021c-7.641,3.598-11.561,10.504-15.096,17.666c-0.238,0.48-0.164,1.453,0.174,1.809
		c0.836,0.875,1.918,0.244,2.766-0.115c5.213-2.209,8.855-6.291,12.262-10.6c1.02-1.287,1.785-2.773,2.719-4.133
		c1.008-1.467,1.809-3.566,4.119-2.791c2.49,0.836,2.791,3.047,2.588,5.357c-0.234,2.643-1.166,5.174-0.924,7.906
		c0.541,6.131,3.736,8.486,8.939,5.443c6.344-3.711,14.234-6.221,15.414-15.422c0.182-1.412,1.264-3.709,3.752-3.176
		c1.943,0.416,1.873,1.908,2.314,3.643C354.995,285.516,357.216,288.614,356.079,291.819z"/>
	<path fill-rule="evenodd" clip-rule="evenodd" fill="#126D8F" d="M402.478,283.637c-0.98-0.33-2.029-0.605-2.865,0.133
		c-4.223,3.729-8.682,7.232-11.604,12.215c-0.551,0.938-0.951,1.891-0.475,2.799c0.766,1.463,2.244,0.646,3.096,0.303
		c4.176-1.682,8.07-3.867,10.705-7.727c0.941-1.377,1.736-2.918,3.857-2.438c2.152,0.488,2.814,2.203,3.238,4.014
		c0.82,3.51,0.76,7.186,3.361,10.254c1.449,1.711-0.424,2.793-1.994,2.787c-2.539-0.01-4.98-0.635-6.355-3.176
		c-1.537-2.838-3.621-2.883-6.211-1.398c-2.314,1.326-4.816,2.373-7.49,2.646c-5.977,0.613-12.072-3.041-7.961-10.096
		c4.574-7.85,10.748-14.211,20.068-16.398c3.002-0.705,3.742,1.465,3.846,3.836C405.794,283.68,404.542,284.321,402.478,283.637z"/>
	<path fill-rule="evenodd" clip-rule="evenodd" fill="#126D8F" d="M369.048,280.227c-0.875-10.246-0.49-20.482-0.043-30.719
		c0.035-0.828,0.012-1.711,0.293-2.465c0.689-1.852,1.432-4.16,3.861-3.795c2.041,0.307,1.781,2.562,1.828,4.145
		c0.342,11.598,0.277,23.184-0.402,34.781c-0.348,5.936,0.188,11.928,0.422,17.893c0.105,2.725-0.504,5.646-3.303,5.789
		c-2.98,0.15-2.83-2.662-2.738-5.219C369.208,293.842,369.048,287.032,369.048,280.227z"/>
	<path fill-rule="evenodd" clip-rule="evenodd" fill="#126D8F" d="M516.694,254.092c-1.305-6.93,2.809-9.451,6.121-11.805
		c8.018-5.697,20.879,0.705,21.373,10.41c0.086,1.668-0.703,3.234-1.988,4.434c-7.689,7.18-16.768,12.211-26.197,17.518
		c-0.654-4.438,1.082-6.904,4.295-8.617c4.863-2.592,9.168-5.998,13.463-9.395c1.844-1.459,3.531-3.314,2.742-5.924
		c-0.701-2.316-2.92-2.9-5.008-3.635C524.94,244.768,520.862,248.52,516.694,254.092z"/>
	<path fill-rule="evenodd" clip-rule="evenodd" fill="#126D8F" d="M262.433,275.239c2.805,0.75,3.986,2.449,4.555,4.982
		c0.525,2.342,0.141,5.979,2.609,6.514c2.609,0.566,3.295-3.184,4.877-4.973c3.527-3.984,6.826-8.168,10.312-12.191
		c0.85-0.98,1.988-1.768,3.123-2.424c1.088-0.633,2.396-0.438,3.236,0.443c0.768,0.805,0.389,1.932-0.199,2.777
		c-1.889,2.725-4.004,5.305-5.73,8.125c-3.291,5.373-6.402,10.855-9.535,16.324c-3.412,5.959-6.557,6.105-10.105,0.428
		c-2.869-4.584-3.939-9.855-5.648-14.875C259.097,277.934,260.546,276.372,262.433,275.239z"/>
	<path fill-rule="evenodd" clip-rule="evenodd" fill="#126D8F" d="M461.261,285.735c-0.254-12.398,3.076-25.375,7.707-38.102
		c0.455-1.252,0.666-2.928,2.504-2.287c1.438,0.5,1.594,2.049,1.369,3.41c-1.182,7.207-2.096,14.479-3.719,21.588
		c-1.861,8.156-2.082,16.432-2.799,24.68c-0.115,1.322,0.09,2.73-0.307,3.951c-0.443,1.369-1.146,3.014-2.969,2.945
		c-2.312-0.086-1.73-2.057-1.758-3.416C461.208,294.678,461.261,290.846,461.261,285.735z"/>
	<path fill-rule="evenodd" clip-rule="evenodd" fill="#126D8F" d="M162.134,270.504c-2.768,1.904-5.053,3.195-7.006,4.875
		c-3.908,3.361-3.672,6.045,0.455,9.176c1.311,0.994,2.533,2.119,3.713,3.271c2.811,2.744,4.887,6.057,2.129,9.635
		c-2.543,3.301-6.51,4.301-10.721,3.67c-0.82-0.123-1.805-0.295-1.967-1.219c-0.195-1.111,0.713-1.729,1.547-2.326
		c5.773-4.148,5.791-4.668,0.4-9.07c-5.414-4.422-6.715-8.496-4.189-13.121C149.382,270.11,154.589,268.286,162.134,270.504z"/>
	<path fill-rule="evenodd" clip-rule="evenodd" fill="#126D8F" d="M138.288,272.676c-1.178,7.576-2.336,15.764-3.793,23.898
		c-0.391,2.178-2.127,4.211-4.594,3.518c-2.449-0.689-1.191-3.135-0.973-4.756c0.861-6.396,1.91-12.768,2.92-19.143
		c0.26-1.635,0.502-3.293,0.986-4.869c0.49-1.588,1.217-3.33,3.369-2.873C138.04,268.842,138.048,270.545,138.288,272.676z"/>
	<path fill-rule="evenodd" clip-rule="evenodd" fill="#126D8F" d="M518.601,302.317c-0.102-4.828,2.66-7.385,7.711-7.59
		c2.375-0.098,3.402,0.598,3.324,2.992c-0.152,4.74-3.721,9.359-7.252,9.289C519.985,306.961,518.663,305.323,518.601,302.317z"/>
	<path fill-rule="evenodd" clip-rule="evenodd" fill="#126D8F" d="M352.853,255.542c-2.727-0.158-5.654-0.965-5.42-4.168
		c0.17-2.348,1.398-5.287,4.566-5.674c2.863-0.35,7.771,3.34,7.443,5.443C358.866,254.838,356.259,255.79,352.853,255.542z"/>
	<path fill-rule="evenodd" clip-rule="evenodd" fill="#126D8F" d="M133.839,264.243c-1.619-0.154-3.848-1.143-3.893-3.434
		c-0.033-1.73,1.379-4.201,3.602-3.965c2.074,0.223,4.967,0.979,4.932,3.824C138.456,262.616,136.974,264.313,133.839,264.243z"/>
	<path fill-rule="evenodd" clip-rule="evenodd" fill="#126D8F" d="M447.263,282.575c-4.992-1.893-9.502,0.17-13.67,2.475
		c-2.594,1.436-3.586,0.949-3.066-1.627c2.301-11.432,0.672-23.65,6.727-34.32c1.447-2.553-0.391-3.779-1.898-4.846
		c-2.004-1.42-3.006,0.383-3.74,1.869c-0.877,1.773-1.926,3.598-2.219,5.502c-2.236,14.576-4.307,29.178-6.252,42.553
		c-0.229,4.982,0.723,8.189,4.146,10.166c3.707,2.143,5.922-0.723,8.17-2.795c4.154-3.83,8.555-7.328,13.066-10.721
		C452.776,287.635,452.259,284.469,447.263,282.575z M436.095,292.67c-0.65,0.584-1.617,0.816-2.391,1.184
		c-0.713-1.025-0.65-1.807-0.141-2.525c1.424-2.012,2.898-4.002,5.605-4.318c0.625-0.074,1.574,0.119,1.467,0.881
		C440.271,290.487,437.733,291.196,436.095,292.67z"/>
	<path fill-rule="evenodd" clip-rule="evenodd" fill="#126D8F" d="M251.415,300.012c-4.137-2.5-4.293-6.391-3.916-11.695
		c1.367-3.799-2.061-7.932-2.707-12.588c-0.566-4.09-5.084-5.217-8.619-2.857c-7.057,4.711-11.004,11.848-14.291,19.285
		c-1.033,2.34-1.348,5.424,1.324,7.785c2.918,2.576,5.754,2.084,8.678,0.41c2.592-1.484,5.178-3.016,7.576-4.787
		c2.18-1.611,3.324-1.191,3.596,1.381c0.334,3.164,2.729,4.832,4.648,6.848c1.273,1.338,2.705,1.162,3.973-0.004
		C253.095,302.481,252.925,300.924,251.415,300.012z M240.231,282.903c-2.25,5.871-6.57,9.768-13.066,13.363
		c2.484-6.732,5.078-11.814,9.609-15.682c0.926-0.789,1.971-2.24,3.387-0.957C241.14,280.516,240.657,281.788,240.231,282.903z"/>
	<path fill-rule="evenodd" clip-rule="evenodd" fill="#126D8F" d="M505.761,297.196c-1.617-2.299-2.99-0.406-4.043,0.51
		c-1.375,1.199-2.76,1.74-4.314,1.506c-5.67-0.027-7.959-3.732-5.451-8.549c1.861-3.578,4.785-6.352,7.291-9.438
		c1.031-1.27,2.916-2.57,1.912-4.146c-0.969-1.52-2.602-2.932-4.893-2.953c-6.361-0.064-12.34,5.281-12.551,11.758
		c-0.096,2.896-0.795,5.197-3.096,6.961c-1.242,0.951-1.822,2.24-2.238,3.752c-0.297,1.07-0.471,2.041,0.338,2.73
		c0.93,0.795,2.039,0.109,2.639-0.539c2.154-2.334,3.193-1.242,4.924,0.773c4.873,5.672,12.682,6.225,17.818,1.557
		C505.175,300.137,507.278,299.348,505.761,297.196z M494.485,279.065c-0.672,3.789-3.93,4.768-6.289,6.605
		C489.022,282.459,489.921,279.227,494.485,279.065z"/>
</g>
<g>
	<path fill-rule="evenodd" clip-rule="evenodd" fill="#126D8F" d="M406.814,43.049c-4.805-2.163-8.189-1.226-11.855,3.017
		c-2.057,2.38-3.146,5.627-6.006,7.235c-1.943,1.095-4.074,3.736-6.066,2.38c-1.471-1-0.377-3.912,0.27-6.059
		c0.828-2.745-0.021-5.354-2.701-6.858c-2.439-1.369-4.391-0.026-6.309,1.447c-2.344,1.799-3.83,4.577-7.25,6.136
		c-0.66-2.132-0.32-4.083-1.848-5.477c-1.951-1.779-3.322-1.722-3.756,0.987c-0.836,5.236-1.547,10.5-2.074,15.776
		c-0.205,2.04-0.631,4.562,2.262,5.396c2.883,0.83,4.314-1.353,5.596-3.199c1.865-2.688,3.26-5.701,5.104-8.406
		c1.043-1.529,1.467-4.465,3.865-3.922c2.645,0.6,1.15,3.345,1.246,5.073c0.441,7.96,1.414,8.501,8.363,4.236
		c0.988-0.606,2.08-1.044,3.074-1.643c1.611-0.97,2.953-0.935,3.365,1.138c0.963,4.834,4.578,5.133,8.41,5.091
		c5.371-0.06,14.287-6.06,14.836-9.941C415.947,51.164,411.967,45.37,406.814,43.049z M399.777,60.697
		c-3.268-0.848-3.75-4-3.857-6.717c-0.119-3.008,4.58-7.018,7.859-6.69c2.449,0.929,5.627,1.883,5.486,5.91
		C409.174,55.888,402.381,61.372,399.777,60.697z"/>
	<path fill-rule="evenodd" clip-rule="evenodd" fill="#126D8F" d="M331.406,41.494c5.203-4.775,10.48-9.474,15.57-14.366
		c1.893-1.819,3.516-2.456,5.473-0.409c2.439,2.549-0.576,3.372-1.656,4.593c-3.613,4.082-8.574,6.75-11.631,11.497
		c-2.908,4.518-2.889,6.053,2.035,8.947c4.025,2.366,8.057,4.587,11.189,8.191c1.078,1.24,2.275,2.198,0.787,3.688
		c-1.422,1.425-2.52-0.08-3.363-0.888c-4.039-3.869-9.33-5.724-13.855-8.805c-4.035-2.746-6.176-2.193-8.387,2.107
		c-0.975,1.893-1.564,3.997-2.191,6.046c-0.363,1.184-0.721,2.369-2.148,2.297c-1.367-0.068-1.783-1.427-2.219-2.439
		c-1.352-3.138-0.262-6.324,0.436-9.317c2.793-11.981,4.662-24.125,6.885-36.208c0.502-2.731,0.438-7.554,3.828-6.999
		c3.914,0.641,2.174,5.16,1.762,8.111c-1.086,7.814-2.35,15.604-3.545,23.402C330.719,41.126,331.062,41.31,331.406,41.494z"/>
	<path fill-rule="evenodd" clip-rule="evenodd" fill="#126D8F" d="M555.641,41.735c2.602-2.042,4.564-3.785,6.723-5.238
		c4.244-2.855,9.225-1.109,10.834,3.728c1.338,4.024,1.49,8.179,0.736,12.312c-0.547,2.993-0.352,5.97-0.361,8.959
		c-0.006,1.366,2.078,3.567-1.025,3.735c-1.979,0.106-3.732-0.902-4.307-3.354c-0.943-4.023-0.379-7.971,0.34-11.879
		c0.594-3.234,1.225-7.425-1.449-8.716c-2.92-1.409-5.494,2.321-7.314,4.692c-2.51,3.269-4.271,7.099-6.604,10.516
		c-1.361,1.992-3.07,4.813-5.879,3.425c-2.459-1.216-2.348-4.352-1.611-6.736c3.865-12.516,5.016-25.711,9.609-38.034
		c0.289-0.772,0.432-1.606,0.777-2.35c0.695-1.501,1.27-3.217,3.586-2.464c2.254,0.732,1.955,2.381,1.525,4.058
		c-1.809,7.043-3.584,14.095-5.508,21.105C555.211,37.325,555.115,39.061,555.641,41.735z"/>
	<path fill-rule="evenodd" clip-rule="evenodd" fill="#126D8F" d="M51.832,58.129c5.037-5.965,6.182-12.582,8.484-18.657
		c0.768-2.023,0.754-5.635,3.607-4.662c2.238,0.764,2.873,3.857,1.75,6.939c-2.377,6.521-4.264,13.223-6.219,19.89
		c-0.438,1.492-1.137,2.736-2.025,3.945c-3.77,5.127-6.99,5.047-9.27-0.831c-1.715-4.418-3.223-3.491-5.648-0.942
		c-1.482,1.56-3.049,3.079-4.764,4.369c-2.859,2.151-6.025,1.241-6.227-2.217c-0.467-8.09-2.281-16.257,0.115-24.314
		c0.547-1.843,0.74-4.981,3.775-4.071c2.543,0.764,2.379,3.421,1.639,5.566c-1.613,4.668,0.994,9.214-0.393,14.377
		c4.002-1.082,4.914-5.381,8.406-5.723C49.025,51.411,51.248,53.427,51.832,58.129z"/>
	<path fill-rule="evenodd" clip-rule="evenodd" fill="#126D8F" d="M541.264,40.187c-1.004,7.74-5.127,13.811-10.344,19.283
		c-1.332,1.399-2.336,0.509-3.266-0.613c-1.916-2.316-3.625-4.722-4.297-7.753c-0.682-3.067-2.244-3.55-4.346-1.12
		c-3.07,3.552-6.809,6.345-10.492,9.165c-3.701,2.834-6.086,2.328-7.459-1.915c-3.002-9.273-0.127-18.258,2.152-27.194
		c0.268-1.048,1.352-2.116,2.719-1.474c1.809,0.851,2.789,2.313,2.336,4.442c-0.822,3.875-1.588,7.764-2.484,11.622
		c-0.641,2.765-1.672,6.558,0.451,7.866c2.336,1.439,4.053-2.388,6.029-3.913c0.906-0.697,1.578-1.7,2.34-2.579
		c5.859-6.757,8.521-6.68,12.908,0.866c1.689,2.905,2.484,2.191,3.938,0.012c1.865-2.797,2.953-5.879,3.748-9.076
		c0.48-1.937,0.65-4.56,3.123-4.236c2.359,0.31,2.932,2.828,2.943,5.121C541.266,39.19,541.264,39.688,541.264,40.187z"/>
	<path fill-rule="evenodd" clip-rule="evenodd" fill="#126D8F" d="M224.32,25.559c0.311,3.37-1.672,8.286,1.189,9.744
		c2.787,1.421,6.379-2.321,9.264-4.273c2.115-1.434,4.188-2.173,6.463-1.7c1.736,0.359,4.299,0.778,3.455,3.686
		c-0.654,2.256-1.508,4.271-4.748,3.813c-8.246-1.161-16.203,5.735-16.691,14.049c-0.234,3.966-1.148,7.886-0.836,11.895
		c0.234,3.012-1.203,4.479-4.16,3.979c-3.26-0.552-3.289-3.301-2.531-5.449c1.242-3.52,1.752-6.983,1.74-10.702
		c-0.012-3.87-1.477-3.855-4.123-2.191c-0.141,0.088-0.279,0.183-0.428,0.256c-2.072,1.018-4.777,3.915-6.299,1.312
		c-1.385-2.371,2.273-4.088,4.277-5.148c6.332-3.348,8.061-8.759,7.932-15.355c-0.068-3.484,0.24-6.975,0.326-10.464
		c0.061-2.465,1.016-4.565,3.635-4.345c2.303,0.194,2.242,2.575,2.154,4.409C224.836,21.228,224.537,23.375,224.32,25.559z"/>
	<path fill-rule="evenodd" clip-rule="evenodd" fill="#126D8F" d="M428.408,55.146c2.498-1.543,3.578-3.601,5.014-5.334
		c3.486-4.206,6.557-3.731,8.893,1.375c0.742,1.62,0.965,4.002,3.176,3.835c1.871-0.142,2.729-2.206,3.508-3.866
		c2.111-4.506,3.865-9.137,4.832-14.039c0.26-1.319,0.494-2.865,2.256-2.75c1.627,0.107,1.869,1.717,2.199,2.935
		c2,7.354-2.254,19.098-8.611,23.12c-2.355,1.49-4.645-0.135-6.762-1.371c-6.639-3.878-6.643-3.87-12.357,1.58
		c-0.604,0.574-1.23,1.122-1.818,1.71c-1.453,1.457-3.059,2.948-5.215,1.881c-1.994-0.986-2.361-3.093-2.23-5.16
		c0.334-5.294,0.617-10.597,1.18-15.868c0.203-1.911,0.799-4.685,3.029-4.55c1.816,0.11,2.621,2.816,2.779,4.704
		c0.234,2.801-0.092,5.646-0.127,8.474C428.141,52.756,428.289,53.693,428.408,55.146z"/>
	<path fill-rule="evenodd" clip-rule="evenodd" fill="#126D8F" d="M135.678,42.587c-1.443-0.421-3.537,0.86-4.209-1.468
		c-0.416-1.444,0.346-2.898,1.723-3.216c9.451-2.175,7.996-10.15,9.01-16.765c0.453-2.951,0.484-5.964,0.842-8.932
		c0.236-1.969,0.652-4.663,3.133-4.132c2.355,0.504,3.404,2.862,2.588,5.576c-1.555,5.166-1.162,10.521-1.549,15.809
		c-0.264,3.592,1.137,3.991,3.93,3.278c2.414-0.617,4.807-1.321,7.225-1.923c1.664-0.413,3.637-0.707,4.373,1.183
		c0.922,2.366-1.535,2.529-2.867,3.2c-3.549,1.786-7.672,1.821-11.217,3.918c-2.543,1.504-3.445,3.22-3.396,6.009
		c0.082,4.659-0.01,9.328-0.221,13.983c-0.072,1.569-0.156,3.742-2.293,3.889c-1.906,0.131-2.729-1.766-3.312-3.285
		c-0.99-2.581-0.748-5.34,0.086-7.858c0.654-1.979,0.529-3.911,0.73-5.876C140.645,42.162,138.678,41.735,135.678,42.587z"/>
	<path fill-rule="evenodd" clip-rule="evenodd" fill="#126D8F" d="M124.48,52.185c-0.107,2.642-0.607,5.26,2.867,6.579
		c1.602,0.608,1.26,2.443,0.283,3.849c-1.1,1.586-2.361,2.264-4.18,1.063c-3.15-2.081-3.85-5.16-3.629-8.647
		c0.082-1.283,0.449-3.095-0.705-3.589c-1.686-0.72-2.508,1.122-3.336,2.3c-2.471,3.513-4.811,7.12-7.359,10.574
		c-0.908,1.23-2.121,3.142-3.98,1.483c-1.441-1.285-4.133-2.264-2.715-5.112c2.092-4.206,2.861-8.746,3.789-13.291
		c0.896-4.386,2.963-4.964,6.295-1.721c1.338,1.305,1.826,1.467,3.541,0.582C121.697,42.978,124.508,44.909,124.48,52.185z"/>
	<path fill-rule="evenodd" clip-rule="evenodd" fill="#126D8F" d="M641.131,62.82c-1.717-3.437-2.793-7.057-4.006-10.67
		c-0.729-2.173-1.477-4.561-3.777-6.197c-4.586-3.263-7.258,0.198-10.578,2.185c-0.896,0.536-2.107,3.525-3.264,1.069
		c-1.881-4-3.449-1.474-4.398,0.043c-5.322,8.52-14.344,10.124-22.898,12.644c-2.668,0.785-4.775-0.181-6.795-2
		c-2.213-1.99-2.129-3.51,0.303-5.099c3.053-1.993,6.014-4.135,9.125-6.029c4.699-2.86,4.996-4.669-0.361-8.889
		c-1.723-1.357-3.705-1.178-5.678-0.434c-5.35,2.016-11.277,10.776-11.197,16.583c0.082,5.909,7.656,11.294,14.615,10.381
		c4.834-0.635,9.225-2.714,13.75-4.336c1.256-0.451,2.172-1.414,3.326,0.312c2.785,4.163,5.674,2.678,8.568-0.035
		c3.039-2.849,4.982-6.695,8.439-9.155c2.402-1.709,4.123-2.293,5.369,1.465c1.191,3.594,3.16,6.947,4.939,10.325
		c0.949,1.805,2.754,2.792,4.609,1.799C643.129,65.759,641.703,63.962,641.131,62.82z M587.818,44.367
		c0.682-1.051,1.883-1.618,2.936-0.825c1.273,0.959,0.945,2.433,0.035,3.464c-1.318,1.493-3.211,2.014-6.123,2.916
		C586.074,47.415,586.865,45.837,587.818,44.367z"/>
	<path fill-rule="evenodd" clip-rule="evenodd" fill="#126D8F" d="M100.035,63.129c-0.684-1.462-2.023-0.444-3.096-0.308
		c-4.992,0.299-7.318-2.334-5.961-7.527c1.391-5.318,3.988-10.589-2.881-14.118c-0.25-0.128-0.334-0.561-0.516-0.838
		c-2.844-4.378-5.318-4.512-8.988-0.547c-3.52,3.804-5.9,8.317-7.928,12.999c-1.33,3.075-2.172,6.253,0.529,9.298
		c2.871,3.236,7.121,3.559,10.01,2.225c3.877-1.789,5.996-0.585,8.682,1.529c2.627,2.067,5.609,3.17,8.496,0.519
		C99.209,65.603,100.727,64.611,100.035,63.129z M78.844,59.789c-2.076,1.021-3.58,1.122-3.473-1.844
		c0.133-3.598,4.021-10.33,7.373-12.816C85.27,52.576,84.01,57.249,78.844,59.789z"/>
	<path fill-rule="evenodd" clip-rule="evenodd" fill="#126D8F" d="M255.611,39.911c-3.74,0.575-7.467,1.368-11.113,2.38
		c-4.348,1.207-8.301,6.674-7.705,10.212c0.707,4.219,4.43,7.064,9.371,7.167c5.105,0.595,17.059-6.54,19.168-9.88
		c0.33-0.521,0.783-1.169,0.719-1.702C265.6,44.383,259.314,39.342,255.611,39.911z M258.184,48.677
		c-3.592,4.095-8.385,5.358-13.781,5.688c1.588-5.554,7.207-9.36,12.359-9.058C259.969,45.495,259.656,46.998,258.184,48.677z"/>
</g>
</svg>
