<?xml version="1.0" encoding="utf-8"?>
<!-- Generator: Adobe Illustrator 16.0.0, SVG Export Plug-In . SVG Version: 6.00 Build 0)  -->
<!DOCTYPE svg PUBLIC "-//W3C//DTD SVG 1.1//EN" "http://www.w3.org/Graphics/SVG/1.1/DTD/svg11.dtd">
<svg version="1.1" id="Layer_1" xmlns="http://www.w3.org/2000/svg" xmlns:xlink="http://www.w3.org/1999/xlink" x="0px" y="0px"
	 width="787.925px" height="216.392px" viewBox="0 0 787.925 216.392" enable-background="new 0 0 787.925 216.392"
	 xml:space="preserve">
<g>
	<path fill-rule="evenodd" clip-rule="evenodd" fill="#126D8F" d="M464.374,54.166c-0.062,4.373-1.367,8.139,0.38,11.903
		c0.683,1.472-0.587,2.654-1.802,3.378c-1.504,0.895-3.177,0.735-4.527-0.333c-1.968-1.553-3.193-3.528-2.828-6.159
		c0.268-1.943,0.475-3.895,0.758-5.836c0.642-4.41-0.332-8.356-3.257-11.854c-0.963-1.153-1.811-1.565-3.333-0.975
		c-4.193,1.623-7.569,4.339-10.914,7.186c-5.43,4.624-9.479,10.36-13.765,15.907c-1.602,2.074-3.624,2.997-6.017,1.89
		c-2.516-1.165-3.029-3.978-1.791-6.914c1.616-3.83,1.749-8.031,3.153-11.956c1.116-3.121,1.837-6.399,2.946-9.55
		c0.354-1.007,0.777-2.056,0.512-3.164c-0.307-1.271-0.581-2.157-2.4-1.219c-2.01,1.037-4.293,1.629-6.516,2.197
		c-1.521,0.388-2.85,0.937-3.885,2.087c-0.883,0.981-1.932,1.273-3.255,1.027c-1.075-0.199-2.192-0.198-3.292-0.257
		c-5.186-0.274-7.311,1.355-8.13,6.465c-0.606,3.793-1.404,7.477-3.112,11.001c-0.772,1.597-0.918,3.744,0.281,5.329
		c1.51,1.996,0.897,3.694-0.317,5.345c-0.955,1.297-2.217,2.453-4.073,1.898c-2.26-0.675-3.873-2.084-4.258-4.483
		c-0.627-3.926,0.445-7.654,1.807-11.245c1.142-3.008,1.43-6.098,1.79-9.21c0.256-2.21-0.284-3.353-2.988-2.783
		c-2.838,0.599-5.759,0.886-8.659,1.107c-1.747,0.134-3.946,0.411-4.213-2.128c-0.225-2.15,1.492-2.539,3.267-3.056
		c4.217-1.232,8.395-2.522,12.785-3.098c1.907-0.25,2.712-1.881,3.222-3.532c0.64-2.066,1.481-4.12,1.749-6.238
		c0.697-5.486,3.136-10.538,3.932-15.988c0.276-1.895,1.479-3.094,3.49-2.977c1.862,0.109,3.533,0.733,4.104,2.831
		c0.54,1.985,0.372,3.898-0.367,5.782c-1.978,5.044-3.144,10.316-4.515,15.527c-0.767,2.917-0.033,3.52,3.006,3.079
		c7.148-1.037,14.26-2.186,21.152-4.417c1.138-0.369,2.047-0.669,2.44-1.852c1.272-3.816,3.225-7.393,4.135-11.342
		c0.857-3.707,3.233-6.74,4.935-10.067c0.899-1.763,2.764-1.938,4.48-1.093c2.001,0.986,2.563,2.807,1.84,4.748
		c-2.199,5.886-4.425,11.771-6.905,17.549c-0.941,2.194-1.719,4.46-2.185,6.703c-0.764,3.675-2.899,6.886-3.351,10.622
		c-0.11,0.906-1.15,1.885,0.046,2.644c1.179,0.749,1.77-0.57,2.553-1.027c5.158-3.013,9.6-7.04,14.982-9.784
		c5.572-2.842,10.658-0.648,13.593,4.687C463.269,46.542,464.095,50.476,464.374,54.166z"/>
	<path fill-rule="evenodd" clip-rule="evenodd" fill="#126D8F" d="M281.825,176.265c1.045-3.8,2.221-8.145,3.438-12.477
		c1.056-3.755,0.842-4.103-3.204-3.773c-2.721,0.221-5.346,0.484-7.829-1.074c-1.175-0.737-2.324-1.329-1.886-2.92
		c0.444-1.612,1.643-2.641,3.305-2.47c3.836,0.397,7.297-0.895,10.884-1.797c2.263-0.568,3.47-1.843,4.075-3.863
		c1.893-6.311,3.882-12.597,5.59-18.956c1.033-3.848,2.758-7.352,4.717-10.773c0.576-1.006,1.701-2.26,2.867-1.282
		c1.302,1.092,4.007,1.625,3.173,4.091c-1.1,3.254-1.741,6.623-3.142,9.816c-2.451,5.584-3.801,11.53-4.998,17.485
		c-0.253,1.259,0.389,1.947,1.697,1.684c1.57-0.316,3.244-0.537,4.629-1.25c4.207-2.162,8.407-3.629,13.299-2.414
		c1.699,0.422,2.597-1.113,3.135-2.617c1.121-3.135,2.386-6.224,3.417-9.386c1.554-4.758,4.441-8.8,7.052-12.996
		c1.156-1.862,2.281-1.477,3.502-0.002c2.035,2.458,2.236,4.781,0.659,7.739c-2.779,5.211-4.799,10.779-6.882,16.303
		c-0.771,2.044-0.4,2.853,1.86,2.212c4.037-1.146,8.214-0.48,12.313-0.923c2.235-0.241,3.997,1.661,5.943,2.65
		c0.968,0.491,0.32,1.19,0.055,1.767c-0.416,0.91-0.872,1.795-2.15,1.738c-6.029-0.269-11.736,1.366-17.528,2.67
		c-4.562,1.028-6.878,3.691-8.364,7.87c-1.38,3.874-3.46,7.5-4.256,11.606c-0.174,0.907-0.832,1.807-1.479,2.528
		c-1.119,1.245-1.814,3.352-4.227,2.505c-1.885-0.661-3.398-3.902-3.164-6.065c0.349-3.225,1.485-5.985,3.586-8.564
		c1.266-1.55,3.124-3.708-0.678-5.196c-1.473-0.577-1.68-2.5-1.215-4.199c0.492-1.797,0.093-2.324-1.951-1.515
		c-3.346,1.32-6.823,2.333-10.283,3.357c-1.565,0.463-2.758,1.117-3.159,2.781c-1.033,4.296-2.983,8.366-3.494,12.779
		c-0.335,2.893-2.084,5.257-2.761,8.015c-0.289,1.18-1.435,2.1-2.791,1.725c-1.941-0.536-3.291-1.874-3.729-3.861
		C281.686,178.463,281.825,177.649,281.825,176.265z"/>
	<path fill-rule="evenodd" clip-rule="evenodd" fill="#126D8F" d="M39.521,57.846c0.472-5.979,0.899-11.415,1.33-16.852
		c0.085-1.076,0.378-2.312-1.067-2.709c-1.341-0.368-2.797-0.125-3.531,1.068c-2.833,4.607-7.322,7.641-11.055,11.39
		c-3.566,3.584-7.107,7.192-10.688,10.764c-0.698,0.697-1.451,1.398-2.311,1.872c-1.713,0.944-3.691,0.952-5.146-0.192
		c-1.541-1.212-2.08-3.293-1.464-5.107c1.506-4.439,1.771-9.293,4.626-13.293c1.848-2.592,0.658-5.929,2.314-8.684
		c3.738-6.225,4.179-13.933,9.155-19.669c0.606-0.699,0.438-2.065,0.568-3.13c0.124-1.023,0.381-1.891,1.468-2.375
		c1.709-0.763,3.533-1.444,5.06-0.018c1.53,1.43,1.089,3.63,0.198,4.947c-2.729,4.031-3.432,8.739-5.141,13.094
		c-1.828,4.653-3.293,9.441-4.96,14.156c-0.25,0.707-0.485,1.383,0.238,1.832c0.69,0.431,1.345,0.001,1.922-0.433
		c6.442-4.843,13.095-9.441,18.644-15.32c1.769-1.874,3.568-3.721,5.275-5.646c1.854-2.089,4.019-2.018,6.277-0.925
		c2.149,1.041,1.93,2.902,1.654,4.857c-0.488,3.49-1.529,6.845-2.58,10.176c-0.953,3.029-0.287,6.054-0.551,9.066
		c-0.027,0.306,0.256,0.827,0.525,0.932c0.923,0.36,1.168-0.525,1.574-1.018c4.592-5.573,9.203-11.132,13.726-16.76
		c1.4-1.744,3.007-2.828,5.329-2.829c2.075-0.001,3.865,0.404,4.387,2.708c0.539,2.379-0.597,4.254-2.683,5.029
		c-2.952,1.095-4.866,3.094-6.304,5.594c-2.418,4.206-5.415,8.06-8.28,11.924c-2.886,3.895-6.957,6.973-10.623,10.289
		c-1.427,1.292-3.227,0.962-4.821,0.109C40.438,61.542,39.612,59.606,39.521,57.846z"/>
	<path fill-rule="evenodd" clip-rule="evenodd" fill="#126D8F" d="M461.739,179.6c0-6.889-0.108-12.634,0.057-18.374
		c0.061-2.211,0.4-4.538,1.223-6.576c1.271-3.15,1.648-6.469,2.471-9.694c0.438-1.72,0.845-3.206,2.862-3.048
		c2.123,0.165,4.222,1.012,5.08,3.039c0.426,1.004,0.634,2.28,0.114,3.67c-2.174,5.811-3.348,11.837-3.201,18.065
		c0.012,0.504-0.119,1.049,0.548,1.154c0.724,0.112,1.38-0.159,1.944-0.626c2.838-2.354,5.858-4.528,8.471-7.098
		c4.602-4.526,8.988-9.262,13.401-13.969c2.819-3.01,5.39-3.235,8.319-0.733c1.266,1.082,1.681,2.542,1.082,3.701
		c-2.502,4.853-2.063,10.112-2.607,15.239c-0.07,0.66-0.437,1.458,0.386,1.825c0.759,0.339,1.294-0.319,1.821-0.766
		c3.879-3.281,7.704-6.622,11.646-9.827c3.698-3.01,7.173-6.288,11.172-8.945c1.539-1.022,3.191-1.696,5.039-1.781
		c1.874-0.087,2.741,0.907,3.394,2.641c0.764,2.034-0.746,2.113-1.802,2.663c-7.271,3.789-11.91,10.465-17.99,15.551
		c-6.477,5.417-10.762,12.706-16.988,18.299c-1.121,1.008-2.1,2.759-4.033,1.645c-1.901-1.093-3.941-2.29-3.667-4.917
		c0.254-2.438,0.505-4.903,1.101-7.272c0.947-3.758,0.834-7.614,1.418-11.399c0.092-0.601-0.051-1.23-0.709-1.479
		c-0.537-0.202-0.896,0.224-1.289,0.542c-4.952,4.002-9.977,7.956-13.643,13.197c-2.352,3.361-5.536,5.958-8.195,9.03
		c-1.035,1.195-2.796,1.213-3.897,0.485C463.435,182.628,461.177,181.339,461.739,179.6z"/>
	<path fill-rule="evenodd" clip-rule="evenodd" fill="#126D8F" d="M664.778,65.129c1.646-3.812-1.205-7.281-0.767-11.004
		c0.051-0.432-0.124-0.818-0.56-0.918c-0.227-0.052-0.614,0.074-0.762,0.251c-2.6,3.113-6.41,4.793-9.308,7.62
		c-2.167,2.113-4.795,3.863-7.081,5.923c-1.61,1.453-3.746,1.887-5.242,0.927c-1.791-1.146-3.791-2.961-3.043-5.572
		c1.612-5.635,1.054-11.58,2.651-17.181c1.554-5.448,1.692-11.283,4.604-16.353c1.075-1.873,2.094-3.947,4.891-3.655
		c4.561,0.477,5.498,1.738,4.186,5.971c-1.593,5.138-3.078,10.306-5.656,15.117c-1.029,1.922-0.676,4.252-0.559,6.385
		c0.095,1.699,1.22,0.66,1.938,0.36c5.232-2.186,8.783-6.402,12.743-10.117c2.383-2.233,4.346-4.865,7.198-6.661
		c1.567-0.985,2.728-0.782,4.122,0.131c1.355,0.884,2.395,1.74,1.73,3.575c-1.275,3.527-1.7,7.258-2.611,10.867
		c-0.85,3.365,2.371,3.436,3.762,4.863c1.204,1.239,2.387-0.381,3.25-1.193c1.736-1.634,2.981-3.667,4.389-5.578
		c4.171-5.664,8.608-11.14,12.928-16.701c1.271-1.637,2.812-1.694,4.541-0.842c1.693,0.833,2.251,1.919,2.113,3.992
		c-0.224,3.363-1.806,5.146-4.664,6.784c-3.21,1.841-5.471,4.889-7.424,7.986c-4.203,6.662-8.02,13.587-14.251,18.772
		c-1.986,1.653-3.91,3.392-6.008,4.897c-2.167,1.555-5.207-0.133-6.245-3.432C665.112,68.66,664.661,66.928,664.778,65.129z"/>
	<path fill-rule="evenodd" clip-rule="evenodd" fill="#126D8F" d="M541.308,30.771c-3.701-4.586-10.224-4.386-13.891,0.602
		c-5.32,7.234-11.446,13.924-15.533,21.998c-0.66,1.307-1.839,2.291-3.137,3.13c-5.658,3.658-12.188,3.578-18.551,4.206
		c-0.943,0.093-1.902-0.228-2.148-1.237c-0.237-0.971,0.709-1.204,1.366-1.662c3.681-2.562,7.461-5.021,10.929-7.839
		c5.727-4.653,5.955-8.38,1.24-13.714c-1.896-2.146-5.227-3.038-7.89-2.021c-8.951,3.424-14.823,9.804-18.293,18.41
		c-0.733,1.819-1.082,3.691-0.623,5.756c1.399,6.295,4.807,8.324,13.281,8.243c6.181-0.06,12.307-1.426,17.784-4.636
		c0.542-0.318,1.161-0.992,1.874-0.283c0.593,0.591,0.338,1.305,0.073,1.94c-0.614,1.477-0.955,2.996-0.935,4.59
		c0.031,0.688-0.007,1.388,0.112,2.061c0.537,2.968,3.294,4.887,5.269,3.562c1.737-1.165,3.324-2.606,4.023-4.665
		c1.263-3.727,2.499-7.462,3.696-11.209c1.977-6.176,4.125-12.336,8.085-17.563c2.563-3.384,5.384-7.19,10.879-5.359
		c1.188,0.396,2.237,0.018,2.852-1.058C542.427,32.872,542.163,31.831,541.308,30.771z M492.862,44.865
		c-1.129,3.322-3.829,4.749-6.829,6.168C486.576,48.265,489.859,45.34,492.862,44.865z"/>
	<path fill-rule="evenodd" clip-rule="evenodd" fill="#126D8F" d="M226.024,159.283c-7.582,0.448-13.26,3.407-17.152,9.69
		c-1.191,1.923-3.245,3.429-5.144,4.812c-1.271,0.927-2.489-0.235-3.435-1.09c-1.378-1.249-2.256-2.656-1.511-4.683
		c2.177-5.916,5.027-11.542,7.624-17.279c3.232-7.145,4.854-14.704,5.862-22.401c0.538-4.121,1.951-8.014,3.075-11.98
		c0.441-1.561,1.595-2.046,2.897-0.686c0.832,0.868,1.654,1.712,2.745,2.268c1.1,0.562,1.109,1.373,0.853,2.482
		c-2.034,8.783-3.958,17.589-5.996,26.371c-0.329,1.419-1.166,2.72-1.562,4.132c-0.468,1.667-0.32,2.915,2.127,2.573
		c3.766-0.525,7.511-1.143,11.324-1.441c3.729-0.292,6.667,1.171,9.465,2.985c1.865,1.211,1.73,3.306,1.141,5.371
		c-1.331,4.654-4.771,7.945-7.816,11.401c-5.232,5.94-11.828,10.297-18.805,14.092c-2.157,1.173-4.843,0.411-6.065-1.641
		c-1.349-2.269-0.406-4.417,0.542-6.47c0.824-1.782,2.379-1.366,3.897-0.901c0.832,0.253,1.587-0.146,2.231-0.656
		c5.069-4.014,10.132-8.037,15.196-12.059c0.077-0.062,0.149-0.133,0.214-0.208c0.929-1.072,1.961-2.301,1.484-3.683
		C228.675,158.713,226.938,159.593,226.024,159.283z"/>
	<path fill-rule="evenodd" clip-rule="evenodd" fill="#126D8F" d="M745.338,64.028c-0.306-1.924-1.827-2.104-3.362-2.275
		c-2.072-0.23-2.675-1.227-2.076-3.224c0.955-3.18,2.331-6.228,2.949-9.521c0.428-2.268,0.451-4.243-1.561-5.871
		c-1.225-0.99-1.852-2.194-1.141-3.895c1.375-3.292-0.951-6.24-4.769-6.195c-6.652,0.804-12.062,4.162-16.746,8.479
		c-3.857,3.553-7.952,6.848-11.667,10.571c-3.724,3.732-7.42,7.365-9.85,12.106c-1.248,2.433-1.325,4.486,0.734,6.361
		c2.771,2.523,6.312,2.979,9.82,1.321c6.66-3.149,13.382-6.172,19.434-10.43c2.959-2.081,3.087-1.819,3.576,1.673
		c0.379,2.719,1.372,4.969,4.505,6.301c3.373,1.435,5.332-0.455,7.688-1.771C744.286,66.872,745.649,65.98,745.338,64.028z
		 M731.454,48.718c-5.514,6.788-12.761,11.204-20.893,14.357c-0.772,0.299-1.925,0.628-2.533-0.197
		c-0.704-0.952,0.019-1.868,0.654-2.653c5.084-6.277,11.35-11.297,17.992-15.882c2.586-1.785,4.584-1.288,5.421,1.031
		c0.16,0.448,0.146,0.954,0.218,1.461C732.029,47.478,731.873,48.201,731.454,48.718z"/>
	<path fill-rule="evenodd" clip-rule="evenodd" fill="#126D8F" d="M612.398,157.597c-0.312,1.411-0.095,2.979-1.351,4.104
		c-4.438,3.972-7.038,9.282-10.601,13.889c-1.741,2.251-3.478,4.552-5.529,6.518c-4.002,3.833-6.464,8.702-9.732,13.017
		c-1.842,2.431-3.048,5.248-5.219,7.476c-2.293,2.355-2.16,5.739-3.302,8.596c-1.136,2.835-3.303,4.115-5.899,4.941
		c-0.985,0.314-2.36,0.604-3.167-0.855c-1.158-2.096-2.494-4.077-1.111-6.583c2.766-5.017,6.02-9.734,9.43-14.33
		c3.032-4.087,4.997-8.715,7.495-13.068c0.544-0.95,0.249-1.957-0.745-2.86c-5.12-4.655-6.254-16.227-2.18-21.663
		c1.184-1.581,2.695-2.986,4.822-1.836c2.072,1.121,3.696,2.585,2.761,5.47c-0.714,2.209-1.895,4.306-1.974,6.718
		c-0.038,1.172-0.522,2.44,0.774,3.199c1.475,0.865,2.947,0.444,4.216-0.49c2.693-1.979,4.151-5.008,6.402-7.364
		c2.636-2.76,3.867-6.718,7.735-8.439C607.7,152.937,612.393,155.187,612.398,157.597z"/>
	<path fill-rule="evenodd" clip-rule="evenodd" fill="#126D8F" d="M136.399,171.027c-1.64-1.388-1.695-2.687-0.79-4.472
		c1.274-2.508,2.44-4.972-0.508-7.601c-1.854-1.653-3.421-1.909-5.331-0.977c-8.037,3.924-14.9,9.43-21.366,15.442
		c-0.584,0.543-1.263,1.297-0.741,2.053c0.709,1.03,1.605,0.261,2.375-0.146c5.204-2.754,10.473-5.397,14.646-9.669
		c0.979-1,2.221-2.347,3.873-0.909c1.727,1.503,5.183,1.209,4.077,5.473c-1.789,6.89,0.373,11.19,9.033,11.315
		c1.913,0.028,3.823,0.112,5.735,0.175c0.703,0.022,1.407,0.056,2.11,0.087c0.854,0.04,1.637,0.263,1.875,1.17
		c0.255,0.969-0.468,1.355-1.204,1.776c-6.056,3.461-19.299,2.485-24.217-3.604c-0.25-0.309-0.545-0.586-0.768-0.912
		c-2.295-3.376-2.284-3.362-6.174-1.599c-5.142,2.333-9.783,5.707-15.404,7.041c-1.266,0.3-2.519,0.641-3.777,0.961
		c-2.102,0.534-3.941,0.419-5.273-1.617c-1.326-2.031-1.443-4.113-0.253-6.123c2.12-3.589,4.651-6.927,7.882-9.633
		c6.647-5.567,13.897-10.361,21.098-15.207c2.339-1.575,5.12-2.364,7.847-2.939c2.035-0.429,4.503-0.275,5.763,1.665
		c0.98,1.51,2.291,2.758,1.966,5.316c-0.338,2.649-1.331,5.429-0.622,8.318C138.632,167.965,137.534,169.574,136.399,171.027z"/>
	<path fill-rule="evenodd" clip-rule="evenodd" fill="#126D8F" d="M116.451,52.086c-0.17,3.271-2.628,8.284-6.458,12.734
		c-1.155,1.343-2.784,1.989-4.257,0.84c-1.531-1.196-3.71-2.359-2.537-5.004c1.307-2.946,3.468-5.417,4.561-8.523
		c1.446-4.104,1.042-4.968-3.27-4.878c-4.571,0.096-8.507,2.035-12.333,4.205c-1.981,1.124-3.945,2.309-5.773,3.653
		c-3.375,2.479-5.23,6.303-8.268,9.15c-1.487,1.393-2.775,2.62-4.535,1.648c-1.871-1.033-3.711-2.659-2.796-5.25
		c0.654-1.846,1.415-3.7,2.446-5.363c4.672-7.535,9.459-15.005,14.203-22.499c0.212-0.334,0.498-0.657,0.592-1.023
		c1.505-5.812,6.553-9.505,9.201-14.659c1.045-2.034,3.58-1.599,5.393-1.061c1.993,0.592,1.173,2.464,0.819,3.791
		c-0.666,2.496-1.993,4.803-3.626,6.731c-3.633,4.292-5.002,9.834-8.575,14.133c-0.646,0.776-1.208,2-0.385,2.999
		c0.938,1.14,2.134,0.331,3.019-0.134c3.878-2.034,7.963-3.169,12.373-3.313C113.283,40.035,116.255,42.681,116.451,52.086z"/>
	<path fill-rule="evenodd" clip-rule="evenodd" fill="#126D8F" d="M558.954,175.908c-1.929-1.686-1.664-3.664-0.969-5.37
		c0.996-2.44,1.099-4.972,1.564-7.459c0.311-1.666,0.142-3.466-1.639-4.394c-1.697-0.884-1.478-1.724-0.444-2.968
		c0.686-0.826,2.209-1.979,0.86-2.941c-2.003-1.431-3.559-4.056-5.711-3.441c-4.314,0.18-7.506,1.18-10.119,2.78
		c-7.316,4.481-14.432,9.308-20.702,15.182c-1.755,1.645-3.325,3.437-4.145,5.726c-1.021,2.854,0.142,5.294,2.03,7.245
		c1.499,1.548,3.879,1.527,5.661,0.601c7.089-3.682,14.677-6.467,21.249-11.086c0.899-0.632,1.864-1.725,2.875-1.219
		c1.316,0.659,0.696,2.273,0.338,3.186c-1.774,4.531,0.647,6.876,4.201,9.113c2.15,1.354,3.443,0.27,4.813-0.79
		C560.409,178.843,560.187,176.986,558.954,175.908z M533.136,168.257c4.65-3.794,9.483-7.31,15.096-9.644
		C544.666,164.053,538.394,165.384,533.136,168.257z"/>
	<path fill-rule="evenodd" clip-rule="evenodd" fill="#126D8F" d="M189.767,29.183c4.817-0.314,9.635-0.637,14.451-0.931
		c0.661-0.039,1.529-0.512,1.947,0.224c0.477,0.836-0.338,1.467-0.83,2.039c-0.658,0.766-1.524,1.411-2.588,1.345
		c-4.675-0.29-8.698,2.019-13.043,3.033c-1.645,0.384-3.226,0.939-4.951,1.11c-4.514,0.444-5.79,4.426-6.725,7.507
		c-1.57,5.173-3.693,10.125-5.45,15.214c-0.877,2.54,0.238,5.167-1.148,7.755c-1.097,2.047-2.15,2.479-4.204,2.063
		c-2.307-0.466-3.252-1.834-3.063-3.992c0.411-4.729,1.581-9.309,3.639-13.592c1.253-2.607,1.866-5.376,2.819-8.054
		c0.529-1.487,0.266-2.738-1.699-3.012c-1.36-0.188-2.357-1.047-3.355-1.882c-0.914-0.765-1.331-1.678-1.047-2.874
		c0.286-1.207,1.238-1.348,2.26-1.572c2.235-0.493,4.417-1.259,6.67-1.605c1.932-0.296,3.147-1.38,3.929-2.865
		c2.69-5.118,5.483-10.169,7.659-15.561c1.646-4.081,3.796-7.986,5.474-12.093c1.011-2.473,3.112-1.58,5.146-1.043
		c2.165,0.57,2.462,1.956,2.014,3.55c-1.361,4.843-3.642,9.316-6.088,13.72c-1.532,2.76-3.057,5.549-4.239,8.458
		C186.355,28.551,187.25,29.505,189.767,29.183z"/>
	<path fill-rule="evenodd" clip-rule="evenodd" fill="#126D8F" d="M657.713,116.191c5.269-0.167,11.633,1.147,17.673,3.725
		c3.494,1.491,6.628,3.675,9.09,6.582c2.68,3.162,2.758,5.095,0.507,8.531c-1.608,2.455-3.797,4.27-6.516,5.521
		c-4.628,2.13-9.239,4.286-14.068,5.972c-3.441,1.201-6.349,3.334-9.355,5.309c-1.706,1.121-3.771,2.428-5.613,0.218
		c-1.602-1.918-1.235-3.946,0.243-5.866c2.529-3.281,6.209-4.94,9.877-6.513c3.86-1.655,7.867-2.977,11.781-4.521
		c2.354-0.931,5.15-2.184,5.389-4.631c0.245-2.525-2.982-3.253-4.825-4.62c-0.47-0.348-1.062-0.691-1.625-0.742
		c-6.544-0.595-12.938-2.75-19.603-1.988c-3.037,0.347-6.115,0.551-8.588,2.924c-2.071,1.988-4.133-0.253-6.136-0.759
		c-1.063-0.269-1.588-1.424-1.411-2.66c0.312-2.173,1.553-3.678,3.664-4.247C644.126,116.829,650.16,115.906,657.713,116.191z"/>
	<path fill-rule="evenodd" clip-rule="evenodd" fill="#126D8F" d="M318.415,6.052c1.332,0.161,2.461,0.181,3.523,0.45
		c2.735,0.692,5.284,1.95,5.833,4.864c0.534,2.836-1.394,5.016-3.283,6.922c-0.854,0.863-2.335,0.796-3.358,0.27
		c-0.738-0.38-0.387-1.44-0.01-2.158c0.609-1.162,1.239-2.207,0.009-3.458c-1.319-1.341-2.864-1.145-4.187-0.534
		c-4.42,2.042-8.498,4.667-10.817,9.027c-1.298,2.443-2.62,4.866-4.278,7.058c-3.01,3.977-3.293,8.783-4.526,13.288
		c-0.608,2.226,0.604,2.9,2.726,1.987c3.482-1.5,7.002-2.927,10.435-4.528c1.789-0.835,4.177-1.78,5.171-0.301
		c1.029,1.528-1.681,2.493-2.814,3.146c-3.962,2.283-8.154,4.199-12.329,6.109c-4.169,1.906-4.099,3.056-4.093,7.475
		c0.006,3.796-1.287,7.722-2.132,11.553c-0.289,1.316-2.319,2.493-4.028,1.738c-1.801-0.795-3.314-2.129-3.621-4.324
		c-0.314-2.248,0.648-4.447-0.009-6.742c-0.614-2.148-0.567-4.477-2.824-5.901c-1.127-0.713-0.376-1.299,0.428-1.688
		c3.421-1.654,4.435-4.643,5.337-8.037c1.155-4.35,2.823-8.616,5.22-12.51c2.338-3.799,3.372-8.213,5.966-11.871
		c3.352-4.728,7.131-8.958,12.867-11.123C315.306,6.125,317.037,6.701,318.415,6.052z"/>
	<path fill-rule="evenodd" clip-rule="evenodd" fill="#126D8F" d="M250.402,176.757c6.962-1.139,14.037-1.769,20.708-4.324
		c1.307-0.5,2.843-0.646,3.498,0.678c0.661,1.332-0.973,1.676-1.824,2.239c-5.585,3.707-11.855,6.003-18.314,7.543
		c-4.165,0.993-8.617,1.03-12.832-0.52c-5.118-1.884-7.496-9.046-4.254-14.401c4.16-6.869,9.817-12.096,17.445-15.175
		c1.112-0.448,2.121-1.137,3.223-1.61c3.514-1.508,5.527-1.174,7.524,1.168c2.909,3.413,2.944,4.734,0.671,8.272
		c-3.612,5.623-9.936,7.807-15.112,11.426c-1.242,0.869-3.142,0.173-4.704-0.221c-1.381-0.348-2.341,0.081-2.967,1.331
		c-0.75,1.502,0.355,2.151,1.342,2.841C246.536,177.216,248.486,176.654,250.402,176.757z"/>
	<path fill-rule="evenodd" clip-rule="evenodd" fill="#126D8F" d="M144.712,36.493c4.289-0.065,7.381,1.835,8.845,5.077
		c0.948,2.098,0.38,4.065-1.571,4.712c-2.438,0.809-2.747,2.474-3.281,4.387c-0.669,2.398-0.877,4.815-0.909,7.278
		c-0.026,2.041,0.824,3.241,3.019,3.102c1.713-0.11,3.038,0.232,3.35,2.107c0.325,1.963-1.293,2.468-2.627,3.052
		c-5.837,2.558-10.607-0.141-11.049-6.153c-0.094-1.3,0.441-3.222-1.156-3.63c-1.52-0.388-3.24,0.197-4.754,1.152
		c-2.933,1.853-6.027,3.397-9.558,3.978c-2.444,0.402-4.381-0.045-5.579-2.341c-1.152-2.206-1.209-4.417,0.474-6.326
		c3.085-3.496,6.865-6.301,10.239-9.509c3.337-3.167,7.27-5.143,11.677-6.34C142.893,36.751,143.999,36.625,144.712,36.493z"/>
	<path fill-rule="evenodd" clip-rule="evenodd" fill="#126D8F" d="M338.835,167.525c-0.559-2.196,0.627-3.762,2.023-5.46
		c4.714-5.73,10.221-10.409,17.11-13.507c4.153-1.869,8.459-1.448,11.599,1.674c1.4,1.395,1.913,3.108,0.327,4.981
		c-3.239,3.822-7.359,6.303-12.041,8.024c-0.942,0.347-1.733,0.177-2.535-0.396c-3.05-2.18-8.034,1.106-8.601,4.681
		c-0.186,1.183,0.153,1.92,1.661,1.57c5.761-1.339,11.679-1.654,17.517-2.498c1.179-0.171,2.412-0.183,3.596-0.054
		c0.855,0.092,1.902,0.335,1.917,1.504c0.013,1.169-0.493,2.351-1.716,2.47c-6.859,0.666-12.915,3.956-19.49,5.562
		C344.022,177.588,338.108,174.061,338.835,167.525z"/>
	<path fill-rule="evenodd" clip-rule="evenodd" fill="#126D8F" d="M760.081,73.484c-2.635-0.481-5.229-0.28-7.83,0.128
		c-0.784,0.124-1.656,0.195-2.402-0.008c-2.123-0.577-4.797-1.12-4.815-3.686c-0.016-2.303,2.563-2.475,4.421-3.212
		c2.994-1.185,5.951,0.311,8.935-0.356c5.224-1.168,6.969-3.166,6.596-8.456c-0.159-2.25-0.608-4.479-0.861-6.725
		c-0.954-8.459,5.335-18.962,14.896-21.321c0.77-0.191,1.74-0.571,2.342-0.293c3.607,1.669,7.148,3.481,10.679,5.305
		c0.61,0.315,1.131,0.921,0.679,1.717c-0.416,0.733-1.162,0.7-1.868,0.58c-0.387-0.065-0.79-0.211-1.113-0.426
		c-4.771-3.162-8.563-0.293-12.413,1.954c-3.285,1.919-4.701,4.935-5,8.571c-0.211,2.539,0.336,5.045,0.384,7.513
		c0.093,4.866,0.415,9.954-2.894,14.281C767.345,72.281,763.901,73.23,760.081,73.484z"/>
	<path fill-rule="evenodd" clip-rule="evenodd" fill="#126D8F" d="M381.803,179.134c-3.739,0.082-6.087-2.985-4.779-6.332
		c1.073-2.749,2.034-5.564,3.762-8.014c1.702-2.415,2.319-5.164,2.829-7.974c0.229-1.266,0.584-2.536,1.971-3.116
		c1.294-0.541,2.422-0.843,3.096,0.972c1.301,3.501,2.185,3.819,5.445,1.967c4.425-2.516,8.716-5.254,13.391-7.342
		c3.783-1.689,7.848-2.034,11.89-2.454c0.769-0.08,2.099-0.323,2.192,0.933c0.088,1.169-0.313,2.626-1.602,2.906
		c-6.298,1.365-10.79,5.847-16.229,8.647c-8.271,4.259-13.057,11.716-18.984,18.154
		C383.408,178.977,383.219,179.104,381.803,179.134z"/>
	<path fill-rule="evenodd" clip-rule="evenodd" fill="#126D8F" d="M260.396,42.915c-0.479,3.62-2.316,7.636-4.613,11.423
		c-1.216,2.002-2.834,3.806-4.48,5.507c-0.747,0.773-1.293,2.822-2.936,1.624c-1.546-1.125-3.296-2.499-2.429-4.89
		c0.195-0.539,0.495-1.087,0.887-1.506c3.665-3.922,5.793-8.406,5.552-13.829c-0.1-2.221,0.637-3.934,3.305-3.955
		C257.87,37.272,260.454,39.943,260.396,42.915z"/>
	<path fill-rule="evenodd" clip-rule="evenodd" fill="#126D8F" d="M644.468,176.05c0.039-0.192,0.062-0.391,0.122-0.576
		c0.957-2.915,3.355-4.313,6.064-5.209c3.233-1.069,6.667-2.212,9.636,0.42c1.895,1.679,1.293,3.825-0.197,5.507
		c-2.408,2.719-5.668,4.324-9.013,5.61C648.662,182.731,644.405,178.872,644.468,176.05z"/>
	<path fill-rule="evenodd" clip-rule="evenodd" fill="#126D8F" d="M266.746,21.96c1.87,0.735,3.979,1.377,5.878,2.389
		c1.018,0.541,0.332,1.847-0.268,2.271c-1.91,1.347-0.627,5.138-4.056,5.092c-0.963-0.013-1.525-1.189-2.036-2.024
		c-0.766-1.254-1.477-2.542-2.197-3.824C262.894,23.771,264.061,21.956,266.746,21.96z"/>
	<path fill-rule="evenodd" clip-rule="evenodd" fill="#126D8F" d="M546.499,61.51c2.266,0.288,3.778-0.883,5.417-2.084
		c3.046-2.231,6.187-4.341,9.303-6.48c4.087-2.805,7.429-6.189,9.168-10.887c0.395-1.063,0.778-2.124-0.126-3.036
		c-2.245-2.268-4.467-4.636-8.159-4.444c-2.231,0.069-4.377,0.651-6.313,1.697c-11.021,5.954-17.211,15.163-19.4,27.203
		c-0.559,3.075,0.49,5.136,2.661,6.985c3.4,2.897,7.23,2.913,10.958,0.98c5.227-2.709,10.507-5.232,16.041-7.306
		c1.573-0.589,4.53-1.364,3.646-3.405c-0.599-1.383-3.646-1.159-5.549-0.34c-3.889,1.673-8.13,2.134-12.097,3.541
		c-1.679,0.595-3.511,0.841-5.298,1.068c-1.068,0.136-2.088-0.311-2.07-1.584C544.696,62.354,545.267,61.354,546.499,61.51z
		 M551.67,47.771c1.431-2.146,3.61-3.589,5.697-5.031c0.796-0.549,1.976-0.124,2.069,1.113c-0.081,1.472-5.408,5.88-6.883,5.78
		C551.183,49.54,551.124,48.591,551.67,47.771z"/>
</g>
</svg>
