<?xml version="1.0" encoding="utf-8"?>
<!-- Generator: Adobe Illustrator 16.0.0, SVG Export Plug-In . SVG Version: 6.00 Build 0)  -->
<!DOCTYPE svg PUBLIC "-//W3C//DTD SVG 1.1//EN" "http://www.w3.org/Graphics/SVG/1.1/DTD/svg11.dtd">
<svg version="1.1" id="Layer_1" xmlns="http://www.w3.org/2000/svg" xmlns:xlink="http://www.w3.org/1999/xlink" x="0px" y="0px"
	 width="1433.206px" height="101.52px" viewBox="0 0 1433.206 101.52" enable-background="new 0 0 1433.206 101.52"
	 xml:space="preserve">
<g>
	<path fill-rule="evenodd" clip-rule="evenodd" fill="#126D8F" d="M459.033,61.908c-0.063,4.373-1.367,8.139,0.379,11.903
		c0.684,1.471-0.585,2.653-1.803,3.378c-1.503,0.895-3.175,0.734-4.526-0.333c-1.966-1.553-3.191-3.527-2.827-6.159
		c0.268-1.943,0.475-3.895,0.757-5.836c0.643-4.41-0.332-8.357-3.256-11.855c-0.963-1.153-1.811-1.564-3.333-0.975
		c-4.193,1.623-7.569,4.339-10.913,7.187c-5.43,4.623-9.48,10.36-13.766,15.907c-1.604,2.073-3.625,2.996-6.017,1.89
		c-2.516-1.165-3.03-3.979-1.79-6.914c1.616-3.83,1.747-8.032,3.152-11.956c1.116-3.121,1.837-6.399,2.946-9.551
		c0.353-1.007,0.777-2.056,0.512-3.164c-0.308-1.271-0.581-2.157-2.4-1.219c-2.01,1.038-4.293,1.63-6.517,2.197
		c-1.52,0.388-2.849,0.937-3.884,2.088c-0.884,0.98-1.932,1.273-3.255,1.027c-1.076-0.2-2.192-0.199-3.292-0.257
		c-5.187-0.274-7.311,1.355-8.129,6.465c-0.606,3.793-1.405,7.477-3.114,11.002c-0.772,1.596-0.916,3.744,0.281,5.328
		c1.512,1.995,0.897,3.695-0.318,5.345c-0.953,1.297-2.216,2.454-4.072,1.898c-2.26-0.676-3.873-2.084-4.256-4.483
		c-0.627-3.926,0.444-7.654,1.806-11.245c1.141-3.009,1.429-6.099,1.79-9.211c0.256-2.21-0.285-3.353-2.988-2.783
		c-2.838,0.6-5.759,0.886-8.66,1.107c-1.746,0.134-3.945,0.411-4.211-2.128c-0.227-2.15,1.491-2.539,3.265-3.056
		c4.218-1.231,8.396-2.522,12.787-3.099c1.905-0.249,2.711-1.881,3.221-3.532c0.638-2.065,1.481-4.12,1.75-6.238
		c0.695-5.485,3.136-10.538,3.93-15.987c0.276-1.895,1.48-3.094,3.491-2.976c1.862,0.108,3.533,0.733,4.104,2.831
		c0.542,1.984,0.373,3.897-0.365,5.781c-1.979,5.045-3.145,10.316-4.516,15.527c-0.768,2.917-0.034,3.52,3.006,3.079
		c7.148-1.036,14.26-2.185,21.152-4.417c1.138-0.369,2.046-0.669,2.44-1.853c1.272-3.816,3.225-7.393,4.135-11.342
		c0.857-3.707,3.233-6.74,4.934-10.067c0.9-1.763,2.766-1.938,4.481-1.092c2.001,0.985,2.564,2.807,1.84,4.747
		c-2.2,5.887-4.425,11.771-6.905,17.549c-0.94,2.194-1.719,4.459-2.185,6.703c-0.764,3.675-2.898,6.886-3.351,10.621
		c-0.11,0.906-1.151,1.885,0.046,2.644c1.18,0.749,1.77-0.57,2.552-1.027c5.159-3.013,9.601-7.039,14.983-9.784
		c5.572-2.842,10.658-0.648,13.592,4.687C457.927,54.284,458.753,58.219,459.033,61.908z"/>
	<path fill-rule="evenodd" clip-rule="evenodd" fill="#126D8F" d="M1028.446,61.393c1.045-3.8,2.221-8.145,3.438-12.478
		c1.057-3.754,0.842-4.102-3.205-3.773c-2.72,0.221-5.344,0.484-7.827-1.074c-1.176-0.738-2.324-1.33-1.887-2.919
		c0.445-1.612,1.644-2.642,3.305-2.47c3.837,0.397,7.297-0.895,10.885-1.797c2.263-0.568,3.469-1.842,4.074-3.863
		c1.893-6.311,3.883-12.597,5.591-18.956c1.034-3.849,2.757-7.353,4.716-10.773c0.576-1.005,1.702-2.261,2.868-1.282
		c1.302,1.093,4.006,1.625,3.173,4.091c-1.1,3.254-1.742,6.623-3.143,9.816c-2.451,5.586-3.8,11.529-4.998,17.486
		c-0.253,1.259,0.389,1.947,1.697,1.684c1.57-0.316,3.244-0.537,4.63-1.25c4.206-2.162,8.407-3.63,13.299-2.415
		c1.699,0.422,2.595-1.113,3.133-2.617c1.122-3.135,2.388-6.225,3.419-9.386c1.553-4.759,4.439-8.8,7.05-12.997
		c1.157-1.861,2.283-1.476,3.504-0.002c2.034,2.458,2.235,4.782,0.657,7.739c-2.777,5.211-4.797,10.779-6.88,16.303
		c-0.771,2.044-0.4,2.854,1.86,2.212c4.037-1.146,8.213-0.48,12.312-0.923c2.235-0.242,3.998,1.66,5.944,2.649
		c0.968,0.491,0.318,1.19,0.054,1.768c-0.416,0.909-0.871,1.794-2.149,1.738c-6.03-0.269-11.737,1.365-17.528,2.671
		c-4.562,1.028-6.879,3.69-8.365,7.87c-1.379,3.874-3.46,7.499-4.255,11.605c-0.176,0.907-0.832,1.808-1.48,2.528
		c-1.117,1.246-1.813,3.352-4.226,2.505c-1.884-0.662-3.398-3.903-3.164-6.065c0.349-3.224,1.486-5.985,3.588-8.564
		c1.263-1.551,3.122-3.708-0.68-5.197c-1.473-0.576-1.68-2.5-1.214-4.198c0.491-1.797,0.093-2.323-1.951-1.516
		c-3.346,1.321-6.825,2.334-10.284,3.358c-1.565,0.463-2.757,1.117-3.158,2.782c-1.034,4.295-2.984,8.366-3.495,12.778
		c-0.335,2.893-2.083,5.256-2.76,8.016c-0.29,1.179-1.436,2.099-2.791,1.724c-1.941-0.536-3.293-1.875-3.73-3.86
		C1028.308,63.591,1028.446,62.777,1028.446,61.393z"/>
	<path fill-rule="evenodd" clip-rule="evenodd" fill="#126D8F" d="M34.181,65.588c0.471-5.979,0.899-11.415,1.33-16.851
		c0.085-1.076,0.378-2.313-1.068-2.71c-1.34-0.368-2.798-0.125-3.53,1.068c-2.832,4.606-7.323,7.64-11.054,11.39
		C16.29,62.069,12.75,65.678,9.17,69.249c-0.698,0.697-1.452,1.398-2.311,1.872c-1.714,0.945-3.691,0.952-5.147-0.192
		c-1.541-1.212-2.078-3.294-1.463-5.107c1.505-4.439,1.772-9.294,4.625-13.293c1.85-2.592,0.66-5.93,2.314-8.684
		c3.74-6.225,4.18-13.935,9.156-19.669c0.606-0.7,0.438-2.065,0.567-3.13c0.125-1.023,0.382-1.89,1.468-2.375
		c1.71-0.763,3.533-1.444,5.06-0.018c1.531,1.43,1.091,3.631,0.198,4.948c-2.727,4.031-3.43,8.738-5.139,13.093
		c-1.828,4.654-3.294,9.442-4.961,14.156c-0.25,0.706-0.484,1.384,0.237,1.832c0.69,0.43,1.347,0.001,1.923-0.432
		c6.441-4.844,13.095-9.442,18.643-15.321c1.77-1.874,3.568-3.721,5.276-5.646c1.854-2.088,4.02-2.018,6.278-0.924
		c2.149,1.04,1.929,2.901,1.654,4.857c-0.488,3.489-1.53,6.845-2.581,10.175c-0.955,3.03-0.288,6.054-0.552,9.066
		c-0.027,0.306,0.257,0.826,0.525,0.931c0.922,0.36,1.168-0.525,1.575-1.018c4.591-5.573,9.203-11.132,13.725-16.76
		c1.401-1.744,3.007-2.827,5.33-2.829c2.075-0.002,3.864,0.404,4.387,2.708c0.538,2.379-0.597,4.254-2.683,5.029
		c-2.953,1.095-4.866,3.094-6.303,5.594c-2.42,4.206-5.416,8.06-8.281,11.924c-2.887,3.896-6.956,6.973-10.622,10.29
		c-1.428,1.292-3.228,0.961-4.821,0.109C35.097,69.284,34.271,67.349,34.181,65.588z"/>
	<path fill-rule="evenodd" clip-rule="evenodd" fill="#126D8F" d="M1208.361,64.728c0-6.889-0.108-12.635,0.055-18.374
		c0.063-2.211,0.401-4.538,1.224-6.576c1.271-3.15,1.648-6.47,2.471-9.694c0.439-1.719,0.846-3.205,2.863-3.047
		c2.122,0.165,4.222,1.012,5.08,3.039c0.426,1.004,0.633,2.28,0.114,3.669c-2.175,5.811-3.349,11.836-3.202,18.066
		c0.013,0.503-0.119,1.049,0.549,1.153c0.723,0.113,1.381-0.158,1.944-0.625c2.836-2.354,5.857-4.528,8.47-7.097
		c4.603-4.527,8.988-9.264,13.4-13.97c2.822-3.01,5.391-3.235,8.319-0.733c1.266,1.082,1.682,2.542,1.085,3.701
		c-2.504,4.853-2.065,10.112-2.608,15.238c-0.07,0.661-0.437,1.459,0.386,1.826c0.757,0.339,1.294-0.319,1.821-0.766
		c3.878-3.281,7.704-6.622,11.645-9.827c3.7-3.009,7.175-6.288,11.173-8.945c1.541-1.022,3.191-1.696,5.04-1.781
		c1.874-0.088,2.741,0.906,3.394,2.641c0.764,2.034-0.746,2.113-1.803,2.664c-7.271,3.789-11.91,10.465-17.989,15.55
		c-6.478,5.417-10.763,12.706-16.988,18.299c-1.122,1.008-2.101,2.759-4.034,1.646c-1.901-1.093-3.94-2.29-3.667-4.918
		c0.255-2.438,0.506-4.902,1.102-7.273c0.946-3.758,0.833-7.613,1.417-11.398c0.092-0.601-0.05-1.23-0.709-1.479
		c-0.537-0.203-0.895,0.224-1.288,0.542c-4.953,4.002-9.978,7.957-13.645,13.197c-2.351,3.361-5.535,5.958-8.194,9.03
		c-1.034,1.194-2.795,1.212-3.896,0.484C1210.056,67.757,1207.798,66.467,1208.361,64.728z"/>
	<path fill-rule="evenodd" clip-rule="evenodd" fill="#126D8F" d="M659.437,72.871c1.646-3.812-1.205-7.281-0.766-11.003
		c0.051-0.432-0.125-0.817-0.561-0.918c-0.227-0.052-0.613,0.074-0.761,0.251c-2.599,3.113-6.41,4.792-9.308,7.619
		c-2.166,2.113-4.794,3.863-7.081,5.923c-1.61,1.453-3.746,1.887-5.243,0.928c-1.789-1.146-3.789-2.961-3.043-5.572
		c1.613-5.635,1.055-11.58,2.652-17.181c1.553-5.448,1.691-11.282,4.604-16.353c1.075-1.872,2.093-3.947,4.89-3.654
		c4.561,0.477,5.5,1.737,4.186,5.971c-1.592,5.137-3.079,10.305-5.656,15.116c-1.028,1.922-0.676,4.252-0.557,6.385
		c0.094,1.699,1.219,0.661,1.938,0.36c5.232-2.185,8.783-6.402,12.744-10.116c2.382-2.234,4.345-4.866,7.196-6.661
		c1.567-0.986,2.728-0.783,4.124,0.13c1.354,0.885,2.393,1.742,1.729,3.576c-1.273,3.527-1.7,7.258-2.61,10.867
		c-0.849,3.365,2.37,3.436,3.761,4.864c1.206,1.239,2.389-0.382,3.251-1.194c1.736-1.634,2.981-3.666,4.388-5.577
		c4.172-5.664,8.609-11.14,12.928-16.7c1.271-1.638,2.813-1.695,4.542-0.843c1.692,0.833,2.251,1.92,2.112,3.993
		c-0.223,3.363-1.806,5.146-4.663,6.785c-3.21,1.841-5.47,4.889-7.424,7.985c-4.203,6.662-8.021,13.587-14.251,18.773
		c-1.985,1.653-3.91,3.392-6.008,4.897c-2.167,1.555-5.206-0.133-6.246-3.432C659.772,76.403,659.319,74.671,659.437,72.871z"/>
	<path fill-rule="evenodd" clip-rule="evenodd" fill="#126D8F" d="M535.966,38.514c-3.701-4.586-10.223-4.386-13.889,0.602
		c-5.32,7.234-11.447,13.924-15.534,21.998c-0.661,1.306-1.838,2.291-3.137,3.13c-5.658,3.657-12.188,3.578-18.551,4.205
		c-0.943,0.093-1.903-0.227-2.148-1.237c-0.237-0.971,0.709-1.205,1.366-1.662c3.682-2.562,7.461-5.021,10.929-7.839
		c5.726-4.652,5.956-8.38,1.24-13.714c-1.896-2.146-5.227-3.039-7.89-2.02c-8.951,3.424-14.824,9.804-18.293,18.409
		c-0.734,1.82-1.081,3.691-0.624,5.757c1.4,6.295,4.808,8.323,13.281,8.243c6.182-0.06,12.308-1.425,17.784-4.637
		c0.544-0.318,1.162-0.992,1.875-0.282c0.594,0.592,0.337,1.304,0.071,1.94c-0.612,1.477-0.952,2.995-0.933,4.59
		c0.031,0.688-0.008,1.388,0.112,2.061c0.537,2.968,3.294,4.887,5.268,3.563c1.737-1.166,3.325-2.607,4.024-4.666
		c1.263-3.726,2.498-7.462,3.697-11.209c1.975-6.176,4.124-12.336,8.084-17.563c2.563-3.384,5.383-7.19,10.879-5.359
		c1.188,0.396,2.236,0.017,2.851-1.058C537.086,40.615,536.821,39.574,535.966,38.514z M487.521,52.608
		c-1.129,3.322-3.83,4.749-6.829,6.168C481.235,56.008,484.519,53.083,487.521,52.608z"/>
	<path fill-rule="evenodd" clip-rule="evenodd" fill="#126D8F" d="M972.647,44.411c-7.583,0.448-13.262,3.407-17.154,9.689
		c-1.191,1.924-3.246,3.429-5.143,4.813c-1.271,0.927-2.49-0.235-3.435-1.091c-1.378-1.248-2.257-2.655-1.51-4.682
		c2.176-5.916,5.027-11.542,7.621-17.278c3.233-7.145,4.855-14.705,5.863-22.401c0.538-4.122,1.953-8.014,3.075-11.98
		c0.441-1.561,1.597-2.046,2.899-0.687c0.832,0.868,1.653,1.713,2.743,2.269c1.101,0.562,1.109,1.372,0.853,2.482
		c-2.032,8.783-3.957,17.59-5.995,26.371c-0.33,1.42-1.167,2.721-1.562,4.133c-0.469,1.667-0.32,2.914,2.127,2.573
		c3.766-0.525,7.512-1.142,11.324-1.44c3.73-0.293,6.668,1.17,9.465,2.984c1.865,1.211,1.73,3.306,1.14,5.371
		c-1.33,4.655-4.77,7.945-7.813,11.401c-5.234,5.939-11.83,10.297-18.807,14.091c-2.156,1.174-4.844,0.412-6.064-1.64
		c-1.35-2.268-0.406-4.417,0.543-6.47c0.822-1.782,2.379-1.366,3.896-0.901c0.831,0.253,1.587-0.146,2.23-0.655
		c5.07-4.015,10.133-8.039,15.196-12.061c0.077-0.062,0.149-0.132,0.214-0.207c0.93-1.071,1.963-2.301,1.484-3.683
		C975.296,43.84,973.561,44.72,972.647,44.411z"/>
	<path fill-rule="evenodd" clip-rule="evenodd" fill="#126D8F" d="M739.997,71.77c-0.306-1.923-1.828-2.104-3.363-2.275
		c-2.072-0.229-2.674-1.226-2.074-3.223c0.954-3.181,2.33-6.228,2.948-9.521c0.427-2.268,0.45-4.244-1.562-5.872
		c-1.224-0.99-1.851-2.195-1.141-3.894c1.376-3.292-0.951-6.241-4.77-6.195c-6.651,0.804-12.059,4.163-16.744,8.479
		c-3.857,3.553-7.953,6.848-11.667,10.571c-3.723,3.731-7.42,7.364-9.851,12.104c-1.248,2.434-1.323,4.487,0.735,6.363
		c2.771,2.522,6.312,2.979,9.82,1.321c6.66-3.149,13.383-6.172,19.435-10.43c2.958-2.081,3.086-1.82,3.574,1.673
		c0.379,2.72,1.374,4.969,4.506,6.301c3.373,1.436,5.332-0.455,7.687-1.77C738.945,74.615,740.309,73.722,739.997,71.77z
		 M726.112,56.461c-5.512,6.788-12.76,11.204-20.891,14.357c-0.773,0.3-1.926,0.628-2.535-0.197
		c-0.703-0.952,0.02-1.867,0.654-2.652c5.085-6.277,11.351-11.297,17.993-15.882c2.586-1.785,4.585-1.288,5.42,1.032
		c0.161,0.446,0.147,0.953,0.218,1.461C726.688,55.221,726.533,55.943,726.112,56.461z"/>
	<path fill-rule="evenodd" clip-rule="evenodd" fill="#126D8F" d="M1359.02,42.725c-0.312,1.411-0.095,2.98-1.349,4.104
		c-4.439,3.973-7.039,9.282-10.603,13.89c-1.742,2.25-3.478,4.551-5.529,6.517c-4.001,3.833-6.462,8.701-9.732,13.017
		c-1.841,2.432-3.048,5.248-5.218,7.477c-2.293,2.354-2.16,5.737-3.303,8.595c-1.134,2.836-3.303,4.116-5.899,4.941
		c-0.985,0.314-2.358,0.605-3.166-0.855c-1.159-2.096-2.494-4.076-1.112-6.583c2.766-5.016,6.021-9.733,9.431-14.33
		c3.031-4.085,4.997-8.713,7.493-13.066c0.546-0.95,0.25-1.957-0.744-2.86c-5.119-4.655-6.253-16.228-2.18-21.664
		c1.184-1.58,2.695-2.985,4.822-1.835c2.072,1.122,3.695,2.585,2.763,5.471c-0.717,2.209-1.896,4.305-1.976,6.718
		c-0.037,1.172-0.522,2.44,0.774,3.199c1.476,0.865,2.947,0.444,4.217-0.49c2.693-1.98,4.151-5.008,6.401-7.364
		c2.636-2.759,3.867-6.718,7.735-8.438C1354.321,38.064,1359.015,40.314,1359.02,42.725z"/>
	<path fill-rule="evenodd" clip-rule="evenodd" fill="#126D8F" d="M883.022,56.154c-1.643-1.387-1.697-2.688-0.791-4.471
		c1.273-2.508,2.439-4.972-0.509-7.601c-1.853-1.653-3.421-1.909-5.329-0.978c-8.038,3.924-14.902,9.43-21.367,15.442
		c-0.584,0.543-1.265,1.296-0.742,2.053c0.709,1.029,1.605,0.262,2.374-0.146c5.205-2.753,10.475-5.397,14.648-9.669
		c0.978-1,2.22-2.347,3.871-0.909c1.728,1.503,5.185,1.209,4.077,5.473c-1.787,6.89,0.375,11.189,9.035,11.315
		c1.912,0.027,3.822,0.111,5.734,0.174c0.704,0.023,1.406,0.057,2.111,0.088c0.854,0.039,1.635,0.262,1.873,1.17
		c0.256,0.97-0.468,1.356-1.201,1.776c-6.057,3.462-19.301,2.485-24.219-3.605c-0.25-0.309-0.546-0.585-0.768-0.912
		c-2.296-3.375-2.284-3.362-6.173-1.598c-5.143,2.333-9.784,5.707-15.405,7.041c-1.265,0.299-2.519,0.641-3.777,0.961
		c-2.101,0.534-3.942,0.42-5.271-1.616c-1.328-2.031-1.444-4.113-0.255-6.123c2.121-3.59,4.651-6.927,7.882-9.633
		c6.648-5.567,13.897-10.361,21.097-15.207c2.34-1.574,5.122-2.364,7.848-2.939c2.036-0.429,4.504-0.275,5.763,1.664
		c0.98,1.512,2.292,2.759,1.966,5.317c-0.337,2.648-1.331,5.429-0.623,8.319C885.253,53.093,884.157,54.701,883.022,56.154z"/>
	<path fill-rule="evenodd" clip-rule="evenodd" fill="#126D8F" d="M111.108,59.828c-0.169,3.271-2.627,8.284-6.456,12.735
		c-1.155,1.342-2.783,1.989-4.256,0.84c-1.532-1.196-3.711-2.359-2.538-5.005c1.307-2.945,3.467-5.417,4.56-8.522
		c1.446-4.105,1.043-4.968-3.268-4.878c-4.571,0.096-8.509,2.034-12.333,4.204c-1.981,1.124-3.947,2.309-5.774,3.654
		c-3.375,2.479-5.229,6.303-8.269,9.15c-1.485,1.392-2.775,2.619-4.534,1.648c-1.872-1.034-3.712-2.66-2.796-5.25
		c0.653-1.845,1.414-3.7,2.446-5.363c4.673-7.536,9.46-15.005,14.202-22.498c0.212-0.335,0.499-0.658,0.594-1.024
		c1.504-5.812,6.553-9.505,9.199-14.658c1.045-2.034,3.58-1.599,5.393-1.061c1.994,0.592,1.174,2.464,0.82,3.791
		c-0.665,2.495-1.993,4.803-3.626,6.731c-3.633,4.291-5.002,9.833-8.574,14.132c-0.646,0.776-1.209,2-0.386,2.999
		c0.938,1.14,2.134,0.331,3.02-0.134c3.878-2.035,7.962-3.169,12.371-3.312C107.942,47.778,110.914,50.423,111.108,59.828z"/>
	<path fill-rule="evenodd" clip-rule="evenodd" fill="#126D8F" d="M1305.575,61.036c-1.928-1.686-1.664-3.664-0.967-5.37
		c0.994-2.44,1.097-4.972,1.562-7.459c0.311-1.666,0.142-3.466-1.639-4.394c-1.696-0.885-1.477-1.724-0.443-2.968
		c0.686-0.826,2.209-1.978,0.859-2.941c-2.003-1.431-3.558-4.056-5.711-3.441c-4.314,0.181-7.506,1.18-10.119,2.78
		c-7.317,4.481-14.43,9.307-20.702,15.182c-1.754,1.644-3.325,3.437-4.145,5.726c-1.021,2.853,0.143,5.294,2.029,7.244
		c1.499,1.548,3.88,1.527,5.662,0.602c7.09-3.684,14.677-6.467,21.249-11.086c0.901-0.632,1.863-1.725,2.876-1.219
		c1.315,0.659,0.696,2.273,0.337,3.186c-1.774,4.531,0.649,6.876,4.201,9.113c2.151,1.354,3.444,0.27,4.814-0.79
		C1307.029,63.971,1306.808,62.113,1305.575,61.036z M1279.757,53.385c4.65-3.794,9.484-7.309,15.097-9.644
		C1291.288,49.181,1285.015,50.512,1279.757,53.385z"/>
	<path fill-rule="evenodd" clip-rule="evenodd" fill="#126D8F" d="M184.427,36.926c4.817-0.314,9.634-0.638,14.45-0.931
		c0.662-0.04,1.529-0.513,1.947,0.222c0.476,0.837-0.338,1.468-0.83,2.04c-0.657,0.766-1.523,1.41-2.588,1.344
		c-4.675-0.289-8.697,2.02-13.043,3.034c-1.646,0.384-3.226,0.939-4.951,1.109c-4.514,0.444-5.79,4.426-6.726,7.507
		c-1.57,5.173-3.693,10.126-5.448,15.213c-0.878,2.54,0.237,5.168-1.149,7.755c-1.097,2.047-2.15,2.48-4.203,2.064
		c-2.307-0.466-3.252-1.834-3.065-3.992c0.413-4.729,1.583-9.308,3.64-13.591c1.253-2.607,1.864-5.376,2.818-8.054
		c0.53-1.487,0.268-2.738-1.699-3.011c-1.359-0.189-2.357-1.047-3.354-1.883c-0.914-0.765-1.331-1.678-1.048-2.874
		c0.287-1.207,1.238-1.348,2.261-1.573c2.234-0.492,4.417-1.258,6.669-1.604c1.932-0.296,3.148-1.381,3.93-2.864
		c2.691-5.118,5.483-10.17,7.658-15.562c1.647-4.081,3.796-7.986,5.475-12.093c1.01-2.473,3.111-1.58,5.146-1.043
		c2.163,0.57,2.461,1.956,2.014,3.551c-1.361,4.843-3.643,9.316-6.088,13.72c-1.532,2.759-3.057,5.549-4.24,8.458
		C181.016,36.294,181.909,37.248,184.427,36.926z"/>
	<path fill-rule="evenodd" clip-rule="evenodd" fill="#126D8F" d="M1404.335,1.319c5.269-0.167,11.632,1.146,17.673,3.725
		c3.493,1.491,6.626,3.674,9.089,6.581c2.681,3.162,2.758,5.096,0.507,8.532c-1.608,2.455-3.798,4.27-6.515,5.521
		c-4.628,2.13-9.239,4.286-14.069,5.972c-3.44,1.202-6.348,3.334-9.354,5.309c-1.706,1.119-3.771,2.428-5.615,0.217
		c-1.6-1.918-1.235-3.946,0.245-5.865c2.528-3.282,6.207-4.94,9.876-6.514c3.859-1.655,7.869-2.977,11.781-4.521
		c2.354-0.93,5.152-2.184,5.389-4.631c0.245-2.525-2.982-3.253-4.825-4.619c-0.47-0.349-1.062-0.691-1.624-0.743
		c-6.546-0.596-12.939-2.751-19.604-1.988c-3.037,0.347-6.114,0.551-8.587,2.924c-2.071,1.988-4.134-0.253-6.136-0.759
		c-1.064-0.269-1.588-1.424-1.412-2.66c0.311-2.173,1.553-3.678,3.664-4.246C1390.747,1.957,1396.782,1.033,1404.335,1.319z"/>
	<path fill-rule="evenodd" clip-rule="evenodd" fill="#126D8F" d="M313.075,13.793c1.331,0.162,2.46,0.183,3.522,0.451
		c2.735,0.692,5.284,1.951,5.833,4.865c0.535,2.836-1.394,5.015-3.283,6.92c-0.855,0.863-2.336,0.797-3.359,0.271
		c-0.737-0.38-0.387-1.441-0.01-2.159c0.61-1.162,1.24-2.206,0.009-3.458c-1.318-1.341-2.863-1.145-4.185-0.535
		c-4.421,2.042-8.5,4.668-10.818,9.028c-1.299,2.443-2.621,4.866-4.279,7.058c-3.01,3.977-3.291,8.783-4.526,13.288
		c-0.607,2.226,0.605,2.901,2.726,1.987c3.483-1.5,7.002-2.927,10.435-4.528c1.79-0.835,4.176-1.781,5.171-0.301
		c1.029,1.528-1.681,2.493-2.814,3.145c-3.961,2.283-8.154,4.2-12.33,6.109c-4.168,1.906-4.098,3.057-4.09,7.476
		c0.005,3.795-1.289,7.721-2.133,11.553c-0.289,1.315-2.32,2.493-4.028,1.738c-1.803-0.796-3.313-2.13-3.622-4.325
		c-0.314-2.247,0.648-4.447-0.008-6.741c-0.615-2.148-0.568-4.477-2.825-5.901c-1.126-0.712-0.376-1.299,0.429-1.688
		c3.42-1.654,4.436-4.643,5.336-8.037c1.155-4.35,2.824-8.615,5.221-12.51c2.338-3.799,3.372-8.212,5.965-11.871
		c3.353-4.728,7.133-8.959,12.867-11.124C309.965,13.867,311.696,14.443,313.075,13.793z"/>
	<path fill-rule="evenodd" clip-rule="evenodd" fill="#126D8F" d="M997.024,61.885c6.962-1.139,14.036-1.769,20.706-4.324
		c1.309-0.5,2.844-0.646,3.5,0.678c0.661,1.332-0.974,1.676-1.824,2.24c-5.587,3.707-11.856,6.003-18.315,7.543
		c-4.165,0.992-8.617,1.031-12.831-0.52c-5.119-1.884-7.496-9.045-4.255-14.399c4.16-6.87,9.817-12.097,17.447-15.176
		c1.11-0.449,2.119-1.137,3.222-1.61c3.513-1.507,5.525-1.174,7.524,1.168c2.909,3.413,2.944,4.733,0.67,8.272
		c-3.611,5.623-9.936,7.807-15.112,11.427c-1.242,0.869-3.142,0.173-4.704-0.221c-1.381-0.348-2.34,0.081-2.966,1.331
		c-0.751,1.501,0.354,2.152,1.342,2.842C993.157,62.344,995.106,61.782,997.024,61.885z"/>
	<path fill-rule="evenodd" clip-rule="evenodd" fill="#126D8F" d="M139.371,44.236c4.289-0.065,7.38,1.835,8.845,5.077
		c0.947,2.098,0.38,4.065-1.571,4.712c-2.438,0.809-2.747,2.474-3.28,4.386c-0.67,2.399-0.878,4.816-0.909,7.279
		c-0.028,2.041,0.824,3.241,3.018,3.102c1.713-0.11,3.038,0.232,3.349,2.107c0.326,1.964-1.293,2.468-2.626,3.053
		c-5.837,2.558-10.607-0.141-11.049-6.153c-0.094-1.3,0.441-3.222-1.157-3.63c-1.52-0.389-3.24,0.196-4.752,1.151
		c-2.934,1.853-6.029,3.397-9.559,3.978c-2.445,0.402-4.38-0.045-5.58-2.341c-1.152-2.206-1.209-4.417,0.475-6.326
		c3.084-3.496,6.864-6.302,10.239-9.509c3.336-3.168,7.271-5.144,11.677-6.341C137.552,44.494,138.657,44.368,139.371,44.236z"/>
	<path fill-rule="evenodd" clip-rule="evenodd" fill="#126D8F" d="M1085.458,52.653c-0.561-2.196,0.625-3.762,2.022-5.46
		c4.713-5.731,10.22-10.408,17.109-13.507c4.153-1.869,8.46-1.448,11.599,1.674c1.401,1.395,1.914,3.108,0.328,4.981
		c-3.24,3.822-7.36,6.303-12.041,8.024c-0.943,0.346-1.734,0.178-2.536-0.396c-3.05-2.18-8.034,1.106-8.6,4.682
		c-0.188,1.183,0.153,1.92,1.661,1.57c5.76-1.339,11.679-1.654,17.516-2.499c1.179-0.17,2.411-0.182,3.597-0.054
		c0.854,0.093,1.902,0.336,1.915,1.504c0.014,1.17-0.491,2.352-1.715,2.471c-6.859,0.666-12.913,3.955-19.489,5.562
		C1090.646,62.716,1084.729,59.188,1085.458,52.653z"/>
	<path fill-rule="evenodd" clip-rule="evenodd" fill="#126D8F" d="M754.74,81.227c-2.636-0.48-5.229-0.28-7.829,0.129
		c-0.785,0.124-1.657,0.195-2.403-0.009c-2.123-0.577-4.799-1.12-4.815-3.686c-0.016-2.302,2.562-2.475,4.42-3.211
		c2.994-1.185,5.951,0.311,8.936-0.357c5.225-1.167,6.969-3.166,6.596-8.456c-0.159-2.25-0.608-4.479-0.861-6.725
		c-0.954-8.459,5.334-18.962,14.895-21.321c0.771-0.191,1.741-0.571,2.343-0.293c3.608,1.669,7.148,3.481,10.679,5.305
		c0.609,0.315,1.131,0.921,0.679,1.717c-0.415,0.734-1.162,0.7-1.868,0.58c-0.387-0.065-0.791-0.211-1.113-0.426
		c-4.771-3.162-8.562-0.293-12.412,1.955c-3.287,1.918-4.702,4.935-5.003,8.571c-0.21,2.538,0.338,5.045,0.384,7.512
		c0.095,4.866,0.418,9.954-2.891,14.282C762.003,80.024,758.56,80.973,754.74,81.227z"/>
	<path fill-rule="evenodd" clip-rule="evenodd" fill="#126D8F" d="M1128.425,64.263c-3.739,0.081-6.088-2.985-4.779-6.333
		c1.074-2.748,2.033-5.563,3.761-8.014c1.702-2.415,2.319-5.164,2.829-7.973c0.229-1.266,0.586-2.537,1.971-3.116
		c1.293-0.541,2.423-0.843,3.096,0.972c1.301,3.501,2.184,3.819,5.444,1.966c4.427-2.515,8.718-5.253,13.392-7.341
		c3.783-1.689,7.847-2.035,11.891-2.454c0.768-0.08,2.098-0.323,2.192,0.933c0.087,1.168-0.313,2.626-1.603,2.905
		c-6.298,1.365-10.79,5.849-16.229,8.647c-8.27,4.258-13.056,11.716-18.983,18.154C1130.03,64.104,1129.841,64.232,1128.425,64.263z
		"/>
	<path fill-rule="evenodd" clip-rule="evenodd" fill="#126D8F" d="M255.056,50.657c-0.48,3.621-2.316,7.637-4.613,11.423
		c-1.217,2.002-2.834,3.807-4.481,5.507c-0.747,0.774-1.293,2.822-2.937,1.624c-1.545-1.126-3.295-2.498-2.428-4.89
		c0.195-0.539,0.495-1.087,0.887-1.506c3.664-3.921,5.793-8.405,5.552-13.829c-0.1-2.22,0.636-3.933,3.305-3.954
		C252.528,45.014,255.113,47.685,255.056,50.657z"/>
	<path fill-rule="evenodd" clip-rule="evenodd" fill="#126D8F" d="M1391.089,61.177c0.04-0.192,0.062-0.39,0.123-0.576
		c0.957-2.914,3.355-4.313,6.064-5.209c3.234-1.069,6.666-2.211,9.635,0.421c1.895,1.678,1.293,3.825-0.196,5.506
		c-2.409,2.719-5.669,4.324-9.013,5.611C1395.284,67.859,1391.026,64,1391.089,61.177z"/>
	<path fill-rule="evenodd" clip-rule="evenodd" fill="#126D8F" d="M261.405,29.704c1.871,0.735,3.979,1.377,5.879,2.389
		c1.017,0.541,0.331,1.847-0.27,2.271c-1.908,1.347-0.627,5.138-4.055,5.093c-0.963-0.013-1.525-1.189-2.036-2.025
		c-0.767-1.254-1.478-2.542-2.196-3.824C257.552,31.515,258.72,29.699,261.405,29.704z"/>
	<path fill-rule="evenodd" clip-rule="evenodd" fill="#126D8F" d="M541.157,69.253c2.267,0.288,3.779-0.883,5.417-2.084
		c3.046-2.232,6.187-4.341,9.304-6.479c4.086-2.806,7.43-6.19,9.169-10.888c0.394-1.063,0.776-2.124-0.127-3.036
		c-2.245-2.268-4.467-4.636-8.159-4.443c-2.232,0.069-4.377,0.651-6.314,1.697c-11.02,5.953-17.211,15.163-19.4,27.202
		c-0.559,3.075,0.491,5.136,2.661,6.985c3.4,2.898,7.231,2.914,10.959,0.981c5.227-2.709,10.507-5.233,16.04-7.306
		c1.573-0.59,4.53-1.365,3.647-3.405c-0.599-1.383-3.647-1.159-5.549-0.34c-3.889,1.673-8.13,2.133-12.097,3.54
		c-1.68,0.596-3.51,0.841-5.297,1.068c-1.069,0.136-2.09-0.311-2.071-1.584C539.355,70.096,539.927,69.096,541.157,69.253z
		 M546.329,55.514c1.431-2.147,3.609-3.59,5.698-5.031c0.794-0.548,1.976-0.125,2.068,1.113c-0.081,1.471-5.408,5.88-6.883,5.779
		C545.842,57.283,545.784,56.333,546.329,55.514z"/>
</g>
</svg>
