<?xml version="1.0" encoding="utf-8"?>
<!-- Generator: Adobe Illustrator 16.0.0, SVG Export Plug-In . SVG Version: 6.00 Build 0)  -->
<!DOCTYPE svg PUBLIC "-//W3C//DTD SVG 1.1//EN" "http://www.w3.org/Graphics/SVG/1.1/DTD/svg11.dtd">
<svg version="1.1" id="Layer_1" xmlns="http://www.w3.org/2000/svg" xmlns:xlink="http://www.w3.org/1999/xlink" x="0px" y="0px"
	 width="598.099px" height="105.782px" viewBox="0 0 598.099 105.782" enable-background="new 0 0 598.099 105.782"
	 xml:space="preserve">
<path fill-rule="evenodd" clip-rule="evenodd" fill="#FFFFFF" d="M68.145,44.983c-2.646-0.047-4.829,1.412-7.259,2.063
	c-2.458,0.658-4.239,0.096-3.679-2.865c1.685-8.905,2.386-18.08,6.728-26.301c0.724-1.37,2.928-2.656,0.654-4.152
	c-1.863-1.227-3.946-0.48-5.549,0.986c-1.318,1.201-1.471,3.002-1.955,4.61c-3.023,10.021-4.526,20.364-6.427,30.621
	c-0.956,5.163-6.393,9.484-11.452,8.89c-2.281-0.27-3.152-1.856-3.025-3.944c0.096-1.507,0.544-2.989,0.794-4.489
	c0.419-2.525-5.269-12.288-7.651-12.87c-1.088-0.267-2.468-0.312-3.454,0.13c-10.986,4.925-17.606,13.55-19.688,25.23
	c-1.34,7.501,2.959,10.167,10.126,7.136c4.133-1.745,7.384-4.705,10.726-7.48c2.302-1.91,4.072-1.927,6.173-0.058
	c3.433,3.056,6.982,2.535,9.865-0.485c3.235-3.394,4.907-1.756,6.336,1.376c1.222,2.686,2.68,4.753,5.076,4.239
	c10.188-0.886,15.529-6.415,18.981-14.377C75.394,48.791,72.998,45.066,68.145,44.983z M14.914,65.275
	c-2.415,0.238-3.308-1.271-3.279-3.428c0.03-2.244,0.393-4.679,2.048-6.104c4.504-3.879,5.938-11.141,13.97-11.377
	c3.204-0.095,3.276,0.587,3.334,2.191C30.83,53.298,20.762,64.7,14.914,65.275z M66.442,55.52c-2.401,3.578-6.479,4.059-9.918,5.712
	c-1.949-0.304-3.057-1.223-1.696-3.035c2.253-3.001,5.1-5.432,8.539-6.992c1.184-0.536,2.695-0.787,3.659,0.653
	C67.942,53.229,67.26,54.303,66.442,55.52z"/>
<path fill-rule="evenodd" clip-rule="evenodd" fill="#FFFFFF" d="M594.6,40.054c-7.401-1.712-21.053,8.238-21.812,15.885
	c-0.389,3.917,2.257,6.967,5.855,6.452c1.626-0.232,3.338-0.854,4.703-1.762c4.308-2.859,4.737,0.066,4.459,3.095
	c-0.322,3.517-0.603,7.296-2.09,10.388c-2.506,5.203-2.436,11.654-7.832,15.535c-5.813,4.183-11.875,7.885-18.621,10.199
	c-5.595,1.918-11.455,3.777-16.679-1.213c-0.647-0.618-1.565-0.923-2.312-0.373c-1.144,0.841-0.304,1.887,0.107,2.707
	c2.071,4.136,5.918,4.617,10.405,4.677c3.161,0.521,6.663-0.591,10.029-1.427c10.992-2.726,20.261-8.083,25.806-18.587
	c3.87-7.33,4.826-15.386,6.358-23.329c1.113-5.77,0.997-11.982,3.885-17.144C598.912,41.493,597.597,40.748,594.6,40.054z
	 M582.513,56.565c-0.476-0.027-0.977-0.222-1.397-0.459c-0.937-0.528-1.705-1.342-1.048-2.414c1.852-3.019,4.165-5.626,7.478-7.12
	c1.079-0.486,1.954,0.007,2.51,0.979c0.237,0.414,0.305,0.925,0.379,1.163C590.434,51.188,584.732,56.693,582.513,56.565z"/>
<path fill-rule="evenodd" clip-rule="evenodd" fill="#FFFFFF" d="M162.106,36.631c-1.764,3.358-4.757,4.192-7.266,4.981
	c-3.77,1.187-4.85,3.397-5.122,7.039c-0.352,4.704-1.2,9.388-2.133,14.02c-0.366,1.821-0.953,4.514-3.82,3.429
	c-2.271-0.858-1.753-3.036-0.929-4.786c0.521-1.104,0.967-2.12,0.746-3.361c-0.359-2.028-0.9-3.505-3.145-1.435
	c-1.116,1.029-2.235,2.09-3.495,2.922c-4.694,3.103-7.3,2.893-10.933-1.447c-2.11-2.524-3.855-2.871-6.234-0.641
	c-2.131,1.997-4.727,3.323-7.458,4.181c-4.257,1.334-7.14-1.3-6.938-5.733c0.159-3.479,2.568-6.721,0.958-10.396
	c-0.353-0.805,0.469-1.534,1.302-1.91c0.943-0.423,1.602,0.092,2.238,0.681c1.899,1.762,1.419,3.938,1.229,6.154
	c-0.15,1.741-0.962,3.838,1.217,5.01c2.08,1.117,3.499-0.499,5.018-1.456c2.728-1.72,5.08-3.844,7.128-6.367
	c1.112-1.368,2.411-3.153,4.607-2.084c1.879,0.913,1.592,2.712,1.396,4.454c-0.26,2.341-0.748,4.917,1.901,6.301
	c2.741,1.431,4.347-1.057,6.235-2.242c1.114-0.698,1.88-1.928,2.88-2.833c2.84-2.567,2.168-4.281-1.302-5.139
	c-1.679-0.413-3.018-1.161-2.817-2.939c0.187-1.647,1.916-1.788,3.215-1.924c4.469-0.465,6.309-2.525,7.127-7.304
	c1.131-6.589,3.774-12.915,4.729-19.646c0.194-1.373-0.22-4.502,2.673-3.763c2.283,0.585,3.337,2.8,2.714,5.303
	c-1.181,4.734-1.913,9.566-3.627,14.192c-0.672,1.809-2.697,3.949-0.473,6.047c1.866,1.76,4.019,1.307,6.174,0.473
	C160.301,36.256,160.849,36.489,162.106,36.631z"/>
<path fill-rule="evenodd" clip-rule="evenodd" fill="#FFFFFF" d="M228.284,17.994c-0.588,3.944-1.161,8.999-2.139,13.974
	c-0.748,3.807,0.508,5.463,4.338,5.397c1.218-0.021,3.079-0.76,3.205,1.306c0.104,1.679-1.53,2.03-2.898,2.222
	c-6.28,0.877-8.384,5.142-9.125,10.795c-0.613,4.672-1.684,9.282-2.417,13.941c-0.379,2.413-1.882,3.891-3.678,5.224
	c-1.579,1.174-3.196,1.375-4.378-0.438c-1.031-1.582-0.855-2.98,0.766-4.411c5.419-4.787,3.905-11.826,5.277-17.88
	c0.5-2.206-1.902-2.521-4.072-1.989c-12.234,2.991-13.171,4.044-14.161,16.882c-0.132,1.738-0.227,3.801-2.51,3.606
	c-2.111-0.181-2.325-2.08-2.045-3.919c0.772-5.076,3.223-10.153-0.02-15.236c-0.141-0.221-0.086-0.771,0.096-0.96
	c7.671-8.004,6.545-19.354,10.896-28.615c0.646-1.37,0.178-3.956,2.814-3.166c1.944,0.583,2.08,2.522,1.602,4.289
	c-1.589,5.859-3.387,11.667-4.824,17.562c-1.394,5.719,0.158,6.959,6.024,5.745c5.667-1.172,9.342-3.644,10.04-10.075
	c0.58-5.326,1.15-10.774,3.096-15.877c0.534-1.408,0.292-3.934,2.764-3.378C228.747,13.401,228.415,15.38,228.284,17.994z"/>
<path fill-rule="evenodd" clip-rule="evenodd" fill="#FFFFFF" d="M425.297,34.053c-0.43,6.028-0.571,11.626-1.278,17.151
	c-1.402,10.99-7.462,15.091-17.781,18.031c-4.858,1.384-14.133-5.617-15.081-10.605c-0.433-2.274,0.818-3.786,2.451-4.527
	c2.003-0.909,2.294,1.101,2.921,2.486c1.793,3.964,4.565,6.781,9.281,6.446c4.943-0.351,9.407-1.937,11.348-7.007
	c4.227-11.037,3.862-22.547,2.735-34.011c-0.329-3.364-1.877-5.74-6.604-4.002c-5.324,1.96-9.77,5.332-14.827,7.646
	c-2.021,0.923-4.026,1.728-5.342-0.508c-1.639-2.79,1.013-3.438,2.779-4.2c8.064-3.48,16.173-6.856,24.247-10.317
	c3.333-1.429,3.978,0.691,3.941,3.125C423.984,20.709,424.78,27.598,425.297,34.053z"/>
<path fill-rule="evenodd" clip-rule="evenodd" fill="#FFFFFF" d="M490.313,32.988c-1.306-1.712-2.356-0.076-3.398,0.548
	c-4.899,2.937-8.52,7.18-11.523,11.907c-2.329,3.667-4.377,4.033-7.946,1.217c-6.314-4.981-20.085-4.722-26.792-0.155
	c-1.458,0.993-1.892,2.269-1.875,3.867c-0.114,5.545,2.479,8.217,8.004,9.096c5.029,0.799,8.256-2.29,11.764-4.778
	c5.993-4.254,7.256-3.866,8.918,3.193c0.49,2.08,0.392,4.878,3.303,4.871c2.494-0.008,3.379-2.258,4.117-4.491
	c1.802-5.455,4.268-10.613,7.376-15.479c1.824-2.858,5.104-3.839,7.278-6.172C490.459,35.624,491.336,34.328,490.313,32.988z
	 M456.347,51.263c-1.622,2.481-4.294,2.999-6.791,3.525c-1.84,0.038-3.312-0.677-3.703-2.242c-0.509-2.033,1.366-2.331,2.773-2.793
	c0.314-0.104,0.685-0.048,0.991-0.164c2.124-0.803,4.182-2.562,6.521-0.658C456.832,49.497,456.827,50.528,456.347,51.263z"/>
<path fill-rule="evenodd" clip-rule="evenodd" fill="#FFFFFF" d="M353.814,60.184c4.42-0.382,8.158-0.537,11.307-2.936
	c0.831-0.633,1.802-1.18,2.573,0.026c0.809,1.26,0.125,2.215-0.857,3.048c-6.309,5.355-18.253,6.382-24.919,1.804
	c-3.041-2.088-4.583-0.269-6.472,1.477c-1.173,1.087-2.187,3.056-4.167,1.968c-2.261-1.241-1.066-3.291-0.528-4.966
	c3.475-10.802,4.641-22.109,7.339-33.078c0.684-2.778,1.101-5.662,2.864-8.028c0.677-0.907,1.5-2.019,2.921-1.359
	c1.415,0.657,1.079,1.82,0.785,3.044c-2.093,8.689-4.131,17.394-6.187,26.093c-0.41,1.736-1.626,3.674,0.487,5.019
	c1.836,1.171,3.562,0.326,5.073-0.969c3.392-2.902,7.328-4.806,11.542-6.138c1.177-0.372,2.793-1.345,3.557,0.426
	c0.821,1.908-0.328,3.369-2.078,3.953c-2.434,0.813-4.868,1.636-6.701,3.433c-1.207,1.182-3.737,1.859-2.819,4.236
	c0.803,2.076,2.847,2.753,4.971,2.94C353.175,60.234,353.854,60.184,353.814,60.184z"/>
<path fill-rule="evenodd" clip-rule="evenodd" fill="#FFFFFF" d="M89.529,41.769c-5.049-0.146-13.426,10.037-13.525,16.443
	c-0.08,5.021,2.905,8.328,7.503,8.312c7.814-0.027,16.609-6.95,16.534-13.017C99.99,49.404,93.25,41.876,89.529,41.769z
	 M85.574,61.498c-2.005-0.495-4.082-1.711-3.648-4.259c0.448-2.651,1.112-7.036,3.918-6.635c2.846,0.408,7.642-0.445,8.738,4.164
	C95.068,56.812,88.692,61.514,85.574,61.498z"/>
<path fill-rule="evenodd" clip-rule="evenodd" fill="#FFFFFF" d="M545.353,38.353c-3.937,0.663-6.59,2.571-8.586,5.118
	c-1.301,1.659-2.322,3.591-3.238,5.625c-1.028,2.283-1.923,4.696-2.929,7.002c-0.446,1.025-1.432,1.911-2.359,2.606
	c-1.195,0.898-2.707,1.966-4.078,0.542c-1.927-1.995,0.592-2.341,1.464-3.295c1.59-1.742,1.394-5.395,0.656-8.161
	c-0.771-2.888-3.039-2.633-5.277-2.676c-1.434-0.029-2.79-0.663-2.822-2.32c-0.036-1.817,1.584-1.484,2.642-1.463
	c7.179,0.145,10.408-3.798,11.584-10.462c0.849-4.801,2.161-9.541,3.588-14.21c0.526-1.72,1.021-4.765,3.599-3.995
	c2.937,0.877,0.952,3.223,0.459,5.068c-1.175,4.397-2.327,8.809-3.242,13.265c-1.132,5.521-0.068,6.521,5.724,5.911
	c0.633-0.066,1.279-0.009,1.918-0.009C544.753,37.384,545.053,37.868,545.353,38.353z"/>
<path fill-rule="evenodd" clip-rule="evenodd" fill="#FFFFFF" d="M310.209,39.399c1.312,0.375,3.132-0.006,3.462,1.647
	c0.314,1.571-1.349,1.722-2.421,2.016c-3.733,1.024-5.954,3.789-7.773,6.869c-2.831,4.795-5.441,9.721-8.177,14.572
	c-1.204,2.133-2.874,4.474-5.454,3.292c-2.156-0.988-1.021-3.629-0.565-5.53c2.222-9.281,9.499-14.787,15.904-20.89
	C306.463,40.161,308.281,39.302,310.209,39.399z"/>
<path fill-rule="evenodd" clip-rule="evenodd" fill="#FFFFFF" d="M318.775,52.196c-0.605,4.196-1.085,7.834-1.686,11.45
	c-0.16,0.972-0.663,1.964-1.76,2.258c-1.22,0.327-1.763-0.576-2.287-1.461c-1.672-2.816-0.359-14.729,1.881-16.884
	c1.015-0.978,1.874-0.459,2.446,0.457C318.265,49.45,318.792,51.043,318.775,52.196z"/>
<path fill-rule="evenodd" clip-rule="evenodd" fill="#FFFFFF" d="M285.731,52.734c-0.146-3.833-0.423-8.238-4.954-9.687
	c-3.912-1.251-7.186,0.758-9.945,3.556c-1.018,1.03-1.999,2.811-3.739,1.55c-3.396-2.464-4.218-0.038-5.4,2.406
	c-2.925,6.052-8.448,9.036-14.38,11.059c-2.916,0.992-6.046-0.12-8.491-2.269c-1.268-1.114-1.461-2.678-1.146-4.198
	c0.332-1.604,1.767-1.166,2.906-1.257c3.977-0.318,6.834-2.585,9.398-5.404c1.878-2.065,3.729-3.991,1.62-7.042
	c-1.922-2.778-4.441-3.652-7.453-2.461c-7.02,2.775-9.569,8.846-11.147,15.597c-1.972,8.438,5.443,13.776,14.066,10.86
	c3.279-1.109,6.223-3.292,9.2-5.174c0.93-0.587,1.447-2.162,2.832-1.387c0.973,0.546,0.734,1.81,0.581,2.793
	c-0.346,2.234-0.845,4.999,2.005,5.406c2.812,0.402,4.178-2.229,5.121-4.64c1.167-2.978,2.055-6.094,3.506-8.923
	c1.389-2.701,3.502-5.906,6.806-5.002c2.781,0.763,2.603,4.373,2.697,7.088c0.042,1.182,0.007,2.365,0.007,4.53
	c-0.029,0.538-0.1,2.059-0.193,3.576c-0.117,1.904,0.363,3.422,2.578,3.57c2.034,0.137,2.573-1.354,2.719-2.949
	C285.282,60.472,285.881,56.586,285.731,52.734z M239.488,49.182c1.165-2.772,6.596-6.849,6.596-6.849s1.597,0.271,0,3.424
	S238.323,51.953,239.488,49.182z"/>
<path fill-rule="evenodd" clip-rule="evenodd" fill="#FFFFFF" d="M320.076,24.614c-0.604-0.354-1.314-0.221-1.817,0.234
	c0.124-0.111-0.038-0.002-0.136,0.065c-0.046,0.008-0.27,0.097-0.275,0.099c-0.066,0.021-0.129,0.053-0.194,0.075
	c-0.201,0.021-0.401,0.082-0.591,0.192c-0.039,0.023-0.072,0.054-0.108,0.08c-0.073,0.031-0.151,0.053-0.225,0.087
	c-0.742,0.345-0.922,1.397-0.538,2.053c0.212,0.361,0.522,0.575,0.869,0.666c0.029,0.037,0.05,0.078,0.082,0.113
	c0.41,0.434,0.928,0.592,1.511,0.63c0.531,0.035,1.023-0.314,1.295-0.743c0.364-0.574,0.604-1.215,0.817-1.857
	C320.977,25.674,320.633,24.94,320.076,24.614z"/>
<path fill-rule="evenodd" clip-rule="evenodd" fill="#FFFFFF" d="M499.964,53.107c-0.629-2.194,1.479-3.201,3.109-4.039
	c2.096-1.08,4.408-1.762,6.426-2.959c2.082-1.235,5.173-2.432,3.931-5.594c-1.353-3.451-5.875-5.964-8.945-5.278
	c-3.77,0.84-18.833,9.173-10.027,20.847c3.249,5.684,14.28,7.324,18.295,0.377c-2.692,0.165-5.35,0.4-8.011,0.475
	C502.138,57.008,500.567,55.214,499.964,53.107z M505.318,39.859c4.166-0.783,3.499,2.384,3.666,2.884s-10.166,4.749-10.166,4.749
	S501.152,40.643,505.318,39.859z"/>
<path fill-rule="evenodd" clip-rule="evenodd" fill="#FFFFFF" d="M564.18,39.91c-1.892-2.124-3.884-2.369-6.27-0.867
	c-3.747,2.359-6.995,5.36-9.571,8.846c-3.694,4.995-3.44,10.803-0.013,13.885c3.033,2.728,8.056,2.085,12.17-1.687
	c-1.198-1.019-2.549-0.631-3.838-0.62c-2.276,0.02-4.104-1.062-4.644-3.173c-0.601-2.346,1.918-2.49,3.247-3.147
	c3.517-1.738,6.839-3.604,9.218-6.875C566.136,43.993,566.042,42.002,564.18,39.91z M552.484,50.763c0,0,7.334-8.944,8.834-7.148
	S552.484,50.763,552.484,50.763z"/>
</svg>
