<?xml version="1.0" encoding="utf-8"?>
<!-- Generator: Adobe Illustrator 16.0.0, SVG Export Plug-In . SVG Version: 6.00 Build 0)  -->
<!DOCTYPE svg PUBLIC "-//W3C//DTD SVG 1.1//EN" "http://www.w3.org/Graphics/SVG/1.1/DTD/svg11.dtd">
<svg version="1.1" id="Layer_1" xmlns="http://www.w3.org/2000/svg" xmlns:xlink="http://www.w3.org/1999/xlink" x="0px" y="0px"
	 width="1500.112px" height="294px" viewBox="0 0 1500.112 294" enable-background="new 0 0 1500.112 294" xml:space="preserve">
<g>
	<path fill="#21BCEE" d="M729.535,137.302c-0.211-0.267-0.413-0.537-0.595-0.816c0.182,0.278,0.378,0.551,0.589,0.817
		C729.531,137.303,729.533,137.302,729.535,137.302z"/>
	<path fill="#21BCEE" d="M734.944,134.844c-0.051-0.034-0.098-0.072-0.148-0.106c-0.001,0.004-0.002,0.009-0.003,0.014
		C734.84,134.784,734.896,134.812,734.944,134.844z"/>
	<path fill="#21BCEE" d="M1212.659,118.899c1.147,1.38,2.877,2.787,4.152,4.172C1215.536,121.686,1213.807,120.279,1212.659,118.899
		c-1.005,1.111-2.424,2.136-3.397,3.256C1210.235,121.036,1211.654,120.011,1212.659,118.899z"/>
	<path fill="#21BCEE" d="M730.512,128.264c0.145,0.543,0.303,1.069,0.496,1.56C730.815,129.334,730.657,128.808,730.512,128.264z"/>
	<path fill="#21BCEE" d="M730.065,126.087c0.099,0.692,0.226,1.348,0.382,1.97C730.291,127.435,730.164,126.779,730.065,126.087z"/>
	<path fill="#21BCEE" d="M89.403,126.344c-0.389-0.116-0.779-0.232-1.167-0.348c-0.234-2.723-0.66-5.445-0.667-8.168
		c-0.014-6.467-2.986-10.64-8.539-14.047c-10.132-6.216-19.345-2.683-27.493,2.846c-9.087,6.167-16.967,14.1-25.504,21.103
		c-1.351,1.109-3.398,1.369-5.123,2.022c-0.321-1.699-0.966-3.408-0.914-5.095c0.49-15.804,0.79-31.621,1.766-47.397
		c0.887-14.35,2.447-28.661,3.909-42.969c0.664-6.489-1.599-10.776-7.822-12.269c-2.126-0.511-5.596-0.238-6.688,1.108
		c-1.091,1.345-0.16,4.511,0.218,6.824c0.547,3.339,2.244,6.702,1.974,9.932c-1.516,18.123-3.886,36.18-5.183,54.314
		c-1.725,24.114-2.213,48.328-7.452,72.081c-0.535,2.424-1.08,5.691,0.075,7.464c2.243,3.443,5.692,6.103,8.641,9.088
		c2.389-2.476,5.08-4.733,7.06-7.5c1.32-1.844,1.667-4.399,2.376-6.659c2.95-9.388,5.964-18.806,12.67-26.305
		c5.312-5.94,10.795-11.788,16.727-17.089c4.378-3.913,9.243-7.661,14.535-10.072c7.377-3.363,12.271,0.109,11.667,8.285
		c-0.404,5.456-2.104,11.104-4.48,16.064c-4.802,10.018-9.263,20.02-10.315,31.232c-0.443,4.7,1.95,8.393,5.896,9.33
		c3.395,0.806,7.688-0.184,10.999-1.676c2.376-1.069,3.834-4.243,5.62-6.542c1.802-2.32,2.062-4.544-0.451-6.694
		c-2.872-2.457-2.774-5.063-1.482-8.734C83.735,146.581,86.409,136.406,89.403,126.344z"/>
	<path fill="#21BCEE" d="M1489.861,51.813c-11.803,2.15-23.553,4.604-35.283,7.129c-13.127,2.828-26.206,5.873-39.314,8.793
		c-4.791,1.067-9.571,2.299-14.427,2.883c-1.198,0.145-3.893-2.054-3.812-2.999c0.528-6.293,1.127-12.663,2.647-18.773
		c2.523-10.131,1.392-13.56-8.428-19.192c-0.893,3.96-1.668,7.753-2.626,11.5c-0.615,2.412-1.852,4.705-2.195,7.137
		c-0.958,6.759-1.497,13.576-2.395,20.345c-0.523,3.951-2.939,6.009-7.021,6.327c-11.779,0.917-23.566,1.803-35.303,3.126
		c-1.79,0.202-4.311,2.389-4.781,4.124c-1.13,4.156,2.995,7.728,8.983,7.76c8.115,0.042,16.243-0.195,24.347-0.654
		c9.561-0.542,10.287,0.14,8.914,9.47c-2.245,15.249-4.49,30.496-6.522,45.773c-0.765,5.753-1.53,11.62-1.212,17.375
		c0.325,5.896,0.362,11.27-4.173,14.87c0.582,3.112,0.449,6.065,1.711,8.191c1.485,2.502,4.179,4.285,6.348,6.379
		c2.068-2.419,5.616-4.644,5.968-7.29c2.546-19.199,4.447-38.484,6.554-57.741c1.122-10.252,2.268-20.502,3.363-30.758
		c0.572-5.351,2.714-9.096,8.433-10.665c18.303-5.02,36.562-10.203,54.754-15.61c11.286-3.355,22.411-7.252,33.624-10.856
		c3.884-1.25,7.815-2.346,12.098-3.625C1497.371,48.894,1493.144,51.213,1489.861,51.813z"/>
	<path fill="#21BCEE" d="M1297.029,97.125c-6.277,5.198-11.64,11.487-17.646,17.032c-1.694,1.564-4.271,3.25-6.333,3.12
		c-4.96-0.31-6.349,2.333-6.844,6.302c-0.201,1.612,0.117,3.311-0.221,4.879c-3.739,17.338-7.631,34.645-11.31,51.996
		c-0.868,4.1-0.471,8.536-1.733,12.473c-4.619,14.394-4.246,29.305-4.709,44.069c-0.089,2.782,3.724,5.687,5.735,8.533
		c2.196-1.879,4.69-3.518,6.483-5.724c1.176-1.445,1.614-3.674,1.903-5.622c1.604-10.777,3.238-21.554,4.514-32.373
		c1.121-9.51,1.638-19.091,2.695-28.611c0.933-8.387,2.476-9.515,10.539-8.257c23.309,3.634,37.676-6.843,48.534-27.605
		c3.341-6.391,3.991-14.19,5.589-20.265c-0.689-4.278-0.609-7.344-1.696-9.915C1326.603,93.148,1309.248,87.008,1297.029,97.125z
		 M1316.017,133.034c-6.363,6.592-13.751,12.228-20.947,17.968c-2.192,1.749-5.055,2.796-7.759,3.739
		c-8.717,3.044-12.798-0.248-11.886-9.479c1.168-11.83,5.941-22.006,14.344-30.419c3.637-3.642,6.231-8.036,11.987-9.759
		c10.244-3.068,20.37-0.715,20.543,15.028C1320.271,124.484,1319.179,129.759,1316.017,133.034z"/>
	<path fill="#21BCEE" d="M287.325,117.381c-4.269,3.66-8.008,7.932-12.019,11.894c-1.195,1.182-2.501,2.25-4.785,4.288
		c-1.306-7.734-2.445-13.775-3.325-19.855c-1.576-10.879-11.464-16.536-21.13-11.42c-4.182,2.213-7.844,5.67-11.209,9.086
		c-2.737,2.777-5.122,4.435-8.935,2.303c-3.847-2.151-5.872-0.235-6.62,3.475c-0.646,3.206-0.854,6.498-1.465,9.712
		c-1.631,8.575-3.43,17.118-5.053,25.694c-1.062,5.611,2.202,11.12,7.284,12.252c6.248,1.39,6.938-3.704,8.489-7.63
		c0.529-1.337,0.669-2.823,1.033-4.23c3.36-12.97,8.863-24.96,16.932-35.661c1.28-1.697,3.791-3.062,5.869-3.276
		c0.884-0.092,2.482,3.055,3.092,4.944c0.712,2.202,1.382,4.797,0.882,6.947c-2.458,10.569-4.898,21.178-8.179,31.508
		c-1.969,6.201-2.278,7.034,3.984,10.73c5.366,3.166,6.969,2.585,10.839-2.406c8.359-10.773,16.897-21.412,25.551-31.95
		c1.06-1.292,3.275-1.635,4.955-2.417c0.442,1.665,1.446,3.408,1.227,4.981c-0.814,5.829-1.785,11.663-3.171,17.379
		c-1.192,4.92,0.728,10.362,4.643,11.437c5.047,1.386,8.43-1.298,9.527-7.579c0.314-1.792,0.583-3.591,0.862-5.39
		c1.532-9.896,3.458-19.717-0.5-29.615C302.589,113.805,294.49,111.237,287.325,117.381z"/>
	<path fill="#21BCEE" d="M414.512,171.062c-0.546-0.47-1.747-0.105-2.616-0.282c-6.75-1.366-10.209-6.162-9.353-13.012
		c0.202-1.623,0.521-3.253,0.982-4.822c1.688-5.726,3.572-11.396,5.163-17.148c1.151-4.163-0.919-7.52-4.396-9.049
		c-3.669-1.612-6.588,0.607-8.43,4.063c-0.595,1.116-1.271,2.231-2.113,3.163c-7.518,8.323-14.492,17.267-22.827,24.682
		c-6.228,5.538-14.015,9.494-21.506,13.388c-5.499,2.856-8.522,0.461-7.885-5.647c0.254-2.438,1.415-4.86,2.521-7.113
		c6.689-13.614,16.85-24.415,28.238-34.135c1.933-1.649,4.609-2.43,7.124-3.703c1.211,2.309,2.04,3.893,2.848,5.432
		c1.613,0.249,3.184,0.438,4.733,0.74c5.01,0.978,6.418-0.12,6.455-5.097c0.053-7.087-5.103-13.625-12.984-16.466
		c-5.945-2.143-12.666,0.476-17.885,6.27c-12.365,13.729-21.777,29.396-30.598,45.486c-5.486,10.006-3.972,13.712,2.366,23.508
		c2.71,4.189,6.782,5.172,11.514,4.089c9.728-2.225,18.447-5.884,25.384-13.702c4.716-5.316,10.76-9.453,16.95-14.75
		c0.873,2.309,1.612,3.761,1.973,5.302c2.599,11.094,11.906,17.637,23.435,16.097c1.868-0.25,3.569-1.738,5.347-2.655
		C417.49,174.133,416.126,172.451,414.512,171.062z"/>
	<path fill="#21BCEE" d="M653.351,122.632c1.524,2.405,4.413,4.867,4.315,7.204C657.764,127.499,655.74,122.632,653.351,122.632z"/>
	<path fill="#21BCEE" d="M657.667,129.836c0.097-2.337-2.792-4.799-4.315-7.204c-2.071,1.318-5.244,2.186-6.007,4.042
		c-2.194,5.341-4.655,11.05-4.798,16.671c-0.545,21.463-0.219,42.948-0.219,62.587c-1.123,7.124-2.25,12.291-2.701,17.518
		c-1.272,14.763-6.703,27.856-15.563,39.548c-1.46,1.929-4.155,2.92-6.281,4.346c-1.037-2.601-2.501-5.123-3.004-7.822
		c-0.623-3.342-0.087-6.905-0.774-10.225c-0.335-1.618-2.133-3.771-3.595-4.065c-1.258-0.252-3.982,1.542-4.305,2.861
		c-0.99,4.041-1.729,8.321-1.493,12.449c0.568,9.979,4.353,18.484,12.406,25.021c2.738,2.222,4.642,1.845,6.536-0.17
		c3.225-3.427,6.365-6.979,9.153-10.766c8.819-11.979,15.888-25.074,18.774-39.63c3.792-19.111,4.008-38.628,3.54-58.108
		c-0.208-8.656-0.47-17.342,0.021-25.972C655.44,143.861,657.373,136.887,657.667,129.836z"/>
	<path fill="#21BCEE" d="M182.35,100.172c-4.003-1.487-7.886-1.892-10.458,2.696c-4.054,7.234-7.438,14.999-12.442,21.51
		c-7.399,9.625-15.834,18.476-24.12,27.385c-2.714,2.917-7.055,1.671-7.338-2.192c-0.568-7.716-1.146-15.681,0.152-23.221
		c1.434-8.33,1.593-10.482-6.733-17.123c-1.617,4.568-3.719,8.572-4.397,12.803c-1.746,10.891-3.505,21.606-1.322,32.984
		c1.868,9.73,12.915,17.559,20.98,11.762c5.425-3.901,9.37-9.844,14.057-14.798c1.917-2.023,4.045-3.849,6.81-6.455
		c1.875,7.915,3.047,13.736,4.657,19.437c2.257,7.99,7.61,13.018,15.83,14.363c1.854,0.304,4.008-1.234,6.025-1.924
		c-1.134-1.839-1.999-3.938-3.469-5.449c-1.832-1.881-5.682-3.015-6.012-4.928c-1.271-7.377-3.314-15.361-1.692-22.333
		c2.903-12.479,8.237-24.396,12.583-36.537C186.748,104.55,186.196,101.599,182.35,100.172z"/>
	<path fill="#21BCEE" d="M929.604,151.334c1.665-3.404,3.283-6.866,4.49-10.446c1.248-3.701,2.12-7.663-2.523-9.957
		c-4.847-2.395-8.945,0.519-10.698,3.874c-6.758,12.931-18.928,19.372-30.462,26.429c-4.104,2.511-9.551,3.059-14.49,3.804
		c-1.22,0.185-4.294-2.786-4.06-3.586c1.501-5.123,2.453-11.272,5.924-14.759c5.933-5.963,13.18-11.002,20.684-14.854
		c3.708-1.903,9.222-0.389,13.911-0.231c2.408,0.083,4.804,0.583,7.204,0.895c-0.274-2.714,0.39-6.099-0.989-8.021
		c-5.399-7.526-18.675-10.272-26.157-4.624c-12.583,9.5-25.238,19.323-31.225,34.804c-1.363,3.528-2.905,7.72-2.21,11.172
		c2.004,9.951,12.019,14.344,22.781,11.661c9.128-2.277,16.448-7.387,23.656-12.92c6.119-4.696,7.045-4.594,11.747,1.523
		c5.104,6.643,14.648,7.177,21.667,0.475c-1.793-1.25-3.306-2.658-5.089-3.479C927.789,160.341,926.697,157.276,929.604,151.334z"/>
	<path fill="#21BCEE" d="M741.874,162.1c2.035-5.576,3.91-11.211,5.384-15.459c-0.032-5.294-0.83-7.375-3.531-8.514
		c-0.665-0.279-4.406-1.279-4.569-1.297c-2.997-0.343-6.97,6.334-10.062,11.901c-5.112,9.201-12.87,15.757-22.71,19.495
		c-5.686,2.159-10.918-1.93-10.555-9.908c0.033-6.97,6.283-13.134,10.531-20.254c0.92-1.542,1.839-3.103,2.569-4.739
		c2.366-5.304,7.47-8.496,13.141-7.843c1.069,0.125,2.475,0.958,2.961,1.872c0.198,0.371,0.375,0.753,0.544,1.139
		c0.034,0.078,0.069,0.156,0.103,0.234c0.156,0.371,0.304,0.744,0.444,1.122c0.032,0.087,0.064,0.173,0.095,0.26
		c0.126,0.345,0.25,0.693,0.371,1.042c0.142,0.408,0.285,0.815,0.43,1.223c0.03,0.085,0.062,0.17,0.093,0.256
		c0.144,0.398,0.293,0.795,0.454,1.188c0.016,0.04,0.034,0.079,0.051,0.118c0.148,0.357,0.307,0.708,0.477,1.058
		c0.033,0.067,0.065,0.136,0.099,0.203c0.183,0.363,0.383,0.718,0.602,1.067c0.047,0.075,0.096,0.148,0.146,0.223
		c2.068,3.114,3.672,1.637,3.864,0.817c0.243-1.04,0.206-2.874-1.051-5.683c-0.49-1.513-1.922-7.83-1.946-8.663
		c-0.252-8.753-6.877-12.765-14.391-8.313c-4.019,2.382-7.711,5.479-11.102,8.722c-10.518,10.057-19.227,20.929-20.696,36.501
		c-1.171,12.416,12.218,26.578,25.421,20.924c3.317-1.42,6.545-3.162,9.557-5.147c4.001-2.638,7.034-2.998,9.818,1.762
		c3.211,5.487,8.542,7.887,14.745,7.808c1.667-0.021,4.562-1.516,4.698-2.608c0.247-1.976-0.53-4.915-1.984-6.12
		C739.954,171.578,739.188,169.462,741.874,162.1z"/>
	<path fill="#21BCEE" d="M1025.737,142.635c-8.454-7.538-19.221-5.484-29.055-7.058c-4.979-0.783-9.994-1.399-14.915-2.451
		c-1.409-0.302-3.534-1.831-3.573-2.863c-0.056-1.454,1.167-3.7,2.468-4.341c8.295-4.09,16.632-8.176,25.267-11.436
		c2.041-0.77,5.938,0.944,7.792,2.742c2.23,2.163,4.273,3.511,6.314,1.244c1.305-1.45,2.043-4.831,1.233-6.441
		c-1.314-2.618-4.048-4.556-6.283-6.673c-5.497-5.205-16.689-5.986-22.592-1.455c-7.923,6.083-15.626,12.453-23.631,18.423
		c-3.74,2.789-5.798,6.134-5.022,10.673c0.875,5.118,3.36,9.714,8.842,10.607c8.736,1.424,17.668,1.661,26.393,3.136
		c3.581,0.605,6.84,3.125,10.245,4.774c-2.998,1.933-5.911,5.341-9.009,5.518c-9.12,0.521-13.375,6.604-17.261,13.228
		c-0.948,1.613-0.968,5.122,0.133,6.261c1.57,1.624,5.012,3.14,6.891,2.491c15.026-5.187,27.972-13.55,37.524-26.583
		C1030.374,148.509,1029.18,145.704,1025.737,142.635z"/>
	<path fill="#21BCEE" d="M506.812,128.245c-1.294-2.019-3.215-4.734-5.176-5.043c-10.206-1.606-20.743-4.813-29.847,3.744
		c-2.189,2.06-5.095,3.584-7.936,4.643c-1.928,0.719-4.816,1.031-6.413,0.078c-5.622-3.359-7.998-2.318-9.322,4.16
		c-1.815,8.879-4.091,17.663-6.166,26.489c-0.498,2.117-1.186,4.216-1.422,6.362c-0.489,4.435,4.098,9.851,8.489,10.271
		c4.507,0.434,7.268-2.55,8.411-8.093c0.944-4.579,2.431-9.063,3.935-13.504c3.359-9.909,11.733-15.503,19.628-21.045
		c3.094-2.172,8.833-3.026,12.133-1.608c2.271,0.975,3.773,7.106,3.226,10.554c-1.035,6.534-3.544,12.888-5.905,19.144
		c-1.983,5.253-0.739,13.994,3.756,17.085c4.508,3.099,9.275,2.172,14.475-1.786c-5.392-7.328-2.576-14.377-0.584-21.929
		C510.66,148.027,512.911,137.76,506.812,128.245z"/>
	<path fill="#21BCEE" d="M850.543,114.304c-2.563-0.667-6.379-0.081-8.423,1.529c-4.817,3.793-8.906,8.513-13.285,12.863
		c-6.549,6.503-13.093,13.009-19.64,19.516c-0.621-0.219-1.243-0.436-1.866-0.655c-0.288-2.036-0.764-4.068-0.836-6.112
		c-0.275-7.793-0.071-15.626-0.877-23.358c-0.189-1.807-3.709-4.626-5.572-4.532c-2.023,0.102-5.333,2.865-5.597,4.806
		c-1.07,7.903-1.489,15.932-1.569,23.921c-0.066,6.697,0.468,13.422,1.125,20.097c0.421,4.274,1.169,8.598,2.452,12.684
		c1.615,5.142,9.046,5.973,12.072,1.046c5.786-9.422,12.096-18.551,18.63-27.479c6.125-8.369,12.684-16.323,22.51-21.01
		c2.574-1.229,4.776-4.812,5.489-7.72C855.522,118.396,852.555,114.828,850.543,114.304z"/>
	<path fill="#21BCEE" d="M1178.166,92.476c-7.943,5.312-15.18,11.728-22.44,17.998c-3.405,2.94-6.293,5.778-10.507,1.484
		c-1.838-1.875-3.943-4.71-6.601-2.42c-2.039,1.758-3.694,4.793-4.1,7.476c-1.976,13.068-3.847,26.181-4.869,39.346
		c-0.243,3.126,2.47,6.894,4.732,9.607c0.973,1.168,5.362,1.38,6.287,0.334c2.595-2.93,5.549-6.601,5.928-10.232
		c1.097-10.497,5.224-20.022,10.676-28.295c8.582-13.02,19.294-24.556,33.006-32.79c1.641-0.985,2.547-3.195,3.874-4.944
		C1187.321,86.182,1182.277,89.727,1178.166,92.476z"/>
	<path fill="#21BCEE" d="M1105.182,146.371c-10.075,2.104-20.076,4.9-30.262,6.026c-7.056,0.78-11.959-6.525-9.944-13.476
		c1.121-3.869,3.484-7.362,4.842-11.182c3.367-9.477,13.69-14.897,23.432-12.286c1.643,0.44,3.569-0.187,5.364-0.319
		c-0.274-0.532-0.549-1.062-0.823-1.593c-0.949-1.998-1.589-4.241-2.935-5.919c-1.304-1.626-3.34-3.749-5.042-3.736
		c-3.154,0.022-6.408,1.164-9.433,2.326c-12.016,4.622-20.265,13.345-25.471,24.86c-2.03,4.49-4.403,9.626-4.008,14.246
		c0.816,9.57,11.24,17.381,20.953,18.213c16.409,1.406,29.435-6.343,42.264-14.808c1.087-0.717,1.6-2.305,2.379-3.488
		C1112.131,144.853,1108.662,145.644,1105.182,146.371z"/>
	<path fill="#21BCEE" d="M1216.812,123.072c-1.275-1.386-3.005-2.792-4.152-4.172c-1.005,1.111-2.424,2.136-3.397,3.256
		c-0.139,0.16-0.269,0.322-0.387,0.486c-0.315,0.438-0.548,0.894-0.649,1.376c-2.563,12.194-4.664,24.486-6.919,36.746
		c-0.327,1.779-0.658,3.559-1.108,5.991c0.218,0.64,0.49,1.828,1.011,2.897c1.6,3.291,4.747,5.814,7.783,4.188
		c2.701-1.447,5.43-5.15,5.84-8.172c1.777-13.073,3.036-26.246,3.64-39.422c0.025-0.589-0.195-1.189-0.576-1.797
		C1217.609,123.994,1217.235,123.534,1216.812,123.072z"/>
	<path fill="#21BCEE" d="M646.621,71.675c-3.302-2.267-8.343-4.554-11.755,0.076C638.277,67.122,642.371,70.598,646.621,71.675z"/>
	<path fill="#21BCEE" d="M642.229,85.716c5.297-3.195,3.997-8.679,4.392-14.041c-4.25-1.077-8.343-4.554-11.755,0.076
		c-3.815,5.175,1.639,8.17,3.697,11.822C639.19,84.689,641.616,86.086,642.229,85.716z"/>
	<path fill="#21BCEE" d="M1231.567,81.397c-2.617,1.346-4.476,2.303-6.335,3.26c0.919,1.584,1.722,3.255,2.792,4.729
		c1.052,1.449,2.287,2.796,3.6,4.019c2.751,2.56,6.257,2.226,8.28-0.069c1.117-1.265,0.657-5.379-0.629-6.953
		C1237.418,84.11,1234.165,82.979,1231.567,81.397z"/>
	<path fill="#21BCEE" stroke="#FFFFFF" stroke-width="0" stroke-linecap="round" stroke-linejoin="round" d="M725.679,128.725
		c0.156,0.371,0.304,0.744,0.444,1.122"/>
	<path fill="#21BCEE" stroke="#FFFFFF" stroke-width="0" stroke-linecap="round" stroke-linejoin="round" d="M727.566,133.817
		c0.016,0.04,0.034,0.079,0.051,0.118"/>
	<path fill="#21BCEE" stroke="#FFFFFF" stroke-width="0" stroke-linecap="round" stroke-linejoin="round" d="M725.032,127.352
		c0.198,0.371,0.375,0.753,0.544,1.139"/>
	<path fill="#21BCEE" stroke="#FFFFFF" stroke-width="0" stroke-linecap="round" stroke-linejoin="round" d="M728.794,136.263
		c0.047,0.075,0.096,0.148,0.146,0.223"/>
	<path fill="#21BCEE" stroke="#FFFFFF" stroke-width="0" stroke-linecap="round" stroke-linejoin="round" d="M728.193,135.196
		c-0.034-0.067-0.066-0.136-0.099-0.203"/>
	<path fill="#21BCEE" stroke="#FFFFFF" stroke-width="0" stroke-linecap="round" stroke-linejoin="round" d="M726.218,130.107
		c0.126,0.345,0.25,0.693,0.371,1.042"/>
	<path fill="#21BCEE" stroke="#FFFFFF" stroke-width="0" stroke-linecap="round" stroke-linejoin="round" d="M727.02,132.373
		c0.03,0.085,0.062,0.17,0.093,0.256"/>
	<path fill="#21BCEE" d="M729.722,137.551c-0.009-0.011-0.018-0.022-0.027-0.033c0.004,0.006,0.008,0.011,0.012,0.016
		C729.71,137.541,729.717,137.545,729.722,137.551z"/>
</g>
</svg>
