<?xml version="1.0" encoding="utf-8"?>
<!-- Generator: Adobe Illustrator 16.0.0, SVG Export Plug-In . SVG Version: 6.00 Build 0)  -->
<!DOCTYPE svg PUBLIC "-//W3C//DTD SVG 1.1//EN" "http://www.w3.org/Graphics/SVG/1.1/DTD/svg11.dtd">
<svg version="1.1" id="Layer_1" xmlns="http://www.w3.org/2000/svg" xmlns:xlink="http://www.w3.org/1999/xlink" x="0px" y="0px"
	 width="670.667px" height="72.758px" viewBox="0 0 670.667 72.758" enable-background="new 0 0 670.667 72.758"
	 xml:space="preserve">
<g>
	<g>
		<path fill-rule="evenodd" clip-rule="evenodd" fill="#126D8F" d="M647.711,3.191c-0.904-0.274-1.741,0.032-2.226,0.779
			c-1.005,1.558-2.036,3.127-2.794,4.81c-3.332,7.398-6.586,14.83-9.83,22.267c-1.305,2.994-3.06,4.473-6.777,4.68
			c-10.26,0.571-17.988,7.811-18.292,16.25c-0.149,4.125,2.232,6.312,6.334,5.582c1.457-0.258,9.472-2.333,9.472-2.333
			s0.896,2.07,1.013,4.314c0.034,0.675-0.032,1.358,0.029,2.029c0.197,2.174,0.021,4.722,3.236,4.73
			c3.495,0.011,2.934-2.641,2.748-4.757c-0.614-6.988,1.267-13.26,4.417-19.482c5.271-10.41,9.322-21.367,13.157-32.385
			c0.486-1.397,0.529-2.966,0.651-4.466C648.917,4.367,648.699,3.489,647.711,3.191z M616.943,50.485
			c-0.928,0.325-1.987-0.394-2.184-1.604c-0.228-1.411,4.729-5.962,6.36-5.935c1.297,0.022,1.782,0.741,1.835,2.127
			C622.102,47.973,619.706,49.518,616.943,50.485z"/>
		<path fill-rule="evenodd" clip-rule="evenodd" fill="#126D8F" d="M29.123,46.071c-4.415,4.917-9.286,8.498-14.381,11.797
			c-1.289,0.835-2.673,1.855-4.145,0.656c-1.17-0.954-1.016-2.417-0.623-3.781C14.611,38.65,19.223,22.55,23.918,6.475
			c0.576-1.969,1.548-4.033,4.252-3.238c3.084,0.907,2.334,3.243,1.688,5.396c-3.104,10.374-6.24,20.737-9.344,31.109
			c-0.425,1.419-1.625,3.321-0.267,4.251c1.954,1.339,2.686-1.267,3.893-2.19c2.819-2.155,5.543-4.436,8.283-6.693
			c1.854-1.526,3.875-2.354,5.98-0.744c1.931,1.478,0.921,3.43,0.207,5.096c-2.728,6.356-4.02,12.897-2.869,19.796
			c0.332,2.007-0.489,3.424-2.313,3.945c-2.067,0.593-3.254-0.881-3.681-2.599c-0.775-3.11-1.48-6.286-0.563-9.518
			C29.588,49.662,30.396,48.275,29.123,46.071z"/>
		<path fill-rule="evenodd" clip-rule="evenodd" fill="#126D8F" d="M277.415,5.414c-1.749,6.419-3.775,13.917-5.845,21.402
			c-0.585,2.116-1.279,4.204-1.947,6.297c-0.943,2.96-0.048,4.671,3.227,4.565c5.292-0.169,6.495,2.757,6.345,7.447
			c-0.264,8.238-4.268,15.618-5.06,23.71c-0.147,1.498-1.11,2.521-2.756,2.341c-1.512-0.164-2.396-1.18-2.71-2.636
			c-0.68-3.147,0.214-6.057,1.612-8.801c1.662-3.259,2.356-6.68,2.154-10.293c-0.085-1.504-0.082-3.243-1.95-3.726
			c-1.882-0.488-3.432,0.511-4.26,2.046c-1.438,2.666-2.72,5.444-3.777,8.282c-0.897,2.403-2.205,4.887-4.818,4.138
			c-2.925-0.84-2.094-3.861-1.443-6.093c1.795-6.16,3.376-12.424,5.749-18.365c4.094-10.246,7.09-20.764,9.283-31.541
			c0.428-2.105,1.146-4.297,3.543-4.183C276.979,0.111,277.398,2.268,277.415,5.414z"/>
		<path fill-rule="evenodd" clip-rule="evenodd" fill="#126D8F" d="M217.043,50.945c3.837-1.086,5.649-3.5,8.066-4.979
			c5.833-3.57,6.639-3.432,9.506,2.559c0.495,1.036,0.943,2.092,1.603,3.561c6.358-5.633,10.067-12.891,14.933-19.227
			c0.617-0.805,1.171-1.66,1.755-2.489c1.025-1.453,2.165-2.896,4.105-1.505c1.909,1.368,1.637,3.185,0.463,4.915
			c-2.373,3.49-4.721,7-7.215,10.4c-3.493,4.76-6.933,9.577-10.726,14.093c-3.898,4.64-7.868,4.005-10.284-1.703
			c-1.843-4.359-3.827-4.173-6.893-1.329c-2.972,2.758-6.139,5.331-9.751,7.246c-1.117,0.592-2.234,1.802-3.652,0.58
			c-1.143-0.985-1.32-2.3-1.113-3.708c0.47-3.202,1.525-6.217,2.734-9.213c1.693-4.205,3.935-8.23,3.888-13.017
			c-0.019-2.1,0.897-4.302,3.527-4.014c2.431,0.267,3.122,2.363,3.036,4.57C220.852,42.121,218.448,45.97,217.043,50.945z"/>
		<path fill-rule="evenodd" clip-rule="evenodd" fill="#126D8F" d="M584.095,6.259c-1.987,0.26-2.619,1.946-3.342,3.428
			c-3.335,6.827-6.565,13.704-9.916,20.522c-1.865,3.795-3.879,6.819-8.844,7.982c-6.397,1.499-12.118,5.383-15.731,11.096
			c-3.161,4.999-0.83,8.583,4.831,9.05c1.325,0.11,5.959-0.317,5.959-0.317s-0.896,1.572-0.782,2.484
			c0.197,1.547,1.137,2.557,2.614,2.629c1.659,0.079,2.09-1.547,2.697-2.676c5.05-9.362,10.17-18.691,15.01-28.162
			c3.528-6.903,6.694-13.994,9.961-21.028C587.734,8.719,587.673,6.61,584.095,6.259z M562.408,46.875
			c-0.424,2.488-5.334,6.653-7.914,6.517c-0.912-0.153-1.934-0.377-1.972-1.708c-0.059-2.113,5.854-6.745,8.292-6.626
			C562.093,45.119,562.641,45.51,562.408,46.875z"/>
		<path fill-rule="evenodd" clip-rule="evenodd" fill="#126D8F" d="M346.41,14.761c-1.225,5.511-2.31,10.967-3.681,16.348
			c-0.676,2.649-1.352,4.824,2.688,4.461c1.042-0.095,2.062,0.117,2.438,1.307c0.408,1.289-0.145,2.293-1.081,3.141
			c-0.125,0.113-0.242,0.288-0.388,0.32c-9.544,2.08-9.624,10.969-12.727,17.68c-0.354,0.767-0.618,1.583-1.053,2.299
			c-0.803,1.326-1.053,3.754-3.37,2.805c-2.106-0.864-2.777-2.876-2.062-5.111c0.926-2.889,1.936-5.752,2.929-8.62
			c1.086-3.136,0.006-4.944-3.302-5.243c-1.957-0.177-4.02-0.346-3.812-2.915c0.197-2.458,2.386-2.822,4.228-2.509
			c6,1.017,8.035-2.493,9.229-7.419c1.389-5.724,3.033-11.385,4.486-17.095c0.452-1.778,1.063-3.408,3.187-3.207
			C346.376,11.219,346.413,13.097,346.41,14.761z"/>
		<path fill-rule="evenodd" clip-rule="evenodd" fill="#126D8F" d="M117.753,60.061c-3.337,0.741-6.726,0.272-9.982-0.805
			c-1.257-0.415-1.921-1.364-1.828-2.704c0.101-1.406,0.956-2.15,2.338-2.111c5.396,0.154,8.042-3.799,10.774-7.394
			c1.882-2.473,4.473-5.345,1.207-8.449c-2.839-2.699-6.205-2.148-9.368-0.27c-6.625,3.937-10.536,9.862-12.245,17.258
			c-1.152,4.999,1.66,9.042,6.803,9.86c2.66,0.424,5.374,0.506,7.795,0.719c1.797,0,3.316,0.025,4.834-0.005
			c2.428-0.051,4.586-0.761,4.428-3.641C122.335,59.38,120.273,59.501,117.753,60.061z M109.041,47.768
			c0.583-2.422,1.786-4.39,4.528-4.751c1.068-0.142,2.172,0.105,1.811,1.581c-0.619,2.517-2.416,3.896-4.565,4.597
			C109.652,49.132,108.766,48.908,109.041,47.768z"/>
		<path fill-rule="evenodd" clip-rule="evenodd" fill="#126D8F" d="M309.113,50.067c0.068,2.877,0.058,5.481,2.656,7.422
			c1.734,1.296,2.633,3.57,0.607,5.221c-2.018,1.646-3.575-0.202-5.198-1.511c-2.513-2.026-1.636-7.259-5.143-7.194
			c-2.515,0.045-4.841,3.393-7.493,4.819c-2.75,1.479-5.641,1.058-7.874-1.277c-2.296-2.4-0.808-4.762,0.569-6.896
			c2.104-3.26,4.354-6.427,6.601-9.593c2.249-3.169,12.802-6.171,16.61-4.816c1.405,0.501,2.457,1.188,2.072,2.913
			c-0.45,2.021-1.996,1.967-3.575,1.878c-5.945-0.334-10.562,1.659-13.158,7.369c-0.502,1.103-1.416,2.217-0.138,3.104
			c0.97,0.676,1.863-0.339,2.593-1.02c1.235-1.152,2.371-2.42,3.662-3.506c1.684-1.418,3.651-3.039,5.863-2.136
			C310.114,45.801,309.409,48.229,309.113,50.067z"/>
		<path fill-rule="evenodd" clip-rule="evenodd" fill="#126D8F" d="M67.52,55.329c-1.142-1.818-2.777-0.668-4.023,0.023
			c-1.864,1.033-3.816,1.374-5.866,1.282c-2.516-0.112-5.437,0.165-6.198-3.099c-0.667-2.854,0.317-5.087,2.967-6.895
			c3.193-2.179,6.044-4.877,8.947-7.461c2.479-2.206,5.005-4.605,1.891-8.08c-2.524-2.817-7.335-2.934-10.068-0.185
			c-4.092,4.115-7.462,8.787-9.309,14.354c-3.439,10.365,1.229,17.13,12.326,17.084c2.437,0.047,5.518-0.103,8.048-2.116
			C67.791,58.999,68.707,57.215,67.52,55.329z M56.559,35.649c0.682-0.784,1.717-1.308,2.619-0.627
			c1.119,0.845,0.314,1.856-0.369,2.504c-1.849,1.75-3.271,4.065-6.181,4.921C52.893,39.394,54.872,37.593,56.559,35.649z"/>
		<path fill-rule="evenodd" clip-rule="evenodd" fill="#126D8F" d="M601.864,41.438c-1.078-2.89-3.86-2.138-6.125-2.387
			c-5.708-0.062-9.976,1.997-15.474,7.469c-4.405,4.385-4.856,11.061-1.008,14.955c4.515,4.572,12.733,5.004,17.064,0.919
			c1.268-1.195,2.722-2.454,1.432-4.279c-1.072-1.516-2.722-1.064-4.099-0.228c-2.148,1.304-4.427,1.815-6.778,0.92
			c-1.778-0.677-3.453-1.86-3.165-4.071c0.34-2.625,2.478-1.608,4.02-1.594c4.646,0.046,8.392-2.174,11.761-4.963
			C601.468,46.545,602.89,44.188,601.864,41.438z M587.314,48.292c2.744-2.416,4.381-4.655,7.781-3.95
			C593.923,48.178,591.095,48.18,587.314,48.292z"/>
		<path fill-rule="evenodd" clip-rule="evenodd" fill="#126D8F" d="M464.16,49.963c0.353,5.084-3.715,10.387-1.252,16.293
			c0.465,1.111-0.814,2.158-2.145,2.298c-1.931,0.205-3.266-0.774-3.939-2.51c-1.305-3.348-0.24-6.664,0.327-9.971
			c0.338-1.971,1.523-4.485-0.174-5.738c-1.999-1.474-4.096,0.745-5.89,1.736c-2.632,1.457-4.926,3.519-7.473,5.15
			c-1.42,0.909-3.053,1.633-4.533-0.121c-1.261-1.497-1.458-3.199-0.268-4.636c3.563-4.307,7.023-8.588,7.756-14.443
			c0.156-1.252,1.501-1.822,2.816-1.484c1.8,0.463,2.469,2.029,2.163,3.54c-0.848,4.167,0.772,4.274,3.97,2.9
			C462.472,39.991,464.703,41.685,464.16,49.963z"/>
		<path fill-rule="evenodd" clip-rule="evenodd" fill="#126D8F" d="M503.516,65.276c-2.91-1.237-3.833-3.855-2.582-6.218
			c7.648-14.435,11.363-30.357,17.507-45.35c0.321-0.781,0.608-1.582,0.995-2.329c0.679-1.301,1.746-2.262,3.253-1.831
			c1.907,0.546,1.309,2.19,0.902,3.377c-5.677,16.635-11.408,33.25-17.142,49.865C505.982,64.146,505.142,65.131,503.516,65.276z"/>
		<path fill-rule="evenodd" clip-rule="evenodd" fill="#126D8F" d="M72.237,61.602c0.609-4.406,3.521-8.485,3.443-13.386
			c-0.038-2.503,0.46-5.042,0.951-7.517c0.621-3.128,2.636-4.242,4.959-1.856c2.05,2.105,2.817,1.186,4.138-0.5
			c2.415-3.083,4.998-6.014,9.411-6.104c1.284-0.027,2.382,0.215,2.978,1.433c0.549,1.118,0.055,2.015-0.947,2.533
			C86.205,41.866,82.857,52.71,78.957,63.123c-0.723,1.929-1.363,3.675-3.628,3.379C72.819,66.171,72.48,63.979,72.237,61.602z"/>
		<path fill-rule="evenodd" clip-rule="evenodd" fill="#126D8F" d="M487.619,63.705c-5.625,0.072-10.687-1.626-13.042-6.899
			c-2.377-5.322-0.151-10.132,3.759-14.25c3.834-4.038,7.764-7.568,13.979-6.244c1.515,0.321,3.218,0.286,3.256,2.365
			c0.037,2.05-1.4,2.46-3.113,2.323c-6.531-0.523-8.975,4.485-11.66,8.891c-1.303,2.14-0.121,4.186,1.632,5.844
			c2.285,2.158,4.914,3.112,7.863,1.888c1.763-0.732,3.167-2.934,5.306-0.934c1.066,0.998,1.284,2.43,0.863,3.767
			c-0.807,2.571-3.078,2.838-5.308,3.041C489.979,63.603,488.797,63.637,487.619,63.705z"/>
		<path fill-rule="evenodd" clip-rule="evenodd" fill="#126D8F" d="M141.298,59.351c-2.979,0.084-5.145-0.193-7.012-1.545
			c-1.251-0.905-2.636-2.03-1.806-3.722c0.693-1.415,2.143-2.016,3.88-1.634c1.745,0.382,3.988,1.507,5.114-0.328
			c1.086-1.769-0.862-3.452-1.809-4.946c-6.087-9.615,3.077-18.497,9.992-18.138c1.9,0.098,4.081,0.257,4.374,2.548
			c0.337,2.644-1.646,3.111-3.918,3.44c-6.487,0.941-7.956,4.346-4.435,9.795c0.55,0.851,1.136,1.678,1.717,2.509
			c1.93,2.76,2.148,5.674,0.516,8.593C146.322,58.769,143.647,59.577,141.298,59.351z"/>
		<path fill-rule="evenodd" clip-rule="evenodd" fill="#126D8F" d="M526.609,59.864c-4.676,0.987-6.129-1.831-6.392-5.012
			c-0.395-4.76,1.094-9.33,2.675-13.8c0.538-1.521,1.742-2.087,3.205-1.81c1.914,0.362,1.502,1.88,1.36,3.224
			c-0.301,2.846-0.581,5.696-0.86,8.545c-0.148,1.507-0.564,3.285,1.465,3.76c1.894,0.442,3.274-0.854,4.14-2.319
			c2.003-3.393,2.204-7.38,3.308-11.076c0.607-2.033,0.395-5.106,3.522-4.316c3.175,0.802,2.202,3.564,1.467,5.894
			c-1.062,3.369-1.684,6.925-3.129,10.114C535.262,57.721,531.61,60.513,526.609,59.864z"/>
		<path fill-rule="evenodd" clip-rule="evenodd" fill="#126D8F" d="M363.601,41.655c-1.945,1.041-1.434,2.768-0.479,4.427
			c1.887,3.279,3.279,6.638,2.784,10.541c-0.466,3.663-2.784,5.791-6.08,6.618c-2.88,0.722-5.749,0.268-7.629-2.53
			c-1.048-1.557-2.225-3.299-1.018-5.106c1.491-2.23,3.266-0.809,4.797,0.197c1.041,0.682,1.998,1.415,3.09,0.215
			c1.045-1.152,0.771-2.505,0.43-3.833c-0.912-3.561-3.191-6.78-2.763-10.67c0.244-2.223,0.729-4.384,3.151-5.346
			c2.492-0.989,4.599-0.227,6.523,1.437c1.195,1.035,2.363,2.11,1.408,3.839C367.062,42.812,365.92,43.319,363.601,41.655z"/>
		<path fill-rule="evenodd" clip-rule="evenodd" fill="#126D8F" d="M433.256,34.743c-0.448,9.818-4.323,18.403-9.276,26.598
			c-0.864,1.43-1.705,3.292-3.866,2.131c-2.45-1.316-1.818-3.454-0.783-5.285c4.045-7.14,6.48-14.87,8.586-22.731
			c0.174-0.653,0.34-1.311,0.565-1.947c0.495-1.397-0.373-4.112,2.304-3.548C432.94,30.414,433.746,32.548,433.256,34.743z"/>
		<path fill-rule="evenodd" clip-rule="evenodd" fill="#126D8F" d="M131.299,27.167c0.03-4.13,1.946-6.895,4.004-9.541
			c0.855-1.104,2.168-1.721,3.536-0.769c1.202,0.838,1.757,2.177,1.228,3.532c-1.207,3.092-2.544,6.138-3.981,9.129
			c-0.424,0.881-1.445,1.542-2.532,1.155C131.683,30.003,131.352,28.353,131.299,27.167z"/>
		<path fill-rule="evenodd" clip-rule="evenodd" fill="#126D8F" d="M654.334,42.546c0.524-3.933,4.071-6.434,7.786-5.817
			c2.19,0.365,3.312,1.529,2.952,3.813c-0.26,1.663-7.183,5.802-9.109,5.343C653.954,45.409,654.337,43.699,654.334,42.546z"/>
		<path fill-rule="evenodd" clip-rule="evenodd" fill="#126D8F" d="M661.559,67.755c0.308,2.642,0.516,5.17-3.482,4.994
			c-3.358-0.147-3.6-2.211-3.572-4.833c0.03-2.991,0.965-5.011,4.32-4.825C661.897,63.261,662.317,65.186,661.559,67.755z"/>
		<path fill-rule="evenodd" clip-rule="evenodd" fill="#126D8F" d="M364.567,16.388c2.62-0.003,5.588,0.578,5.301,3.396
			c-0.284,2.804-3.782,3.339-6.174,3.808c-2.146,0.42-3.181-1.544-3.269-3.618C360.301,17.035,362.08,16.201,364.567,16.388z"/>
		<path fill-rule="evenodd" clip-rule="evenodd" fill="#126D8F" d="M437.317,14.753c-0.679-0.398-1.542-0.428-2.271-0.139
			c-0.301-0.13-0.647-0.208-1.045-0.208c-1.432,0-2.239,0.972-2.42,2.066c-0.487,0.465-0.799,1.115-0.799,1.829
			c0,1.384,1.155,2.542,2.541,2.541c0.771,0,1.607,0.01,2.332-0.279c1.156-0.463,1.994-1.221,2.572-2.334
			C438.868,17,438.556,15.479,437.317,14.753z"/>
	</g>
</g>
</svg>
