<?xml version="1.0" encoding="utf-8"?>
<!-- Generator: Adobe Illustrator 16.0.0, SVG Export Plug-In . SVG Version: 6.00 Build 0)  -->
<!DOCTYPE svg PUBLIC "-//W3C//DTD SVG 1.1//EN" "http://www.w3.org/Graphics/SVG/1.1/DTD/svg11.dtd">
<svg version="1.1" id="Layer_1" xmlns="http://www.w3.org/2000/svg" xmlns:xlink="http://www.w3.org/1999/xlink" x="0px" y="0px"
	 width="725.157px" height="107.255px" viewBox="0 0 725.157 107.255" enable-background="new 0 0 725.157 107.255"
	 xml:space="preserve">
<g>
	<path fill-rule="evenodd" clip-rule="evenodd" fill="#126D8F" d="M18.777,39.103c4.87-2.738,7.634-6.556,12.147-8.045
		c6.816-2.249,11.307,0.596,11.487,7.913c0.102,4.07-0.424,8.083-1.154,12.08c-0.442,2.426-1.605,4.812,0.246,7.278
		c1.354,1.804,1.098,3.626-1.368,4.298c-2.209,0.602-3.811-0.514-3.973-2.699c-0.211-2.846-0.087-5.743,0.183-8.591
		c0.369-3.893,0.515-7.75-0.135-11.622c-0.586-3.501-1.953-4.385-5.032-1.988c-6.864,5.34-13.271,10.989-16.475,19.438
		c-0.542,1.426-0.871,3.735-3.234,3.044c-1.782-0.521-2.47-2.23-2.341-4.085c0.149-2.182-0.042-4.513,0.671-6.51
		c4.942-13.863,6-28.365,7.365-42.826c0.046-0.504,0.006-1.017,0.065-1.52c0.284-2.4,0.865-5.468,3.522-5.256
		c2.651,0.212,2.132,3.328,2.013,5.503C22.171,16.456,20.567,27.289,18.777,39.103z"/>
	<path fill-rule="evenodd" clip-rule="evenodd" fill="#126D8F" d="M99.334,33.404c-0.909-2.148-3.052-2.019-4.817-1.26
		c-1.511,0.648-2.869,1.743-4.15,2.814c-2.752,2.302-3.713,7.272-9.08,5.735c-0.672-0.193-1.958,1.64-2.91,2.584
		c-2.034,2.02-3.778,4.457-6.11,6.021c-3.556,2.385-6.62,5.884-11.374,6.056c-1.484,0.053-3.314,0.563-4.048-1.182
		c-0.801-1.911,1.004-2.668,2.269-3.369c3.675-2.034,6.176-5.208,8.464-8.557c1.369-2.004,3.575-4.117,1.223-6.742
		c-2.177-2.428-4.997-3.445-8.237-2.544c-5.225,1.45-12.159,10.788-12.118,16.188c0.068,8.866,4.672,12.376,13.223,11.219
		c4.961-0.672,7.925-4.265,11.93-6.255c2.527-1.254,3.566-1.738,4.491,1.444c0.509,1.755,0.533,4.72,3.021,4.747
		c2.673,0.029,3.495-2.814,4.491-4.872c0.648-1.343,0.636-3.004,1.275-4.355c2.493-5.271,4.151-11.176,9.839-14.208
		C98.206,36.073,100.281,35.636,99.334,33.404z M62.341,38.207c-0.382,4.669-2.835,7.065-6.92,9.991
		C56.553,43.212,57.663,39.877,62.341,38.207z"/>
	<path fill-rule="evenodd" clip-rule="evenodd" fill="#126D8F" d="M238.963,43.334c3.776-1.382,6.353-3.771,8.995-6.112
		c1.818-1.611,3.85-2.775,6.449-1.479c2.661,1.327,2.832,3.646,2.422,6.07c-0.68,3.991-1.351,8.004-2.396,11.906
		c-0.961,3.583-2.47,7.002-2.176,10.854c0.133,1.754-0.226,3.644-2.574,3.52c-2.159-0.112-2.658-1.859-2.586-3.679
		c0.123-3.042,0.287-6.091,1.321-9.007c0.397-1.116,0.801-2.232,1.128-3.369c0.768-2.665,1.383-6.162-0.83-7.486
		c-1.78-1.064-3.601,2.214-5.266,3.774c-5.498,5.156-9.674,11.224-12.692,18.112c-0.792,1.808-1.902,3.528-4.173,2.616
		c-2.195-0.882-2.015-3.06-1.45-4.83c1.489-4.664,3.03-9.327,4.876-13.856c4.738-11.625,6.989-23.985,10.875-35.855
		c0.602-1.836,0.513-5.399,3.568-4.357c3.066,1.044,1.236,3.983,0.657,6.166c-1.947,7.354-3.907,14.706-5.868,22.057
		C238.853,39.843,238.379,41.294,238.963,43.334z"/>
	<path fill-rule="evenodd" clip-rule="evenodd" fill="#126D8F" d="M623.302,61.559c-2.62,1.474-5.395,1.858-8.326,1.701
		c-1.851-0.109-3.766,0.042-5.534-0.397c-1.894-0.468-4.607-0.979-4.761-3.107c-0.172-2.359,2.721-1.853,4.303-2.538
		c6.509-2.819,13.246-5.397,17.198-11.816c2.02-3.281,2.849-7.17,0.628-10.553c-2.067-3.149-5.514-1.402-8.438-1.106
		c-0.504,0.051-1.021,0.063-1.506,0.194c-8.076,2.187-15.44,5.866-18.859,13.825c-1.705,3.969-2.512,7.878-7.141,9.358
		c-0.993,0.318-1.865,1.107-1.648,2.258c0.281,1.494,1.611,1.486,2.814,1.511c1.638,0.034,3.21-0.306,4.642,1.219
		c5.076,5.407,11.644,6.357,18.624,5.715c3.5-0.322,7.171-0.204,9.753-3.311c0.603-0.727,1.946-1.105,1.315-2.38
		C625.667,60.723,624.339,60.975,623.302,61.559z M604.276,49.518c0.768-4.443,8.009-10.576,12.433-10.45
		c1.257-0.035,2.333,0.247,2.796,1.602c0.54,1.584,0.268,3.105-0.952,4.163c-3.576,3.102-7.848,5.069-12.177,6.833
		C604.664,52.363,603.958,51.347,604.276,49.518z"/>
	<path fill-rule="evenodd" clip-rule="evenodd" fill="#126D8F" d="M204.659,49.251c0.678,2.26-2.378,5.942,0.774,7.085
		c2.292,0.832,3.312-3.256,4.86-5.128c4.512-5.466,9.217-10.873,10.742-18.151c0.327-1.555,1.159-3.033,3.108-2.559
		c2.146,0.521,2.364,2.344,1.868,4.07c-3.656,12.721-10.262,23.484-21.297,31.139c-2.575,1.786-4.347,1.113-4.865-2.317
		c-0.438-2.896,0.857-7.346-2.025-8.285c-3.289-1.072-4.631,3.676-7.106,5.541c-0.135,0.101-0.229,0.258-0.371,0.346
		c-2.589,1.633-4.661,5.714-8.13,3.751c-3.429-1.939-1.306-5.797-0.915-8.823c0.648-5.028,1.519-10.027,2.255-15.044
		c0.224-1.531,0.229-3.344,2.414-3.058c2.107,0.276,1.859,2.148,1.733,3.622c-0.199,2.347-0.679,4.67-0.882,7.018
		c-0.133,1.527-0.042,3.18,1.661,3.905c1.687,0.719,2.981-0.4,4.053-1.43c1.703-1.639,3.174-3.518,4.825-5.212
		c1.448-1.487,2.371-4.352,5.077-3.311C205.422,43.556,204.956,46.443,204.659,49.251z"/>
	<path fill-rule="evenodd" clip-rule="evenodd" fill="#126D8F" d="M371.813,45.954c-0.314,6.391,0.885,11.716,4.248,16.491
		c1.954,2.771,3.591,3.319,5.469-0.071c2.127-3.842,4.501-7.541,6.021-11.702c0.52-1.416,1.258-2.791,2.119-4.029
		c0.823-1.184,1.742-2.942,3.563-1.905c1.567,0.89,1.266,2.501,0.71,4.063c-2.621,7.369-6.204,14.247-10.961,20.423
		c-6.982,9.067-11.41,19.406-15.544,29.925c-0.738,1.879-1.391,3.803-2.282,5.609c-0.575,1.164-1.344,2.581-3.061,1.935
		c-1.647-0.62-1.602-2.262-1.207-3.474c1.034-3.19,2.197-6.364,3.617-9.401c3.073-6.572,6.063-13.212,9.643-19.509
		c1.867-3.286,1.531-6.009-0.711-8.239c-6.716-6.68-7.134-14.972-6.703-23.572c0.102-2.022,0.11-4.507,2.992-4.324
		c2.751,0.175,1.896,2.69,2.06,4.384C371.916,43.897,371.813,45.259,371.813,45.954z"/>
	<path fill-rule="evenodd" clip-rule="evenodd" fill="#126D8F" d="M320.238,34.373c-1.451,2.465-3.604,3.593-6.138,3.981
		c-5.447,0.833-8.014,3.832-8.804,9.392c-0.62,4.357-0.974,8.72-1.45,13.081c-0.172,1.556-0.5,3.299-2.503,3.184
		c-2.03-0.118-2.106-2.004-2.071-3.476c0.104-4.225,0.46-8.442,0.562-12.666c0.055-2.229,0.144-4.631-3.528-3.292
		c-2.102,0.767-3.765-0.515-4.159-2.596c-0.452-2.397,1.742-2.749,3.295-2.905c5.875-0.589,7.889-4.306,9.412-9.525
		c1.786-6.115,4.713-11.906,7.312-17.764c0.529-1.192,1.199-3.301,3.211-2.272c1.634,0.834,1.293,2.629,0.767,4.1
		c-1.646,4.616-3.348,9.213-5.076,13.8c-0.82,2.179-2.481,4.431-0.718,6.643c1.589,1.991,3.786,0.22,5.715,0.159
		C317.348,34.176,318.649,33.436,320.238,34.373z"/>
	<path fill-rule="evenodd" clip-rule="evenodd" fill="#126D8F" d="M449.256,55.236c-1.111,0.632-2.304,1.273-3.458,1.974
		c-3.023,1.835-5.93,3.816-9.398,4.891c-3.159,0.979-4.984-0.467-6.943-2.562c-2.062-2.202-0.788-4.031,0.22-5.928
		c2.219-4.173,4.49-8.319,6.791-12.446c0.733-1.314,1.58-3.03,3.431-2.111c1.643,0.816,1.401,2.65,0.796,4.051
		c-1.136,2.633-2.548,5.146-3.794,7.734c-0.735,1.527-1.677,3.254-0.121,4.673c1.536,1.4,2.719-0.262,4-0.939
		c5.463-2.886,10.017-6.824,13.99-11.545c1.272-1.516,2.626-4.34,5.229-2.568c2.593,1.766,0.532,3.767-0.476,5.697
		c-2.498,4.784-3.989,9.731-1.172,14.959c0.731,1.354,1.823,2.925,0.019,3.951c-1.431,0.814-2.935-0.163-4.043-1.342
		c-1.681-1.788-2.099-4.211-3.147-6.318C450.746,56.538,450.641,55.385,449.256,55.236z"/>
	<path fill-rule="evenodd" clip-rule="evenodd" fill="#126D8F" d="M567.302,70.494c0.854-8.726,3.434-16.791,5.441-24.972
		C575.401,34.7,578.509,24,582.989,13.759c0.838-1.917,1.377-4.832,4.384-3.659c3.116,1.215,1.249,3.806,0.64,5.676
		c-4.345,13.334-8.815,26.626-13.255,39.928c-1.563,4.686-2.133,9.527-2.05,14.424c0.043,2.395-0.717,4.334-3.104,4.331
		C567.053,74.455,567.304,72.075,567.302,70.494z"/>
	<path fill-rule="evenodd" clip-rule="evenodd" fill="#126D8F" d="M708.168,58.173c0.378-2.172,1-5.487,1.512-8.819
		c0.234-1.534,0.209-3.31-1.248-4.122c-1.328-0.739-2.449,0.572-3.563,1.319c-5.383,3.619-8.515,9.016-11.677,14.438
		c-0.712,1.223-1.159,3.846-3.466,2.524c-2.105-1.207-1.017-3.014-0.237-4.845c2.301-5.407,5.262-10.532,6.115-16.563
		c0.394-2.785,2.377-5.483,5.412-1.712c1.705,2.118,3.175,1.275,4.768,0.133c2.559-1.835,5.429-2.44,8.053-0.731
		c2.658,1.73,2.045,4.833,1.786,7.483c-0.408,4.181-2.213,8.139-1.876,12.48c0.184,2.341,0.14,5.521-3.073,5.312
		C707.433,64.86,708.257,61.652,708.168,58.173z"/>
	<path fill-rule="evenodd" clip-rule="evenodd" fill="#126D8F" d="M106.29,65.831c-7.942-0.039-12.576-6.304-10.069-13.979
		c1.915-5.866,5.55-10.817,10.519-14.614c2.164-1.656,4.671-2.399,6.929-0.319c2.435,2.244,1.916,4.766,0.111,7.267
		c-2.868,3.972-5.365,8.278-10.951,9.027c-2.403,0.323-2.337,2.372-1.65,3.94c1.233,2.818,3.322,4.897,6.723,3.869
		c1.552-0.47,2.886-1.707,4.272-2.664c1.119-0.772,2.293-1.917,3.552-0.622c1.453,1.498,0.211,2.995-0.812,3.96
		C112.448,64.021,109.806,66.211,106.29,65.831z"/>
	<path fill-rule="evenodd" clip-rule="evenodd" fill="#126D8F" d="M507.769,56.66c-1.908-14.482,5.502-26.454,10.573-39.032
		c0.702-1.741,2.165-3.437,4.315-2.616c2.616,0.999,0.973,3.058,0.666,4.746c-1.464,8.042-6.671,14.665-8.344,22.709
		c-1.588,7.643-3.062,15.179-2.244,23.027c0.191,1.833,1.078,4.648-1.95,4.796c-2.631,0.13-2.791-2.642-2.949-4.545
		C507.584,62.737,507.769,59.69,507.769,56.66z"/>
	<path fill-rule="evenodd" clip-rule="evenodd" fill="#126D8F" d="M281.997,44.757c-0.135,1.602-1.229,1.875-2.809,1.696
		c-5.167-0.584-9.958,2.381-11.651,7.025c-0.446,1.228-0.654,2.348,0.562,3.149c1.282,0.845,2.191,0.039,3.046-0.892
		c1.145-1.247,2.287-2.504,3.523-3.659c3.187-2.975,6.275-2.582,8.04,1.432c1.055,2.395,1.263,5.192,1.648,7.838
		c0.196,1.349-0.886,2.14-2.041,2.594c-1.723,0.675-2.738-0.577-3.113-1.791c-1.583-5.146-4.226-3.05-6.48-0.88
		c-3.029,2.916-6.082,3.709-9.395,0.858c-3.496-3.007-3.135-6.553-0.605-9.939c2.914-3.901,5.275-8.397,9.955-10.616
		C276.74,39.644,281.892,41.358,281.997,44.757z"/>
	<path fill-rule="evenodd" clip-rule="evenodd" fill="#126D8F" d="M137.745,55.951c-0.366,7.35-3.978,11.657-10.179,12.435
		c-1.976,0.248-3.724-0.051-5.164-1.437c-1.041-1.002-2.906-1.837-2.088-3.621c0.918-1.999,2.696-1.379,4.392-0.807
		c5.315,1.793,8.6-0.993,7.337-6.576c-0.85-3.753-2.798-7.252-3.735-10.994c-0.641-2.553-2.683-6.029,0.807-7.739
		c3.588-1.757,7.605-1.094,11.18,0.875c0.938,0.516,1.26,1.591,0.86,2.667c-0.565,1.525-1.761,1.303-2.946,0.925
		c-5.207-1.653-4.53,1.085-3.239,4.313C136.273,49.255,138.368,52.304,137.745,55.951z"/>
	<path fill-rule="evenodd" clip-rule="evenodd" fill="#126D8F" d="M485.858,60.413c0.56-3.035,0.475-6.517,1.842-9.281
		c4.778-9.656,7.798-20.228,14.672-28.809c0.97-1.211,1.546-3.809,3.549-2.643c2.146,1.252,1.317,3.658,0.153,5.403
		c-4.603,6.895-7.613,14.599-11.397,21.909c-2.247,4.341-3.419,8.737-3.034,13.645c0.151,1.938,1.108,5.083-2.124,5.2
		C486.47,65.947,486.331,62.916,485.858,60.413z"/>
	<path fill-rule="evenodd" clip-rule="evenodd" fill="#126D8F" d="M691.302,35.533c0.009,1.417-0.549,2.049-1.338,2.413
		c-8.731,4.011-11.174,12.495-14.524,20.34c-0.521,1.22-0.957,2.542-1.761,3.557c-0.863,1.09-2.188,1.622-3.596,0.766
		c-1.144-0.694-1.609-1.732-1.098-3.016c3.228-8.076,5.658-16.598,12.078-22.956c2.238-2.215,5.106-3.21,8.344-2.681
		C690.56,34.145,691.036,34.974,691.302,35.533z"/>
	<path fill-rule="evenodd" clip-rule="evenodd" fill="#126D8F" d="M473.322,34.063c0.486-6.606,4.553-11.185,7.187-16.401
		c0.408-0.807,1.34-1.047,2.202-0.713c1.088,0.419,1.563,1.492,1.372,2.462c-0.356,1.792-0.908,3.578-1.623,5.262
		c-1.435,3.376-3.916,6.266-4.342,10.135c-0.162,1.475-1.196,3.193-3.008,2.667C473.545,37.021,473.374,35.19,473.322,34.063z"/>
	<path fill-rule="evenodd" clip-rule="evenodd" fill="#126D8F" d="M119.32,24.509c-0.28-1.983-0.504-3.978-0.861-5.947
		c-0.212-1.163-0.746-2.391,0.613-3.117c1.619-0.863,2.464,0.529,3.317,1.476c1.941,2.149,2.201,10.195,0.418,12.425
		c-0.383,0.478-1.048,1.053-1.563,1.034c-1.068-0.041-1.93-0.895-2.11-1.868c-0.238-1.288-0.059-2.651-0.059-3.984
		C119.156,24.521,119.238,24.515,119.32,24.509z"/>
	<path fill-rule="evenodd" clip-rule="evenodd" fill="#126D8F" d="M661.559,58.773c-3.199-0.733-3.181-3.247-2.577-5.572
		c0.583-2.261,1.796-4.356,2.701-6.537c1.66-3.997,2.275-7.93-1.728-10.941c-3.591-2.702-7.13-1.275-10.306,0.892
		c-3.753,2.562-7.117,5.729-10.988,8.079c-3.92,2.38-6.029,5.971-7.479,9.886c-2.513,6.778,2.134,12.547,8.665,11.213
		c3.091-0.632,5.49-2.533,7.91-4.375c2.18-1.66,4.089-2.763,6.279,0.273c1.357,1.883,3.891,1.766,6.473,1.87
		c1.479-0.47,4.262,0.5,4.821-2.038C665.943,58.754,663.268,59.165,661.559,58.773z M655.931,46.495
		c-3.7,5.981-9.081,10.291-15.085,13.823c-1.253,0.737-2.696,0.635-3.683-0.542c-1.145-1.366-1.419-3.043-0.896-4.759
		c0.757-2.48,14.447-12.81,17.386-12.897C656.104,42.411,657.497,43.965,655.931,46.495z"/>
	<path fill-rule="evenodd" clip-rule="evenodd" fill="#126D8F" d="M415.362,40.784c-6.954,0.647-14.07,10.585-12.105,17.273
		c0.802,2.729,2.34,5.452,5.604,5.92c7.341,1.05,15.542-6.415,15.629-14.051C424.564,43.379,421.411,40.221,415.362,40.784z
		 M411.778,58.131c-2.331,0.101-3.489-1.086-3.658-3.182c-0.234-2.911,4.755-9.206,7.291-9.332c4.491-0.222,2.572,3.818,3.779,5.399
		C419.238,54.74,415.598,57.967,411.778,58.131z"/>
</g>
</svg>
