<?xml version="1.0" encoding="utf-8"?>
<!-- Generator: Adobe Illustrator 16.0.0, SVG Export Plug-In . SVG Version: 6.00 Build 0)  -->
<!DOCTYPE svg PUBLIC "-//W3C//DTD SVG 1.1//EN" "http://www.w3.org/Graphics/SVG/1.1/DTD/svg11.dtd">
<svg version="1.1" id="Layer_1" xmlns="http://www.w3.org/2000/svg" xmlns:xlink="http://www.w3.org/1999/xlink" x="0px" y="0px"
	 width="1488.059px" height="394.083px" viewBox="0 0 1488.059 394.083" enable-background="new 0 0 1488.059 394.083"
	 xml:space="preserve">
<path fill-rule="evenodd" clip-rule="evenodd" fill="#126D8F" d="M759.979,74.456c-2.885-7.58-8.671-11.297-16.645-10.746
	c-13.656,0.943-27.282,2.319-43.883,3.773c4.522-15.584,8.711-30.013,13.011-44.817c-7.594-4.001-9.469,2.685-10.998,7.336
	c-3.765,11.456-6.418,23.274-10.043,34.78c-0.799,2.533-3.381,5.22-5.832,6.386c-8.797,4.188-17.938,7.649-26.834,11.633
	c-1.595,0.713-2.939,1.977-4.311,3.185c0.159,0.588,0.402,1.1,0.791,1.433c0.631,0.541,1.631,0.763,2.699,0.852
	c9.77-2.939,19.59-5.894,29.896-8.996c-0.447,6.488-0.372,10.998-1.171,15.349c-0.743,4.017-2.422,7.859-3.755,11.987
	c6.115,3.921,10.706,2.056,11.752-5.648c0.767-5.647,0.98-11.368,1.728-17.02c0.821-6.182,7.415-10.331,14.826-9.372
	c6.996,0.905,3.402,6.486,4.15,10.081c0.371,1.784-0.006,3.709,0.122,5.56c0.604,8.871,7.337,14.542,15.657,12.065
	c7.76-2.31,15.467-5.378,22.519-9.327C762.5,87.994,763.515,83.752,759.979,74.456z M750.329,84.299
	c-5.719,4.303-12.375,7.363-18.688,10.882c-6.01-0.745-8.831-3.411-8.013-8.185c0.915-5.353,1.795-11.826,5.224-15.345
	c3.977-4.083,17.156-1.404,20.821,3.419C751.315,77.234,751.747,83.231,750.329,84.299z"/>
<path fill-rule="evenodd" clip-rule="evenodd" fill="#126D8F" d="M1488.962,125.96c-4.18-0.801-8.332-2.13-12.536-2.313
	c-26.866-1.177-53.782-3.461-80.607-2.724c-25.532,0.704-51.101,3.786-76.43,7.384c-31.788,4.517-63.339,10.682-95.026,15.941
	c-2.656,0.44-5.556-0.592-8.342-0.938c-0.063-1.33-0.13-2.661-0.197-3.99c21.23-4.657,42.317-10.173,63.727-13.752
	c26.51-4.43,53.214-8.079,79.973-10.575c40.316-3.762,80.721-4.974,120.666,4.069c3.36,0.762,6.468,2.647,9.692,4.013
	C1489.575,124.035,1489.269,124.997,1488.962,125.96z"/>
<path fill-rule="evenodd" clip-rule="evenodd" fill="#126D8F" d="M446.993,1.731c0.264,3.235,1.337,6.65,0.664,9.674
	c-4.51,20.211-9.419,40.331-14.105,60.502c-0.44,1.892-0.251,3.926-0.434,7.437c7.733-6.943,14.223-12.929,20.9-18.694
	c3.196-2.758,6.451-5.81,10.234-7.422c3.59-1.528,9.015-3.075,11.585-1.425c2.47,1.583,3.806,7.597,3.022,11.074
	c-2.244,9.939-5.543,19.674-8.949,29.308c-2.89,8.172-3.211,8.059,3.997,14.649c-3.879,2.047-7.495,5.636-10.381,5.12
	c-5.712-1.022-5.379-6.621-4.081-11.048c2.889-9.842,6.412-19.497,9.379-29.317c1.075-3.566,1.297-7.39,2.168-12.656
	c-13.303,5.322-21.781,13.622-28.842,23.068c-5.806,7.765-9.766,16.887-15.279,24.901c-2.168,3.151-6.34,4.926-9.602,7.329
	c-1.583-2.235-3.298-4.394-4.676-6.749c-0.455-0.774-0.486-2.467,0.045-3.046c10.914-11.897,9.866-27.93,14.27-42.003
	c4.784-15.287,7.473-31.22,11.414-46.786c1.203-4.757,3.521-9.23,5.331-13.833C444.767,1.787,445.879,1.76,446.993,1.731z"/>
<path fill-rule="evenodd" clip-rule="evenodd" fill="#126D8F" d="M44.658,45.955C34.481,49.773,26.012,53.213,17.356,56.1
	C12.224,57.812,6.668,62.483,0,54.862c7.28-3.454,13.4-6.785,19.839-9.3c7.365-2.876,14.949-5.245,22.558-7.424
	c6.095-1.747,8.157-5.588,8.591-11.658c0.58-8.096,1.907-16.167,3.433-24.148c0.34-1.785,2.845-3.156,4.351-4.719
	c1.135,1.803,3.286,3.644,3.217,5.397c-0.244,6.325-1.128,12.634-1.982,18.92c-1.122,8.248-0.348,9.055,7.752,6.105
	c12.648-4.607,25.189-9.516,37.783-14.275c1.708-0.646,3.622-1.911,5.163-1.584c2.699,0.569,5.188,2.151,7.763,3.309
	c-2.062,2.031-3.771,5.026-6.246,5.933c-13.512,4.959-26.941,10.633-40.918,13.712c-17.384,3.829-17.287,17.686-20.056,30.145
	c-3.082,13.874-5.478,27.901-8.392,41.815c-0.461,2.21-1.664,4.632-3.289,6.122c-1.467,1.341-3.984,1.537-6.038,2.239
	c-0.155-1.871-0.749-3.829-0.399-5.602c3.543-18.048,7.281-36.057,10.851-54.101C44.478,53.235,44.357,50.599,44.658,45.955z"/>
<path fill-rule="evenodd" clip-rule="evenodd" fill="#126D8F" d="M152.029,56.603c-3.942,3.961-8.474,7.499-11.702,11.975
	c-5.871,8.129-10.649,17.049-16.525,25.173c-2.888,3.991-7.211,6.941-10.887,10.362c-1.015-0.476-2.03-0.952-3.045-1.429
	c0.636-7.282-0.195-15.086,2.17-21.756c8.091-22.806,10.914-46.61,15.16-70.171c1.038-5.778,3.637-10.672,11.352-11.884
	c-4.324,24.384-8.477,47.794-12.975,73.159c8.457-7.997,15.571-14.789,22.769-21.496c3.224-3.007,7.032-7.975,11.266-4.081
	c2.829,2.601,4.333,8.638,3.665,12.678c-1.893,11.401-5.224,22.564-7.947,33.829c-0.363,1.505-0.204,3.203-0.824,4.566
	c-0.923,2.029-2.325,3.84-3.522,5.743c-1.774-2.392-5.366-5.092-5.021-7.125c1.977-11.637,4.903-23.113,7.459-34.654
	c0.262-1.166,0.199-2.402,0.285-3.607C153.146,57.458,152.588,57.03,152.029,56.603z"/>
<path fill-rule="evenodd" clip-rule="evenodd" fill="#126D8F" d="M222.216,101.924c-2.328-3.414-3.77-5.527-5.147-7.545
	c-7.796,2.628-15.119,5.673-22.733,7.54c-12.889,3.157-20.97-5.579-17.906-18.503c3.581-15.111,13.854-25.933,23.789-36.837
	c1.216-1.336,6.781-0.751,8.565,0.878c4.157,3.796,4.458,9.437,0.737,13.624c-6.293,7.079-12.845,14.168-20.374,19.804
	c-3.775,2.826-6.814,5.378-4.204,8.929c1.979,2.684,7.662,5.341,10.309,4.34c8.514-3.22,16.476-7.978,24.484-12.44
	c16.815-9.372,28.144-24.481,40.255-38.778c0.723-0.855,2.572-0.758,3.896-1.104c-0.126,1.353,0.207,3.008-0.45,4.016
	c-10.519,16.078-21.021,32.165-31.895,48.002C229.444,96.906,225.795,98.898,222.216,101.924z"/>
<path fill-rule="evenodd" clip-rule="evenodd" fill="#126D8F" d="M808.534,252.271c-0.605,0.193-1.061,0.514-1.412,0.9
	c-0.867,0.222-1.806,0.573-2.842,1.053c-0.625,0.291-1.266,0.549-1.905,0.81c-0.522-0.143-1.13-0.12-1.81,0.159
	c-5.894,2.418-12.06,3.644-18.275,4.67c3.881-12.438,7.262-23.351,10.699-34.23c1.733-5.489,3.088-11.18,5.532-16.342
	c2.34-4.941,0.464-6.671-5.001-8.123c-1.854,4.147-4.099,8.272-5.58,12.652c-2.831,8.375-7.465,23.541-12.415,38.168
	c-1.271,3.751-2.634,7.525-5.368,9.905c-3.779,0.725-7.519,1.625-11.174,2.909c-0.796-0.368-1.756-0.372-2.742,0.274
	c-1.124,0.736-1.772,1.324-2.471,2.473c-1.098,1.806-0.027,4.087,1.904,4.683c4.057,1.251,7.793,0.46,11.486-0.721
	c0.082,0.024,0.149,0.042,0.233,0.067c-4.154,9.296-8.408,18.001-11.823,27.026c-0.025,0.073-0.028,0.155-0.052,0.23
	c-1.359,1.781-1.677,4.157-0.522,6.32c0.805,1.512,2.316,2.239,3.945,2.413c1.838,0.198,3.307-1.219,4.317-2.533
	c0.738-0.962,0.542-2.303-0.096-3.302c3.88-8.455,7.163-17.181,10.735-25.778c3.066-7.379,7.645-9.229,16.792-6.433
	c-1.448,3.371-4.162,6.767-3.997,10.017c0.215,4.26,1.553,9.953,4.535,12.167c3.023,2.248,9.039,2.204,12.968,0.874
	c2.528-0.854,5.88-4.881,5.415-7.38c-0.469-2.5-1.608-2.553-2.411-3.032c-0.942,0.735-1.786,1.83-2.85,2.129
	c-2.003,0.559-5.226,2.086-7.255,0.51c-2.031-1.577-1.606-5.148-0.742-6.906c0.522-1.06,1.104-2.102,1.729-3.123
	c4.814,0.077,9.299-0.809,13.738-2.881c3.482-1.627,8.908-5.211,10.418-8.907C825.759,254.368,815.34,250.093,808.534,252.271z
	 M812.706,263.715c-2.908,2.357-6.086,3.695-9.489,4.299c0.455-0.503,0.899-1.019,1.37-1.501c3.057-3.125,6.871-5.512,10.441-8.188
	C818.737,259.37,814.052,262.625,812.706,263.715z"/>
<path fill-rule="evenodd" clip-rule="evenodd" fill="#126D8F" d="M242.054,285.577c9.894-5.873,19.77-11.767,29.677-17.611
	c4.97-2.93,9.916-5.919,15.048-8.539c1.261-0.643,3.206,0.056,4.838,0.137c-0.586,1.601-0.699,3.851-1.846,4.691
	c-4.179,3.06-8.922,5.357-13.052,8.474c-11.913,8.989-23.551,18.343-35.48,27.312c-2.964,2.227-6.617,3.539-9.953,5.272
	c-0.746-0.491-1.493-0.981-2.24-1.474c0.694-7.558,1.384-15.115,2.183-23.829c-2.429,1.411-4.355,2.109-5.73,3.399
	c-9.154,8.606-18.072,17.472-27.385,25.904c-1.57,1.419-6.299,2.188-6.78,1.449c-1.543-2.377-2.829-5.798-2.332-8.464
	c2.09-11.22,4.784-22.333,7.456-33.437c0.617-2.556,1.493-5.506,3.287-7.124c0.881-0.789,5.415,0.486,6.041,1.856
	c1.123,2.451,1.088,5.788,0.557,8.564c-1.299,6.772-3.163,13.437-4.8,20.143c0.821,0.456,1.644,0.911,2.463,1.367
	c6.55-5.456,13.158-10.841,19.624-16.393c3.804-3.264,7.119-7.153,11.163-10.056c2.186-1.571,5.439-1.658,8.21-2.415
	c0.122,2.592,0.677,5.255,0.264,7.757c-0.663,4.012-1.964,7.918-2.999,11.871C240.862,284.816,241.458,285.196,242.054,285.577z"/>
<path fill-rule="evenodd" clip-rule="evenodd" fill="#126D8F" d="M694.29,252.482c-8.168,6.201-15.969,12.883-23.982,19.294
	c-3.934,3.15-8.045,6.084-12.072,9.115c-2.096,1.807-2.893,0.478-2.139-1.43c1.514-4.277,3.369-8.473,4.406-12.862
	c0.584-2.486,2.543-6.746-0.336-7.953c-2.701-0.69-5.896,1.292-7.9,3.028c-7.729,6.692-15.064,13.839-23.035,21.27
	c-1.779,1.082-1.057-1.657-1.016-2.562c0.436-9.457,1.277-18.906,1.344-28.36c0.016-2.545-0.515-7.658-3.426-7.658
	c-3.197,0.886-3.869,3.565-4.133,5.565c-1.67,12.857-3.25,25.757-3.953,38.69c-0.044,0.797-0.06,4.999,0.424,6.298
	c0.676,1.816,2.037,3.05,3.81,3.712c0.062,0.127,0.134,0.255,0.19,0.382c0.131-0.06,0.272-0.115,0.406-0.173
	c3.375,0.927,9.311-4.359,9.568-4.593c4.377-3.959,7.883-8.884,12.583-14.371c1.131,4.394,1.914,7.125,2.53,9.894
	c1.799,8.044,4.952,9.227,11.392,3.677c5.767-4.973,10.94-10.634,16.704-15.611c7.797-6.732,16.052-12.938,23.752-19.771
	c1.422-1.264,3.748-5.118,1.67-6.718C699.171,250.179,695.908,251.254,694.29,252.482z"/>
<path fill-rule="evenodd" clip-rule="evenodd" fill="#126D8F" d="M1478.87,54.663c-2.736,0.03-5.445,0.167-8.101,0.484l0.237-0.279
	c-0.146,0.007-0.293,0.011-0.438,0.021c-1.074,0.384-2.227,0.667-3.451,0.854c-0.525,0.215-1.037,0.417-1.511,0.572
	c-1.395,0.459-2.751,0.717-4.123,0.792c-0.097,0.078-0.193,0.156-0.292,0.233c-2.72,0.989-5.342,2.316-7.834,4.105
	c-3.301,2.371-7.354,4.688-10.365,7.746c1.4-2.287,2.953-4.509,4.693-6.665c3.197-3.958-2.406-9.634-5.634-5.634
	c-3.905,4.838-7.225,9.888-9.691,15.377c-0.37-0.1-0.735-0.185-1.103-0.274c-0.578-1.139-1.699-1.974-3.389-1.927
	c-3.952,0.108-7.58,1.556-11.09,3.377c-0.119,0.034-0.24,0.069-0.36,0.1c-7.812,3.902-16.254,8.076-25.207,7.267
	c-1.05-0.093-1.878-0.705-2.261-1.526c-0.064,0.007-0.125,0.012-0.189,0.02c0.031-0.087,0.06-0.167,0.086-0.247
	c-0.209-0.613-0.184-1.32,0.195-2.023c0.383-0.706,0.799-1.26,1.277-1.872c-0.006-0.03-0.006-0.06-0.013-0.091
	c5.634-8.759,19.019-11.108,27.759-15.03c7.053-3.167,15.387-10.541,8.988-18.362c-6.123-7.483-25.057,2.654-30.074,6.743
	c-5.974,4.875-13.44,13.996-14.633,22.664c-0.008,0.017-0.018,0.029-0.025,0.047c-0.648,1.663-1.125,3.461-1.383,5.261
	c-0.16,0.522-0.209,1.009-0.162,1.456c-0.449,5.96,1.79,11.553,9.152,11.938c6.05,0.318,11.906-0.427,17.58-2.563
	c3.525-1.326,7.307-3.958,11.148-6.067c0.812-0.199,1.622-0.397,2.432-0.599c5.432-1.344,7.621-0.722,5.898,5.477
	c-0.539,1.943-0.106,5.261,1.191,6.287c1.225,0.967,4.422,0.256,6.311-0.643c1.191-0.567,2.34-1.281,3.436-2.077
	c0.49-0.999,1.106-1.962,1.838-2.858c0.198-0.246,0.348-0.432,0.451-0.559c0.249-0.335,0.5-0.669,0.746-1.007
	c0.53-0.727,1.056-1.46,1.6-2.176c1.579-2.073,3.132-4.342,5.059-6.128c0.492-0.456,0.994-0.896,1.506-1.318
	c0.773-1.188,1.789-2.22,3.046-2.993c0.124-0.141,0.233-0.295,0.362-0.431c2.951-3.184,6.404-5.474,10.248-6.869
	c0.845-0.333,1.719-0.626,2.664-0.834c4.213-1.329,8.624-1.744,13.424-1.798C1484.008,62.574,1484.013,54.606,1478.87,54.663z
	 M1405.91,52.049c3.533-2.104,7.601-3.407,11.604-4.237c7.629-1.581,0.704,3.171-2.016,4.639c-6.19,3.339-13.353,5.384-19.685,8.49
	C1399.14,57.023,1403.183,53.671,1405.91,52.049z"/>
<path fill-rule="evenodd" clip-rule="evenodd" fill="#126D8F" d="M1222.063,264.18c-0.572-0.763-1.145-1.525-1.717-2.288
	c-4.273,2.014-10.22,2.286-14.4,4.478c-7.143,3.743-11.787,6.825-19.896,7.802c-2.497,0.302-1.046-5.124-3.979-6.057
	c-0.949-0.302-6.502,6.177-7.723,6.658c-5.398,2.12-12.469,6.596-19.43,9.336c-10.656,4.197-17.89,3.742-29.311,4.399
	c-5.904,0.339-7.323-3.01-2.806-8.026c4.729-5.245,10.058-9.473,16.087-12.936c5.467-3.14,11.508-5.652,18.204-7.723
	c2.144-2.684-4.759-2.437-6.257-2.201c-15.278,2.399-28.092,9.68-37.287,21.947c-5.73,7.646-1.846,15.792,7.978,16.481
	c8.794,0.618,17.854-0.779,26.636-2.254c7.665-1.288,13.508-7.119,20.12-8.91c0.087,0.163,0.166,0.308,0.251,0.468
	c-0.065,0.14-0.12,0.286-0.176,0.433c-2.13,3.264-0.668,8.859,4.435,8.859c1.692,0,2.972-0.625,3.862-1.572
	c2.85-3.02,15.223-14.442,20.279-16.291c5.059-1.849,8.236-2.895,8.248-1.849c0.654,0.343,1.113,1.072,1.454,1.965
	c-0.05,0.075-0.114,0.12-0.157,0.211c-0.695,1.503-10.8,15.823-11.324,17.394c-0.294,0.873,0.331,1.676,1.111,1.959
	c3.643,1.326,7.097,0.872,9.216-2.593c1.873-3.06,11.306-20.002,13.594-22.799c0.345-0.42,0.433-0.889,0.359-1.319
	C1220.317,268,1221.171,266.152,1222.063,264.18z"/>
<path fill-rule="evenodd" clip-rule="evenodd" fill="#126D8F" d="M396.298,280.965c-1.07,0.178-2.055,0.577-2.923,1.124
	c-2.422,0.817-4.755,2.588-6.25,4.613c-1.007,0.651-2.017,1.291-3.039,1.918c-3.538,1.436-7.055,2.956-10.7,4.035
	c-5.817,1.725-11.785,2.634-13.851-5.271c0.29-0.464,0.46-1.042,0.421-1.752c-0.141-2.625,0.517-4.532,2.254-6.512
	c2.701-3.075-1.792-7.603-4.508-4.507c-1.746,1.988-2.998,4.091-3.646,6.43c-2.347,3.816-3.169,10.17-0.6,14
	c0.141,0.435,0.313,0.845,0.561,1.21c5.529,8.191,14.525,4.408,23.307,3.646c-1.06,3.896-1.763,6.915-2.7,9.858
	c-7.644,24.003-15.47,47.949-22.853,72.031c-1.09,3.556-0.151,7.733-0.151,11.623c0.823,0.225,1.649,0.449,2.473,0.673
	c1.548-1.864,3.882-3.493,4.517-5.631c4.553-15.293,7.745-31.073,13.347-45.956c6.493-17.26,9.186-36.598,24.18-49.896
	c0.094-0.083,0.163-0.195,0.237-0.297c2.229-1.51,3.536-3.824,3.663-6.684c0.07-0.236,0.136-0.477,0.183-0.734
	C400.672,282.361,398.796,280.547,396.298,280.965z"/>
<path fill-rule="evenodd" clip-rule="evenodd" fill="#126D8F" d="M264.58,85.396c0.897,6.803,4.729,9.616,13.482,7.731
	c9.514-2.048,18.798-5.18,28.166-7.895c2.377-0.689,4.692-1.589,8.062-2.746c-0.604,2.318-0.558,3.774-1.121,4.07
	c-13.208,6.95-25.721,15.798-41.783,14.89c-12.604-0.714-19.97-12.185-14.681-23.644c6.211-13.464,16.542-23.244,29.378-30.159
	c2.514-1.356,8.038-0.854,9.768,1.016c2.103,2.277,3.396,7.865,2.023,10.36C290.704,72.051,277.916,78.39,264.58,85.396z
	 M271.728,68.815c0.709,0.907,1.417,1.812,2.128,2.717c4.425-3.369,8.853-6.74,13.28-10.109c-0.807-1.024-1.613-2.048-2.42-3.072
	C280.387,61.84,276.056,65.327,271.728,68.815z"/>
<path fill-rule="evenodd" clip-rule="evenodd" fill="#126D8F" d="M1275.31,237.407c4.524-2.957,11.131-1.56,16.094-3.085
	c5.619-1.726,8.848-4.137,10.777-9.781c4.217-12.327,9.155-24.407,13.875-36.787c5.897,5.067,6.217,6.027,3.465,13.641
	c-3.533,9.776-7.27,19.478-11.397,30.497c4.554-0.228,13.653-4.442,14.858-2.052c1.203,2.39-2.492,7.811-5.043,7.956
	c-2.549,0.145-14.203,1.881-14.203,1.881s-4.261,12.225-6.162,19.468c-3.066,11.68-5.944,23.426-9.623,34.917
	c-0.92,2.879-5.464,7.3-6.814,6.809c-3.361-1.222-2.764-3.166-5.377-6.038c-0.472-0.518,0.518-3.338,0.686-3.324
	c2.232,0.183,1.247-0.911,4.954-0.204c4.206-16.004,8.499-32.331,13.463-51.219c-6.095,1.847-15.136,2.957-17.079,2.466
	C1275.843,242.061,1275.708,238.079,1275.31,237.407z"/>
<path fill-rule="evenodd" clip-rule="evenodd" fill="#126D8F" d="M1103.866,61.362c-9.945-1.627-16.712,4.463-23.238,10.231
	c-4.902,4.328-8.934,9.665-13.139,14.731c-0.797,0.96-0.588,2.756-0.844,4.166c1.381,0.008,3.082,0.551,4.089-0.058
	c9.2-5.556,18.218-11.414,27.444-16.917c1.659-0.988,4.627-1.651,5.944-0.816c1.316,0.833,2.104,3.872,1.786,5.711
	c-3.562,20.669-4.953,19.659,15.158,23.856c0.135,0.708,0.27,1.418,0.404,2.125c-3.91,0.6-8.008,2.212-11.681,1.527
	c-4.038-0.753-8.743-2.759-11.202-5.8c-2.554-3.158-2.767-8.208-4.113-12.803c-9.246,4.364-18.026,8.862-27.121,12.588
	c-2.712,1.11-7.967,1.275-9.123-0.291c-1.811-2.455-2.59-7.474-1.265-10.147c8.251-16.639,21.198-28.918,38.034-36.655
	C1101.138,49.992,1105.101,54.267,1103.866,61.362z"/>
<path fill-rule="evenodd" clip-rule="evenodd" fill="#126D8F" d="M1229.642,286.926c-1.896,8.728-8.562,17.458-10.484,26.179
	c-0.864,3.924,1.476,10.781-5.2,10.127c-6.261-0.613-5.487-6.726-3.888-11.329c3.32-9.549,11.879-18.94,15.319-28.448
	c0.696-1.926,1.173-4.11,1.042-6.13c4.85-13.456,4.85-13.456,12.1-14.75c7.314-0.908,14.611-2,21.947-2.701
	c6.284-0.6,11.142,2.32,13.068,8.165c1.86,5.65-0.076,12.461-5.935,14.933c-8.641,3.643-17.044,8.564-26.239,8.492
	c-2.662-0.022-6.133-1.726-9.244-2.726C1231.298,288.133,1230.472,287.529,1229.642,286.926z M1266.959,271.822
	c-10.953-10.462-28.786-4.61-32.798,8.422C1247.558,287.693,1267.493,281.062,1266.959,271.822z"/>
<path fill-rule="evenodd" clip-rule="evenodd" fill="#126D8F" d="M301.817,288.807c8.812-5.878,17.623-11.758,26.434-17.637
	c0.705,0.538,1.408,1.079,2.111,1.617c-0.521,2.87-0.819,5.803-1.613,8.593c-1.008,3.532-2.646,6.888-3.613,10.428
	c-2.523,9.241-0.053,12.011,9.358,10.885c1.208-0.143,2.447-0.019,4.053-0.019c-5.467,7.208-12.757,9.263-17.103,3.671
	c-3.65-4.7-4.529-11.553-6.707-17.655c-6.513,3.553-13.104,7.243-19.794,10.749c-2.544,1.332-5.245,2.847-7.997,3.142
	c-2.267,0.245-6.166-0.596-6.746-2.014c-0.878-2.154-0.475-6.253,1.083-7.726c6.324-5.975,13.181-11.415,20.063-16.764
	c7.062-5.492,14.217-10.904,21.699-15.793c2.262-1.479,5.802-1.589,8.629-1.25c0.777,0.093,2.158,4.654,1.354,6.123
	c-1.072,1.965-3.945,3.016-6.149,4.284c-9.107,5.244-18.251,10.42-27.381,15.623C300.271,286.312,301.046,287.56,301.817,288.807z"
	/>
<path fill-rule="evenodd" clip-rule="evenodd" fill="#126D8F" d="M1312.37,49.121c-15.883,5.38-29.168,14.708-38.992,28.378
	c-0.361,0.503-0.59,1.101-0.777,1.729c-0.512,0.484-0.882,1.104-1.061,1.834c-0.982,1.547-1.344,3.352-1.045,5.473
	c0.22,1.578,2.268,3.118,3.84,2.925l1.275-0.154c0.951,0.127,2.025,0.125,3.255-0.072c9.023-1.449,16.167-8.134,25.222-9.071
	c0.265-0.028,0.507-0.085,0.744-0.152c-0.766,2.63-1.383,4.714-1.938,6.809c-0.873,3.287-3.056,7.06-2.148,9.784
	c0.148,0.443,0.339,0.879,0.545,1.312c2.768,0.025,5.564-0.256,7.162-2.317c-0.041-0.004-0.072-0.026-0.115-0.028
	c-0.588-0.021-0.637-0.169-0.771-0.601c-0.079-0.252-0.097-0.554-0.103-0.862c0.355-1.088,0.873-2.33,1.537-3.792
	c2.057-4.536,4.11-9.238,4.991-14.078c0.474-2.604-1.007-6.06-2.698-8.308c-0.646-0.859-4.549,0.128-6.618,1.053
	c-6.521,2.917-12.877,6.203-21.273,10.312c7.826-13.964,27.306-24.331,35.165-20.4C1320.64,51.334,1318.159,47.159,1312.37,49.121z"
	/>
<path fill-rule="evenodd" clip-rule="evenodd" fill="#126D8F" d="M1370.833,53.757c-2.506,0.634-4.957,1.801-7.198,3.126
	c-6.134,3.634-12.169,7.455-18.327,11.275c0.43-1.168,0.693-2.392,0.748-3.667c0.193-4.389-5.574-5.001-7.409-1.904
	c-0.934,0.494-1.731,0.965-2.063,1.656c-4.242,8.822-8.384,17.703-12.105,26.75c-0.508,1.239,1.104,4.552,2.404,5.012
	c1.451,0.514,4.267-0.599,5.445-1.928c5.779-6.513,11.633-13.032,16.645-20.126c5.186-7.342,12.549-9.517,23.059-12.105
	c-2.277,6.197-3.917,10.255-5.258,14.407c-1.611,4.98-3.326,9.982-4.225,15.108c-0.088,0.493,0.119,1.034,0.461,1.6
	c0.229,1.222,0.961,2.324,2.197,2.835c0.209,0.265,0.406,0.527,0.575,0.784c0.198-0.175,0.413-0.347,0.632-0.515
	c0.124,0.009,0.233,0.036,0.361,0.036c2.736,0,4-2.257,3.822-4.369c2.422-6.061,4.479-12.275,6.438-18.506
	c1.24-3.956,2.586-8.019,2.873-12.104C1380.321,55.206,1376.534,52.315,1370.833,53.757z"/>
<path fill-rule="evenodd" clip-rule="evenodd" fill="#126D8F" d="M1225.095,77.765c-2.693-3.162-6.477-8.787-5.323-11.062
	c1.89-3.733,7.067-7.031,11.429-8.038c7.033-1.622,14.245-2.463,21.367-3.3c0.133-0.216,0.261-0.435,0.373-0.659
	c0.75-1.53,0.627-3.1,0.142-4.623c-10.271-3.555-20.837,0.028-31.134,4.193c-12.072,4.882-14.096,13.612-6.146,23.773
	c5.116,6.539,10.704,12.708,16.376,19.39c-1.901,2.113-4.41,2.935-7.215,3.258c-6.5-0.981-12.873-2.115-18.742-5.379
	c-4.496-2.499-8.516,4.385-4.021,6.88c1.108,0.618,2.238,1.156,3.369,1.654c-0.061,0.043-0.117,0.103-0.178,0.147
	c3.832,0.54,7.527,1.634,11.426,2.321c2.591,0.456,5.154,0.756,7.718,0.96c0.288-0.117,0.599-0.175,0.925-0.143
	c2.014,0.196,3.912-0.203,5.854-0.68c0.071-0.146,0.154-0.289,0.21-0.44c1.78-0.374,3.55-0.785,5.292-1.301
	c7.439-2.205,7.727-7.847,1.98-13.87C1234.44,86.282,1229.165,82.548,1225.095,77.765z"/>
<path fill-rule="evenodd" clip-rule="evenodd" fill="#126D8F" d="M858.643,344.125c0.657,0.4,1.699,0.654,1.905,1.216
	c1.75,4.743,2.921,10.258,9.957,8.553c7.226-1.752,16.064-1.87,16.119-12.687c0.079-15.25-0.355-30.508,0.091-45.745
	c0.202-7.011,1.759-14.021,3.209-20.926c0.281-1.332,1.827-3.231,4.483-3.231c3.004,0,2.955,3.396,2.589,4.465
	c0.047,21.133,1.392,38.404-1.034,57.513c-0.533,4.202-0.947,8.45-1.918,12.559c-3.079,13.052-18.396,20.239-30.361,14.411
	C857.835,357.407,855.401,349.781,858.643,344.125z"/>
<path fill-rule="evenodd" clip-rule="evenodd" fill="#126D8F" d="M531.089,77.41c-0.091-2.707-1.626-4.914-4.534-5.151
	c-1.589-0.13-3.266,0.774-4.521,1.862c-1.139,0.395-2.354,0.949-3.651,1.712c-2.687,1.577-4.959,3.268-7.77,5.218
	c-2.811,1.95-3.945,0.176-1.486-2.369c2.461-2.544,13.479-15.253,25.078-16.459c-4.345-4.807-15.189-4.702-19.835-0.654
	c-9.291,8.092-16.733,16.923-21.323,25.258c-1.072,1.945-1.991,6.093-0.824,7.717c1.195,1.662,5.357,2.531,7.597,1.811
	c4.42-1.425,8.479-4.071,12.563-6.428c3.579-2.068,6.985-4.436,11.336-7.224c0.765,2.973,1.468,5.694,2.139,8.293
	c-0.054,0.176-0.089,0.365-0.066,0.59c0.25,2.57,0.386,5.3,2.096,7.282c0.02,0.073,0.037,0.147,0.056,0.222
	c0.051-0.005,0.104-0.009,0.155-0.014c0.174,0.185,0.346,0.373,0.552,0.543c0.729,0.596,2.026,0.683,2.502-0.323
	c0.087-0.177,0.139-0.352,0.181-0.524c0.217-0.02,0.437-0.041,0.653-0.061c0.071-5.141,0.32-10.287,0.187-15.423
	C532.107,80.902,531.736,78.94,531.089,77.41z"/>
<path fill-rule="evenodd" clip-rule="evenodd" fill="#126D8F" d="M955.036,266.851c-1.922,1.768-6.745,0.189-9.678,1.067
	c-8.974,2.686-15.572,9.57-23.321,14.233c-1.858,1.343-1.594,2.938,1.083,2.13c6.771-3.651,13.43-7.551,20.384-10.809
	c2.149-1.007,6.139-1.315,7.431-0.048c1.385,1.353,1.508,5.366,0.549,7.475c-2.734,6.038-6.602,16.004-9.778,17.929
	c-2.78-0.521-2.78-0.521,0.317-15.905c-4.38,2.168-7.978,4.033-11.646,5.748c-4.305,2.009-8.522,4.711-13.062,5.51
	c-2.605,0.46-6.277-1.722-8.455-3.787c-0.963-0.912-0.255-5.615,1.145-6.665c9.375-12.011,21.724-17.896,32.953-23.06
	C948.335,259.472,953.033,260.155,955.036,266.851z"/>
<path fill-rule="evenodd" clip-rule="evenodd" fill="#126D8F" d="M1056.618,263.786c-6.816-2.073-19.863,8.687-24.554,12.641
	c-4.306,3.635-3.775,4.941,1.702,3.297c5.105-1.531,10.061-5.955,15.359-8.332c2.748-1.233,7.301-3.386,9.17-1.618
	c1.868,1.766-0.047,7.315-1.036,10.689c-1.034,3.536-2.735,11.203-5.76,11.633c-3.023,0.429-3.315-5.731-5.345-9.241
	c-3.947,1.603-8.64,3.732-13.488,5.401c-3.172,1.091-6.574,2.107-9.871,2.103c-5.221-0.009-7.377-4.504-4.507-8.802
	c7.238-10.835,17.503-18.27,28.714-24.347C1052.763,254.09,1056.427,257.552,1056.618,263.786z"/>
<path fill-rule="evenodd" clip-rule="evenodd" fill="#126D8F" d="M1071.742,290.185c5.217-1.417,12.174-1.328,14.123-4.408
	c1.815-2.874-2.06-9.059-2.78-13.882c-1.81-12.04,3.081-22.682,18.461-19.083c2.719,0.636,6.705-0.469,8.293,1.295
	c1.59,1.764,1.322,4.681-1.332,5.746c-2.657,1.064-4.363-1.793-7.411-1.7c-8.953,0.275-11.625,4.384-9.119,15.671
	c0.614,2.778,2.34,5.292,3.344,8.005c2.7,7.279,0.433,11.295-8.112,14.644C1079.681,299.424,1074.577,297.322,1071.742,290.185z"/>
<path fill-rule="evenodd" clip-rule="evenodd" fill="#126D8F" d="M983.884,287.357c6.792-6.112,13.514-12.311,20.437-18.272
	c1.716-1.48,3.515-3.251,6.173-3.251c2.92,1.272,0.606,5.409-0.524,7.21c-6.324,10.065-14.937,17.689-25.819,22.738
	c-6.502,3.017-9.811-0.438-11.253-5.837c-1.552-5.822-2.101-11.936-2.755-17.957c-0.129-1.199,0.983-3.292,1.995-3.651
	c1.116-0.399,3.503,0.307,4.05,1.265c1.258,2.201,1.836,4.821,2.504,7.322c0.838,3.128,1.488,6.307,2.221,9.463
	C981.747,287.018,982.333,288.541,983.884,287.357z"/>
<path fill-rule="evenodd" clip-rule="evenodd" fill="#126D8F" d="M588.992,49.86c-0.987-0.832-1.965-1.6-2.97-2.284
	c-1.049-0.022-2.095-0.046-3.138-0.059c-0.084-0.006-0.161-0.026-0.247-0.027c-2.231-0.021-4.46-0.046-6.674-0.058
	c-7.143-0.04-11.654,3.247-19.603,11.64c-2.758,3.528-2.374,11.756-2.391,11.955c2.252,5.471,6.038,10.79,3.591,16.12
	c-2.097,4.562-9.007,2.496-12.988,0.863c-0.973,0.612-1.652,1.659-1.621,2.744c-0.413,1.287-0.186,2.831,1.153,3.849
	c6.901,5.25,16.746,4.557,21.817-2.903c1.861-2.742,2.227-9.898,2.294-9.971c-0.091-0.239-0.154-0.489-0.191-0.744
	c-0.421-1.164-0.959-2.359-1.558-3.587c-0.227-0.394-0.459-0.785-0.738-1.145c-1.271-2.48-2.036-4.47-2.27-6.222
	c-0.557-2.433-0.438-4.867,1.144-7.215c3.594-5.34,9.974-8.825,16.439-8.839c0.374-0.001,0.704,0.064,1.013,0.154h4.034
	C588.622,54.131,589.58,51.719,588.992,49.86z"/>
<path fill-rule="evenodd" clip-rule="evenodd" fill="#126D8F" d="M724.049,254.98c-6.27,4.284-12.464,8.684-18.841,12.808
	c-0.482,0.312-0.984,0.605-1.496,0.886c0.438-1.82-0.549-4.033-2.971-4.033c-1.355,0-2.26,0.691-2.721,1.616
	c-0.36,0.324-0.672,0.731-0.886,1.256c-3.562,8.757-8.949,14.703-8.879,24.754c0.016,1.92,1.393,2.93,2.86,3.056
	c0.923,0.394,2.034,0.372,2.934-0.068c0.053,0.051,0.097,0.107,0.151,0.159c0.1-0.146,0.204-0.291,0.304-0.436
	c0.486-0.354,0.863-0.859,1.051-1.515c7.762-11.163,16.295-21.541,26.567-30.355c6.003-5.153,13.708-5.153,12.542-8.28
	C730.765,249.183,727.415,252.685,724.049,254.98z"/>
<path fill-rule="evenodd" clip-rule="evenodd" fill="#126D8F" d="M753.353,244.462c-5.105,1.942-13.988,0.574-10.683-7.338
	c4.63-2.745,8.036-3.413,10.787-2.01C755.298,236.053,756.118,243.412,753.353,244.462z"/>
<g>
	<path fill-rule="evenodd" clip-rule="evenodd" fill="#126D8F" d="M740.698,268.165c-0.959-0.354-2.993-6.452-4.866-4.858
		c-4.772,5.872-7.792,15.374-12.13,21.551c-0.239,0.341-3.281,7.261,0.285,7.274c2.139,0.007,6-1.251,6.128-1.496
		c1.862-3.582,0.854-1.242,0.563-0.58C731.057,289.21,733.167,284.527,740.698,268.165z"/>
	<path fill-rule="evenodd" clip-rule="evenodd" fill="#126D8F" d="M730.679,290.055
		C730.577,290.284,730.601,290.236,730.679,290.055L730.679,290.055z"/>
</g>
<path fill-rule="evenodd" clip-rule="evenodd" fill="#126D8F" d="M903.174,256.045c-6.196,2.23-10.894,1.174-11.423-4.263
	c-0.229-2.375,0.699-9.828,3.805-9.378C898.659,242.854,906.72,252.463,903.174,256.045z"/>
<path fill-rule="evenodd" clip-rule="evenodd" fill="#126D8F" d="M1219.926,235.239c-0.695-7.376,14.753-10.71,18.547-5.127
	C1236.805,235.238,1222.063,240.467,1219.926,235.239z"/>
<path fill-rule="evenodd" clip-rule="evenodd" fill="#126D8F" d="M558.651,250.971c-1.326-2.272-6.225-3.709-9.394-3.435
	c-13.043,1.127-26.036,2.909-39.008,4.731c-5.014,0.705-6.845,0.235-5.23-5.683c3.518-12.879,6.409-25.945,9.027-39.04
	c0.468-2.336-1.608-5.179-3.094-9.472c-2.116,3.144-2.966,3.916-3.216,4.846c-3.58,13.482-7.339,26.925-10.5,40.506
	c-1.92,8.255-6.268,11.488-14.886,11.913c-11.976,0.591-24.299,1.129-35.007,7.811c-1.771,1.105-2.975,3.125-4.169,4.429
	c15.866-2.048,30.644-3.957,45.417-5.865c0.484,0.921,0.965,1.843,1.446,2.765c-1.979,5.194-4.178,10.317-5.837,15.611
	c-0.273,0.867-0.487,1.815-0.613,2.775c-0.101,0.178-0.191,0.367-0.26,0.583c-1.656,5.15-4.872,16.026,2.038,18.557
	c3.455,1.266,5.546-2.689,6.175-5.355c0.358-1.528,0.509-3.081,0.624-4.637c0.73-1.965,1.139-4.158,1.313-5.888
	c0.148-0.311,0.277-0.626,0.379-0.945c1.583-4.968,1.999-10.296,3.331-15.36c2.358-8.959,9.875-11.907,18.976-7.608
	c-0.949,2.969-2.896,6.055-2.596,8.906c0.332,3.15,2.877,8.05,4.203,8.682c9.273,4.414,16.034-0.896,23.797-2.67
	c5.639-1.289,10.808-4.262,10.567-11.826c-0.05-1.582,2.845-3.064,3.676-4.91C557.21,257.296,559.794,252.922,558.651,250.971z
	 M535.342,273.637c-7.192,1.429-13.768-1.139-14.683-5.739c-0.915-4.598,4.179-9.488,11.37-10.918
	c1.799-0.357,3.558,1.131,5.202,1.242c4.926,0.335,8.795,1.047,9.482,4.495C547.63,267.315,542.536,272.205,535.342,273.637z"/>
<path fill-rule="evenodd" clip-rule="evenodd" fill="#126D8F" d="M969.608,95.835c0.098-0.365,0.154-0.554,0.154-0.841
	c-3.35,0.327-6.699,0.683-10.053,0.962c-9.438,0.781-18.875,1.921-28.32,2.006c-0.171,0.001-0.355-0.02-0.547-0.056
	c-2.869,0.394-5.908-0.803-6.372-4.06c-0.099-0.711,0.005-1.408,0.323-1.977c0.95-3,2.961-6.133,5.426-7.886
	c7.672-5.455,16.113-9.832,23.774-15.301c1.731-1.238,2.716-5.547,2.015-7.811c-2.6-8.371-9.094-10.8-15.797-4.478
	c-8.329,7.858-16.483,16.778-21.744,26.799c-7.404,14.108-0.891,23.76,15.109,22.664c11.512-0.79,22.828-4.352,34.207-7.024
	C968.576,98.076,969.323,96.895,969.608,95.835z M946.815,58.914c4.252,1.328,3.452,4.512,3.188,6.107
	c-0.266,1.595-19.657,12.485-19.657,12.485S942.566,57.586,946.815,58.914z"/>
<path fill="#126D8F" d="M900.399,53.438c-6.969,1.663-13.768,4.042-21.333,6.31c0-1.987-0.204-3.026,0.031-3.954
	c3.593-14.353,7.362-28.665,10.761-43.063c1.201-1.919,2.199-4.106,1.972-6.413c-0.171-1.728-1.319-3.187-3.187-3.187
	c-0.463,0-0.934,0.131-1.371,0.345c-0.162,0.014-0.32,0.027-0.48,0.04c-0.617,0.852-1.532,1.617-1.804,2.568
	c-3.069,10.807-5.594,21.792-9.138,32.44c-6.358,19.115-12.795,38.241-20.256,56.94c-0.338,0.843-0.533,1.594-0.664,2.298
	c-0.474,0.375-0.84,0.932-0.972,1.743c-1.042,6.422,3.648,9.296,9.179,10.155c1.115,0.753,4.412,0.836,6.559,0.178
	c0.026-0.002,0.053-0.003,0.076-0.004c0.174,0.035,0.35,0.071,0.541,0.08c11.524,0.564,19.701-8.549,27.406-15.85
	c6.291-5.965,11.68-13.889,13.928-22.494c0.637-1.336,1.255-2.677,1.835-4.002C917.163,59.15,909.55,51.252,900.399,53.438z
	 M868.379,85.081c-0.04-0.45,0.047-0.928,0.3-1.403c0.291-0.55,0.654-1.01,1.049-1.439c3.352-13.414,14.968-17.068,26.678-20.376
	c2.408-0.68,6.097,0.016,7.908,1.575c1.086,0.933,0.607,5.589-0.776,7.161c-0.628,0.713-1.271,1.413-1.903,2.122
	c-2.98,6.635-9.373,13.147-14.117,17.921c-3.885,3.91-9.894,9.765-15.668,10.788l0,0c-0.051,0.009-0.1,0.024-0.149,0.033
	c-0.53,0.085-1.007,0.125-1.464,0.143v0.001c-2.283,0.095-3.691-0.618-4.47-1.833C863.681,96.515,866.112,89.669,868.379,85.081z"/>
</svg>
