<?xml version="1.0" encoding="utf-8"?>
<!-- Generator: Adobe Illustrator 16.0.0, SVG Export Plug-In . SVG Version: 6.00 Build 0)  -->
<!DOCTYPE svg PUBLIC "-//W3C//DTD SVG 1.1//EN" "http://www.w3.org/Graphics/SVG/1.1/DTD/svg11.dtd">
<svg version="1.1" id="Layer_1" xmlns="http://www.w3.org/2000/svg" xmlns:xlink="http://www.w3.org/1999/xlink" x="0px" y="0px"
	 width="1144.605px" height="629.2px" viewBox="0 0 1144.605 629.2" enable-background="new 0 0 1144.605 629.2"
	 xml:space="preserve">
<g>
	<path fill-rule="evenodd" clip-rule="evenodd" fill="#126D8F" d="M898.28,106.417c-3.394-8.917-10.201-13.289-19.584-12.642
		c-16.065,1.108-32.095,2.729-51.627,4.439c5.323-18.335,10.249-35.309,15.308-52.726c-8.934-4.708-11.141,3.158-12.938,8.63
		c-4.431,13.477-7.551,27.382-11.817,40.92c-0.938,2.979-3.977,6.139-6.86,7.51c-10.35,4.927-21.103,9-31.57,13.687
		c-1.873,0.839-3.456,2.326-5.069,3.747c0.188,0.692,0.472,1.295,0.93,1.686c0.741,0.636,1.917,0.897,3.175,1.002
		c11.494-3.458,23.047-6.934,35.172-10.583c-0.525,7.632-0.438,12.939-1.379,18.056c-0.872,4.727-2.848,9.248-4.417,14.103
		c7.196,4.613,12.596,2.419,13.827-6.645c0.9-6.643,1.153-13.374,2.034-20.022c0.965-7.273,8.722-12.154,17.44-11.027
		c8.233,1.066,4.002,7.63,4.883,11.86c0.436,2.098-0.007,4.364,0.144,6.541c0.713,10.435,8.632,17.107,18.421,14.194
		c9.129-2.717,18.198-6.327,26.491-10.974C901.246,122.344,902.438,117.355,898.28,106.417z M886.925,117.998
		c-6.727,5.063-14.558,8.663-21.981,12.803c-7.074-0.877-10.392-4.014-9.428-9.63c1.075-6.297,2.111-13.912,6.145-18.052
		c4.679-4.805,20.184-1.651,24.494,4.023C888.088,109.687,888.596,116.742,886.925,117.998z"/>
	<path fill-rule="evenodd" clip-rule="evenodd" fill="#126D8F" d="M647.58,352.343c-4.915-0.941-9.802-2.504-14.748-2.721
		c-31.608-1.387-63.272-4.072-94.831-3.204c-30.04,0.827-60.118,4.453-89.918,8.687c-37.397,5.313-74.517,12.566-111.796,18.754
		c-3.124,0.518-6.536-0.696-9.813-1.104c-0.077-1.563-0.154-3.129-0.229-4.693c24.975-5.479,49.782-11.969,74.969-16.179
		c31.189-5.211,62.603-9.505,94.086-12.442c47.432-4.426,94.964-5.851,141.959,4.788c3.956,0.896,7.609,3.115,11.404,4.721
		C648.302,350.08,647.941,351.212,647.58,352.343z"/>
	<path fill-rule="evenodd" clip-rule="evenodd" fill="#126D8F" d="M530.061,20.861c0.311,3.805,1.572,7.822,0.779,11.38
		c-5.303,23.779-11.078,47.449-16.593,71.179c-0.517,2.225-0.294,4.621-0.512,8.75c9.101-8.169,16.735-15.211,24.591-21.993
		c3.76-3.245,7.589-6.835,12.04-8.73c4.225-1.799,10.606-3.618,13.632-1.677c2.903,1.861,4.477,8.937,3.554,13.027
		c-2.639,11.693-6.522,23.146-10.529,34.479c-3.398,9.615-3.775,9.481,4.702,17.234c-4.561,2.408-8.818,6.632-12.211,6.024
		c-6.721-1.204-6.33-7.79-4.801-12.998c3.398-11.579,7.543-22.938,11.032-34.492c1.265-4.195,1.527-8.694,2.551-14.888
		c-15.649,6.261-25.624,16.025-33.933,27.138c-6.83,9.135-11.486,19.868-17.975,29.295c-2.551,3.708-7.459,5.796-11.295,8.623
		c-1.864-2.629-3.88-5.168-5.502-7.939c-0.533-0.91-0.57-2.902,0.055-3.583c12.838-13.996,11.605-32.858,16.785-49.415
		c5.629-17.985,8.793-36.73,13.43-55.042c1.416-5.596,4.144-10.858,6.273-16.275C527.441,20.925,528.752,20.894,530.061,20.861z"/>
	<path fill-rule="evenodd" clip-rule="evenodd" fill="#126D8F" d="M56.726,72.888c-11.973,4.492-21.938,8.538-32.119,11.935
		c-6.038,2.014-12.577,7.508-20.419-1.457c8.563-4.063,15.764-7.982,23.34-10.94c8.663-3.384,17.586-6.171,26.537-8.735
		c7.171-2.055,9.599-6.574,10.109-13.715c0.682-9.525,2.241-19.019,4.035-28.409c0.401-2.1,3.349-3.713,5.121-5.552
		c1.334,2.121,3.865,4.287,3.784,6.35c-0.289,7.439-1.327,14.863-2.333,22.259c-1.32,9.703-0.41,10.653,9.117,7.183
		c14.881-5.419,29.636-11.195,44.453-16.795c2.011-0.759,4.262-2.249,6.076-1.864c3.175,0.671,6.101,2.531,9.131,3.893
		c-2.427,2.39-4.438,5.913-7.349,6.98c-15.896,5.834-31.695,12.51-48.139,16.132C67.62,64.658,67.733,80.96,64.478,95.619
		c-3.625,16.322-6.443,32.824-9.872,49.193c-0.544,2.6-1.96,5.451-3.873,7.202c-1.726,1.579-4.687,1.809-7.102,2.635
		c-0.183-2.201-0.881-4.505-0.47-6.59c4.168-21.233,8.567-42.42,12.766-63.648C56.513,81.453,56.374,78.351,56.726,72.888z"/>
	<path fill-rule="evenodd" clip-rule="evenodd" fill="#126D8F" d="M183.044,85.414c-4.639,4.66-9.967,8.822-13.768,14.089
		c-6.905,9.563-12.528,20.057-19.441,29.615c-3.396,4.695-8.483,8.167-12.807,12.192c-1.193-0.561-2.39-1.121-3.583-1.681
		c0.748-8.567-0.229-17.749,2.553-25.595c9.519-26.831,12.841-54.835,17.835-82.554c1.224-6.797,4.279-12.556,13.358-13.981
		c-5.089,28.687-9.975,56.228-15.268,86.069c9.951-9.408,18.321-17.399,26.786-25.289c3.794-3.538,8.274-9.382,13.255-4.801
		c3.33,3.062,5.099,10.162,4.311,14.916c-2.225,13.413-6.143,26.545-9.35,39.799c-0.429,1.771-0.24,3.768-0.969,5.372
		c-1.086,2.386-2.735,4.517-4.144,6.757c-2.088-2.814-6.313-5.992-5.907-8.383c2.325-13.691,5.769-27.192,8.776-40.769
		c0.305-1.371,0.231-2.828,0.334-4.245C184.358,86.421,183.701,85.917,183.044,85.414z"/>
	<path fill-rule="evenodd" clip-rule="evenodd" fill="#126D8F" d="M265.619,138.733c-2.742-4.016-4.438-6.502-6.059-8.877
		c-9.171,3.093-17.788,6.674-26.744,8.87c-15.163,3.715-24.67-6.563-21.066-21.769c4.213-17.778,16.298-30.508,27.986-43.338
		c1.433-1.571,7.978-0.882,10.078,1.034c4.891,4.467,5.244,11.102,0.867,16.027c-7.404,8.328-15.113,16.668-23.97,23.299
		c-4.44,3.325-8.017,6.328-4.943,10.504c2.325,3.159,9.012,6.285,12.126,5.107c10.016-3.789,19.383-9.386,28.805-14.636
		c19.782-11.025,33.11-28.801,47.357-45.622c0.853-1.005,3.028-0.892,4.586-1.298c-0.15,1.591,0.243,3.54-0.532,4.724
		c-12.372,18.914-24.729,37.841-37.521,56.473C274.121,132.83,269.826,135.173,265.619,138.733z"/>
	<path fill-rule="evenodd" clip-rule="evenodd" fill="#126D8F" d="M470.688,496.37c-0.715,0.227-1.251,0.605-1.662,1.059
		c-1.021,0.262-2.127,0.675-3.345,1.239c-0.735,0.341-1.488,0.646-2.241,0.953c-0.614-0.17-1.329-0.142-2.127,0.186
		c-6.935,2.846-14.189,4.287-21.503,5.494c4.568-14.632,8.543-27.472,12.586-40.271c2.043-6.458,3.633-13.153,6.511-19.226
		c2.751-5.814,0.545-7.849-5.884-9.557c-2.181,4.88-4.821,9.732-6.563,14.885c-3.331,9.853-8.782,27.694-14.606,44.904
		c-1.494,4.414-3.099,8.853-6.315,11.652c-4.447,0.854-8.848,1.912-13.146,3.422c-0.936-0.432-2.065-0.438-3.228,0.323
		c-1.321,0.866-2.085,1.558-2.906,2.909c-1.291,2.126-0.032,4.809,2.242,5.51c4.771,1.473,9.166,0.542,13.511-0.848
		c0.096,0.03,0.177,0.05,0.275,0.079c-4.887,10.938-9.892,21.179-13.907,31.795c-0.033,0.086-0.034,0.183-0.062,0.271
		c-1.599,2.096-1.975,4.892-0.617,7.437c0.947,1.778,2.725,2.633,4.642,2.838c2.162,0.233,3.891-1.434,5.079-2.981
		c0.867-1.131,0.639-2.708-0.111-3.884c4.564-9.946,8.429-20.213,12.629-30.328c3.606-8.681,8.992-10.859,19.756-7.568
		c-1.705,3.966-4.896,7.961-4.702,11.785c0.253,5.012,1.827,11.71,5.335,14.315c3.557,2.644,10.634,2.591,15.258,1.027
		c2.973-1.005,6.914-5.742,6.367-8.684c-0.547-2.94-1.889-3.002-2.834-3.566c-1.11,0.865-2.102,2.153-3.354,2.505
		c-2.353,0.657-6.146,2.455-8.535,0.601c-2.388-1.855-1.888-6.057-0.872-8.125c0.613-1.247,1.297-2.472,2.034-3.674
		c5.666,0.089,10.94-0.951,16.163-3.39c4.095-1.914,10.479-6.131,12.256-10.479C490.95,498.836,478.691,493.807,470.688,496.37z
		 M475.596,509.833c-3.425,2.774-7.162,4.347-11.164,5.058c0.534-0.591,1.059-1.2,1.611-1.766c3.596-3.676,8.082-6.485,12.286-9.633
		C482.691,504.722,477.179,508.551,475.596,509.833z"/>
	<path fill-rule="evenodd" clip-rule="evenodd" fill="#126D8F" d="M809.497,306.852c11.637-6.909,23.257-13.843,34.913-20.719
		c5.847-3.446,11.667-6.963,17.703-10.045c1.482-0.756,3.774,0.066,5.693,0.161c-0.69,1.884-0.825,4.53-2.172,5.519
		c-4.917,3.6-10.498,6.303-15.355,9.97c-14.016,10.577-27.709,21.58-41.742,32.133c-3.486,2.619-7.784,4.163-11.707,6.203
		c-0.879-0.579-1.758-1.155-2.638-1.734c0.815-8.892,1.629-17.783,2.567-28.034c-2.856,1.659-5.124,2.481-6.74,3.999
		c-10.772,10.126-21.263,20.556-32.22,30.475c-1.846,1.67-7.411,2.574-7.976,1.705c-1.815-2.796-3.329-6.82-2.745-9.958
		c2.462-13.2,5.629-26.274,8.772-39.337c0.727-3.007,1.759-6.479,3.87-8.381c1.032-0.929,6.368,0.571,7.105,2.185
		c1.32,2.882,1.28,6.808,0.653,10.074c-1.527,7.967-3.72,15.808-5.645,23.698c0.965,0.537,1.932,1.071,2.897,1.608
		c7.704-6.418,15.479-12.753,23.088-19.285c4.474-3.839,8.375-8.415,13.131-11.83c2.572-1.848,6.398-1.951,9.66-2.84
		c0.143,3.048,0.795,6.181,0.31,9.126c-0.78,4.72-2.312,9.316-3.528,13.966C808.095,305.957,808.797,306.405,809.497,306.852z"/>
	<path fill-rule="evenodd" clip-rule="evenodd" fill="#126D8F" d="M336.283,496.618c-9.609,7.296-18.789,15.156-28.215,22.7
		c-4.629,3.706-9.466,7.158-14.205,10.723c-2.463,2.125-3.401,0.562-2.517-1.683c1.781-5.031,3.966-9.966,5.186-15.13
		c0.688-2.926,2.992-7.938-0.396-9.357c-3.175-0.812-6.936,1.52-9.294,3.562c-9.092,7.874-17.722,16.28-27.099,25.024
		c-2.094,1.273-1.247-1.95-1.197-3.014c0.516-11.126,1.505-22.242,1.582-33.366c0.021-2.993-0.604-9.008-4.03-9.008
		c-3.761,1.042-4.552,4.195-4.859,6.548c-1.967,15.126-3.827,30.302-4.654,45.519c-0.051,0.938-0.068,5.881,0.499,7.408
		c0.798,2.137,2.397,3.589,4.482,4.368c0.072,0.149,0.155,0.3,0.224,0.45c0.155-0.071,0.32-0.135,0.479-0.203
		c3.97,1.091,10.953-5.129,11.258-5.404c5.148-4.658,9.271-10.451,14.803-16.906c1.331,5.169,2.251,8.383,2.978,11.64
		c2.115,9.464,5.825,10.855,13.399,4.325c6.785-5.85,12.872-12.51,19.655-18.366c9.171-7.919,18.881-15.222,27.941-23.26
		c1.674-1.487,4.411-6.021,1.967-7.903C342.025,493.91,338.186,495.173,336.283,496.618z"/>
	<path fill-rule="evenodd" clip-rule="evenodd" fill="#126D8F" d="M635.709,268.465c-3.221,0.036-6.406,0.196-9.53,0.569
		l0.278-0.328c-0.17,0.009-0.346,0.013-0.513,0.024c-1.266,0.452-2.622,0.786-4.062,1.005c-0.619,0.253-1.223,0.491-1.777,0.674
		c-1.643,0.539-3.238,0.843-4.852,0.931c-0.113,0.092-0.229,0.183-0.342,0.275c-3.202,1.164-6.287,2.725-9.217,4.831
		c-3.883,2.79-8.653,5.514-12.195,9.112c1.646-2.691,3.475-5.305,5.521-7.841c3.761-4.657-2.83-11.334-6.629-6.628
		c-4.594,5.691-8.5,11.633-11.401,18.091c-0.435-0.117-0.864-0.218-1.297-0.322c-0.681-1.34-1.999-2.322-3.985-2.267
		c-4.65,0.126-8.918,1.83-13.048,3.973c-0.142,0.039-0.281,0.081-0.425,0.118c-9.189,4.59-19.119,9.501-29.654,8.549
		c-1.233-0.11-2.21-0.83-2.66-1.796c-0.076,0.009-0.146,0.015-0.223,0.024c0.037-0.102,0.068-0.196,0.102-0.291
		c-0.248-0.722-0.216-1.553,0.231-2.38c0.448-0.83,0.938-1.482,1.501-2.201c-0.007-0.037-0.007-0.072-0.015-0.108
		c6.629-10.306,22.374-13.068,32.657-17.683c8.299-3.726,18.103-12.401,10.573-21.603c-7.204-8.805-29.479,3.121-35.378,7.933
		c-7.03,5.735-15.816,16.466-17.219,26.663c-0.01,0.02-0.02,0.035-0.027,0.055c-0.765,1.957-1.322,4.072-1.629,6.189
		c-0.189,0.615-0.242,1.187-0.191,1.712c-0.526,7.013,2.106,13.592,10.77,14.046c7.117,0.374,14.008-0.503,20.684-3.016
		c4.146-1.56,8.595-4.656,13.114-7.138c0.954-0.234,1.908-0.469,2.86-0.704c6.391-1.583,8.967-0.85,6.94,6.443
		c-0.635,2.285-0.128,6.189,1.401,7.396c1.441,1.137,5.201,0.302,7.424-0.757c1.4-0.666,2.752-1.506,4.042-2.442
		c0.575-1.176,1.301-2.309,2.161-3.363c0.232-0.29,0.408-0.507,0.531-0.658c0.293-0.394,0.588-0.788,0.878-1.185
		c0.623-0.854,1.243-1.717,1.884-2.56c1.855-2.439,3.682-5.108,5.949-7.21c0.578-0.537,1.17-1.053,1.771-1.551
		c0.91-1.397,2.103-2.611,3.584-3.522c0.146-0.165,0.274-0.346,0.424-0.507c3.474-3.745,7.535-6.44,12.059-8.081
		c0.994-0.392,2.023-0.738,3.135-0.982c4.955-1.563,10.145-2.052,15.793-2.114C641.751,277.772,641.758,268.398,635.709,268.465z
		 M549.871,265.389c4.158-2.473,8.941-4.007,13.654-4.983c8.975-1.86,0.828,3.73-2.373,5.457
		c-7.279,3.928-15.708,6.334-23.156,9.989C541.908,271.242,546.664,267.298,549.871,265.389z"/>
	<path fill-rule="evenodd" clip-rule="evenodd" fill="#126D8F" d="M957.191,510.381c-0.673-0.897-1.348-1.795-2.02-2.692
		c-5.027,2.37-12.024,2.69-16.942,5.268c-8.401,4.404-13.866,8.029-23.404,9.179c-2.939,0.355-1.231-6.027-4.683-7.126
		c-1.117-0.354-7.648,7.268-9.086,7.833c-6.351,2.495-14.671,7.76-22.859,10.985c-12.535,4.937-21.046,4.402-34.481,5.174
		c-6.946,0.399-8.617-3.541-3.3-9.443c5.562-6.17,11.832-11.144,18.925-15.218c6.432-3.693,13.539-6.648,21.415-9.085
		c2.522-3.156-5.598-2.866-7.359-2.589c-17.975,2.823-33.049,11.387-43.867,25.82c-6.742,8.996-2.172,18.578,9.387,19.39
		c10.346,0.727,21.004-0.916,31.332-2.652c9.021-1.516,15.895-8.375,23.671-10.483c0.104,0.192,0.196,0.363,0.298,0.552
		c-0.078,0.165-0.143,0.336-0.206,0.508c-2.509,3.84-0.786,10.422,5.214,10.422c1.991,0,3.497-0.736,4.549-1.849
		c3.35-3.554,17.907-16.99,23.855-19.166c5.949-2.176,9.691-3.407,9.704-2.176c0.769,0.403,1.309,1.262,1.71,2.313
		c-0.059,0.088-0.134,0.141-0.184,0.247c-0.818,1.769-12.707,18.617-13.324,20.464c-0.345,1.027,0.39,1.972,1.309,2.305
		c4.282,1.561,8.348,1.025,10.842-3.051c2.203-3.6,13.3-23.531,15.992-26.821c0.406-0.495,0.508-1.046,0.422-1.553
		C955.139,514.875,956.144,512.7,957.191,510.381z"/>
	<path fill-rule="evenodd" clip-rule="evenodd" fill="#126D8F" d="M990.96,301.426c-1.261,0.211-2.416,0.679-3.437,1.322
		c-2.852,0.961-5.597,3.045-7.354,5.428c-1.184,0.765-2.373,1.518-3.574,2.255c-4.166,1.688-8.301,3.477-12.591,4.749
		c-6.842,2.029-13.864,3.098-16.293-6.202c0.341-0.546,0.54-1.226,0.494-2.06c-0.166-3.089,0.607-5.332,2.652-7.661
		c3.176-3.618-2.108-8.945-5.304-5.303c-2.052,2.339-3.526,4.812-4.287,7.564c-2.764,4.49-3.731,11.964-0.71,16.471
		c0.167,0.51,0.369,0.994,0.66,1.423c6.506,9.637,17.09,5.186,27.421,4.29c-1.245,4.583-2.074,8.136-3.178,11.598
		c-8.991,28.24-18.197,56.411-26.884,84.743c-1.284,4.182-0.178,9.097-0.178,13.672c0.969,0.266,1.938,0.53,2.91,0.793
		c1.819-2.193,4.564-4.11,5.311-6.625c5.358-17.992,9.114-36.557,15.702-54.067c7.64-20.305,10.807-43.055,28.447-58.7
		c0.11-0.097,0.191-0.229,0.28-0.35c2.622-1.776,4.16-4.499,4.309-7.863c0.082-0.278,0.159-0.562,0.214-0.864
		C996.106,303.069,993.898,300.936,990.96,301.426z"/>
	<path fill-rule="evenodd" clip-rule="evenodd" fill="#126D8F" d="M315.457,119.289c1.057,8.004,5.562,11.312,15.863,9.095
		c11.193-2.41,22.113-6.094,33.135-9.288c2.796-0.811,5.52-1.869,9.485-3.23c-0.711,2.727-0.656,4.441-1.32,4.789
		c-15.539,8.176-30.257,18.586-49.157,17.517c-14.827-0.838-23.491-14.333-17.271-27.816c7.309-15.839,19.463-27.346,34.564-35.481
		c2.957-1.595,9.457-1.005,11.49,1.195c2.473,2.679,3.997,9.252,2.382,12.188C346.192,103.589,331.147,111.045,315.457,119.289z
		 M323.865,99.782c0.834,1.065,1.668,2.131,2.503,3.197c5.208-3.965,10.416-7.929,15.625-11.893
		c-0.948-1.205-1.896-2.41-2.846-3.614C334.054,91.576,328.959,95.679,323.865,99.782z"/>
	<path fill-rule="evenodd" clip-rule="evenodd" fill="#126D8F" d="M1019.833,478.882c5.323-3.479,13.097-1.835,18.937-3.629
		c6.609-2.03,10.408-4.867,12.678-11.506c4.961-14.502,10.771-28.715,16.322-43.279c6.938,5.962,7.315,7.091,4.078,16.048
		c-4.159,11.501-8.551,22.915-13.408,35.879c5.359-0.269,16.062-5.227,17.479-2.414c1.417,2.812-2.931,9.189-5.932,9.359
		c-2.998,0.17-16.709,2.213-16.709,2.213s-5.014,14.383-7.25,22.904c-3.605,13.74-6.995,27.56-11.319,41.077
		c-1.085,3.387-6.432,8.589-8.019,8.011c-3.953-1.437-3.252-3.724-6.326-7.103c-0.555-0.61,0.607-3.928,0.808-3.911
		c2.626,0.216,1.466-1.071,5.827-0.24c4.95-18.827,9.999-38.035,15.84-60.258c-7.173,2.174-17.807,3.479-20.092,2.902
		C1020.459,484.357,1020.304,479.673,1019.833,478.882z"/>
	<path fill-rule="evenodd" clip-rule="evenodd" fill="#126D8F" d="M194.528,276.346c-11.703-1.916-19.663,5.252-27.342,12.036
		c-5.768,5.092-10.509,11.371-15.455,17.332c-0.939,1.129-0.694,3.242-0.995,4.901c1.625,0.009,3.628,0.648,4.813-0.067
		c10.821-6.537,21.429-13.43,32.285-19.902c1.952-1.163,5.442-1.942,6.993-0.959c1.549,0.98,2.476,4.554,2.103,6.718
		c-4.192,24.317-5.829,23.129,17.833,28.066c0.157,0.833,0.316,1.668,0.476,2.501c-4.6,0.706-9.423,2.602-13.742,1.797
		c-4.751-0.886-10.285-3.247-13.178-6.825c-3.006-3.715-3.257-9.655-4.842-15.062c-10.876,5.134-21.206,10.426-31.907,14.81
		c-3.189,1.305-9.371,1.5-10.731-0.343c-2.131-2.887-3.047-8.792-1.486-11.937c9.706-19.576,24.938-34.022,44.744-43.124
		C191.316,262.97,195.979,267.999,194.528,276.346z"/>
	<path fill-rule="evenodd" clip-rule="evenodd" fill="#126D8F" d="M966.108,537.14c-2.232,10.269-10.073,20.539-12.335,30.8
		c-1.018,4.616,1.736,12.682-6.119,11.913c-7.367-0.721-6.455-7.912-4.572-13.328c3.906-11.234,13.973-22.283,18.021-33.469
		c0.82-2.265,1.381-4.836,1.225-7.211c5.709-15.832,5.709-15.832,14.235-17.353c8.608-1.067,17.192-2.354,25.821-3.177
		c7.393-0.705,13.109,2.73,15.374,9.605c2.19,6.647-0.089,14.66-6.981,17.567c-10.166,4.287-20.055,10.077-30.87,9.991
		c-3.13-0.026-7.214-2.032-10.873-3.209C968.058,538.561,967.084,537.85,966.108,537.14z M1010.01,519.371
		c-12.885-12.309-33.866-5.424-38.586,9.908C987.184,538.042,1010.639,530.243,1010.01,519.371z"/>
	<path fill-rule="evenodd" clip-rule="evenodd" fill="#126D8F" d="M879.807,310.653c10.366-6.916,20.732-13.834,31.098-20.75
		c0.83,0.633,1.657,1.269,2.484,1.903c-0.611,3.376-0.962,6.828-1.898,10.111c-1.186,4.155-3.113,8.103-4.249,12.267
		c-2.97,10.873-0.063,14.13,11.009,12.806c1.421-0.168,2.879-0.021,4.77-0.021c-6.434,8.48-15.01,10.897-20.121,4.318
		c-4.295-5.53-5.33-13.592-7.892-20.77c-7.663,4.18-15.417,8.521-23.288,12.645c-2.992,1.568-6.17,3.349-9.408,3.698
		c-2.668,0.287-7.255-0.702-7.936-2.37c-1.033-2.534-0.559-7.357,1.274-9.089c7.439-7.03,15.506-13.43,23.603-19.724
		c8.311-6.459,16.728-12.828,25.529-18.579c2.662-1.74,6.826-1.87,10.151-1.471c0.916,0.11,2.538,5.477,1.594,7.204
		c-1.265,2.312-4.644,3.548-7.235,5.041c-10.713,6.169-21.473,12.259-32.214,18.378
		C877.987,307.718,878.896,309.185,879.807,310.653z"/>
	<path fill-rule="evenodd" clip-rule="evenodd" fill="#126D8F" d="M439.826,261.945c-18.686,6.33-34.314,17.301-45.876,33.386
		c-0.423,0.592-0.692,1.295-0.911,2.035c-0.606,0.569-1.04,1.299-1.251,2.158c-1.155,1.818-1.577,3.942-1.229,6.438
		c0.263,1.857,2.671,3.668,4.521,3.441l1.495-0.182c1.121,0.15,2.387,0.148,3.833-0.084c10.614-1.705,19.021-9.569,29.671-10.671
		c0.312-0.033,0.598-0.101,0.875-0.179c-0.9,3.094-1.625,5.545-2.28,8.01c-1.024,3.868-3.592,8.306-2.525,11.511
		c0.173,0.521,0.399,1.034,0.641,1.543c3.254,0.03,6.548-0.302,8.425-2.726c-0.048-0.005-0.082-0.031-0.136-0.033
		c-0.69-0.024-0.749-0.2-0.904-0.707c-0.092-0.297-0.114-0.652-0.119-1.015c0.416-1.28,1.024-2.741,1.806-4.46
		c2.42-5.336,4.838-10.868,5.871-16.562c0.558-3.063-1.183-7.131-3.175-9.774c-0.76-1.011-5.351,0.15-7.783,1.238
		c-7.672,3.432-15.15,7.297-25.027,12.133c9.206-16.428,32.124-28.625,41.37-24C449.554,264.548,446.635,259.638,439.826,261.945z"
		/>
	<path fill-rule="evenodd" clip-rule="evenodd" fill="#126D8F" d="M508.605,267.399c-2.949,0.746-5.832,2.119-8.468,3.679
		c-7.216,4.275-14.315,8.771-21.562,13.264c0.506-1.375,0.814-2.814,0.881-4.313c0.227-5.164-6.559-5.883-8.717-2.24
		c-1.102,0.581-2.037,1.136-2.43,1.949c-4.99,10.378-9.863,20.827-14.242,31.471c-0.598,1.458,1.299,5.354,2.829,5.896
		c1.706,0.604,5.021-0.705,6.408-2.269c6.796-7.661,13.685-15.332,19.581-23.678c6.102-8.637,14.762-11.197,27.125-14.242
		c-2.678,7.292-4.604,12.065-6.184,16.951c-1.896,5.859-3.913,11.743-4.971,17.774c-0.101,0.579,0.143,1.216,0.54,1.882
		c0.271,1.438,1.134,2.734,2.586,3.334c0.245,0.312,0.479,0.621,0.68,0.923c0.235-0.208,0.485-0.409,0.745-0.607
		c0.143,0.011,0.271,0.043,0.425,0.043c3.217,0,4.703-2.656,4.497-5.14c2.846-7.13,5.267-14.442,7.57-21.771
		c1.461-4.655,3.044-9.434,3.381-14.24C519.77,269.104,515.312,265.704,508.605,267.399z"/>
	<path fill-rule="evenodd" clip-rule="evenodd" fill="#126D8F" d="M337.149,295.644c-3.168-3.719-7.619-10.338-6.264-13.014
		c2.222-4.393,8.313-8.273,13.447-9.456c8.271-1.907,16.756-2.898,25.139-3.884c0.157-0.253,0.308-0.51,0.436-0.775
		c0.882-1.8,0.739-3.646,0.165-5.438c-12.082-4.183-24.511,0.031-36.626,4.932c-14.202,5.744-16.584,16.015-7.229,27.97
		c6.018,7.692,12.593,14.951,19.266,22.812c-2.236,2.486-5.188,3.454-8.491,3.833c-7.643-1.154-15.139-2.489-22.048-6.328
		c-5.289-2.941-10.017,5.158-4.731,8.093c1.308,0.727,2.632,1.361,3.965,1.946c-0.07,0.052-0.139,0.121-0.209,0.174
		c4.507,0.634,8.856,1.923,13.443,2.731c3.047,0.536,6.062,0.887,9.078,1.129c0.339-0.138,0.705-0.207,1.088-0.169
		c2.37,0.231,4.602-0.238,6.888-0.8c0.082-0.172,0.181-0.339,0.244-0.519c2.098-0.437,4.181-0.923,6.227-1.528
		c8.753-2.595,9.092-9.232,2.332-16.317C348.144,305.664,341.937,301.271,337.149,295.644z"/>
	<path fill-rule="evenodd" clip-rule="evenodd" fill="#126D8F" d="M529.639,604.434c0.772,0.471,1.998,0.77,2.24,1.43
		c2.059,5.579,3.437,12.069,11.714,10.062c8.5-2.06,18.902-2.199,18.967-14.925c0.091-17.941-0.417-35.894,0.104-53.818
		c0.239-8.249,2.069-16.496,3.776-24.619c0.331-1.567,2.15-3.801,5.274-3.801c3.532,0,3.475,3.996,3.045,5.254
		c0.057,24.862,1.637,45.182-1.216,67.662c-0.628,4.942-1.116,9.94-2.257,14.774c-3.623,15.355-21.645,23.812-35.722,16.954
		C528.688,620.059,525.824,611.088,529.639,604.434z"/>
	<path fill-rule="evenodd" clip-rule="evenodd" fill="#126D8F" d="M628.998,109.894c-0.109-3.185-1.914-5.781-5.334-6.061
		c-1.871-0.152-3.842,0.912-5.318,2.191c-1.342,0.463-2.769,1.118-4.299,2.015c-3.16,1.855-5.833,3.843-9.139,6.137
		c-3.308,2.295-4.643,0.207-1.749-2.786c2.893-2.995,15.856-17.945,29.503-19.364c-5.111-5.654-17.869-5.531-23.334-0.77
		c-10.93,9.52-19.688,19.91-25.088,29.715c-1.261,2.289-2.342,7.169-0.967,9.081c1.403,1.954,6.301,2.977,8.934,2.129
		c5.201-1.675,9.979-4.788,14.781-7.562c4.211-2.434,8.221-5.218,13.337-8.5c0.9,3.498,1.727,6.7,2.514,9.758
		c-0.059,0.207-0.098,0.431-0.073,0.694c0.289,3.023,0.452,6.235,2.462,8.566c0.022,0.086,0.043,0.174,0.067,0.262
		c0.061-0.005,0.122-0.011,0.181-0.017c0.209,0.218,0.406,0.44,0.652,0.639c0.856,0.702,2.38,0.804,2.944-0.379
		c0.099-0.208,0.162-0.414,0.21-0.617c0.255-0.024,0.511-0.047,0.768-0.071c0.086-6.048,0.378-12.102,0.218-18.145
		C630.193,114.002,629.76,111.693,628.998,109.894z"/>
	<path fill-rule="evenodd" clip-rule="evenodd" fill="#126D8F" d="M643.043,513.522c-2.263,2.081-7.937,0.222-11.386,1.254
		c-10.559,3.16-18.322,11.26-27.438,16.745c-2.188,1.581-1.874,3.456,1.274,2.507c7.968-4.297,15.799-8.884,23.982-12.717
		c2.528-1.185,7.22-1.547,8.741-0.057c1.628,1.592,1.774,6.312,0.646,8.795c-3.218,7.103-7.769,18.827-11.504,21.092
		c-3.272-0.614-3.272-0.614,0.373-18.712c-5.152,2.55-9.386,4.745-13.702,6.762c-5.062,2.364-10.026,5.541-15.366,6.482
		c-3.065,0.54-7.384-2.027-9.946-4.455c-1.132-1.073-0.301-6.607,1.347-7.841c11.03-14.131,25.556-21.054,38.768-27.129
		C635.158,504.841,640.686,505.646,643.043,513.522z"/>
	<path fill-rule="evenodd" clip-rule="evenodd" fill="#126D8F" d="M762.55,509.917c-8.019-2.439-23.368,10.219-28.885,14.872
		c-5.068,4.276-4.442,5.812,2.003,3.878c6.006-1.802,11.834-7.006,18.069-9.802c3.229-1.45,8.588-3.982,10.786-1.904
		c2.199,2.078-0.055,8.605-1.218,12.575c-1.217,4.16-3.218,13.181-6.776,13.686c-3.557,0.505-3.899-6.742-6.289-10.872
		c-4.642,1.886-10.164,4.391-15.868,6.354c-3.73,1.283-7.733,2.479-11.612,2.473c-6.143-0.011-8.681-5.299-5.302-10.354
		c8.517-12.748,20.593-21.495,33.779-28.644C758.014,498.509,762.325,502.582,762.55,509.917z"/>
	<path fill-rule="evenodd" clip-rule="evenodd" fill="#126D8F" d="M780.343,540.974c6.138-1.666,14.323-1.562,16.616-5.186
		c2.136-3.38-2.422-10.657-3.273-16.331c-2.127-14.164,3.627-26.685,21.723-22.452c3.196,0.749,7.887-0.551,9.756,1.524
		c1.869,2.076,1.555,5.508-1.57,6.76c-3.123,1.253-5.132-2.109-8.718-1.999c-10.532,0.324-13.676,5.158-10.729,18.438
		c0.726,3.268,2.755,6.226,3.938,9.417c3.176,8.564,0.509,13.288-9.547,17.229C789.683,551.845,783.679,549.372,780.343,540.974z"/>
	<path fill-rule="evenodd" clip-rule="evenodd" fill="#126D8F" d="M676.98,537.649c7.992-7.19,15.896-14.484,24.042-21.497
		c2.02-1.741,4.136-3.825,7.262-3.825c3.437,1.496,0.716,6.363-0.616,8.483c-7.44,11.842-17.572,20.811-30.377,26.751
		c-7.646,3.548-11.541-0.517-13.236-6.867c-1.827-6.85-2.471-14.043-3.239-21.127c-0.154-1.41,1.157-3.873,2.345-4.295
		c1.315-0.469,4.121,0.361,4.766,1.488c1.479,2.589,2.158,5.673,2.946,8.615c0.984,3.681,1.75,7.419,2.612,11.133
		C674.468,537.249,675.154,539.041,676.98,537.649z"/>
	<path fill-rule="evenodd" clip-rule="evenodd" fill="#126D8F" d="M697.118,77.481c-1.161-0.978-2.31-1.881-3.495-2.686
		c-1.23-0.025-2.46-0.055-3.689-0.068c-0.099-0.009-0.187-0.031-0.293-0.033c-2.626-0.026-5.245-0.055-7.852-0.069
		c-8.397-0.046-13.712,3.82-23.061,13.694c-3.244,4.152-2.792,13.83-2.81,14.065c2.648,6.436,7.104,12.695,4.223,18.964
		c-2.468,5.368-10.598,2.936-15.281,1.015c-1.143,0.722-1.941,1.952-1.905,3.229c-0.487,1.514-0.219,3.331,1.354,4.528
		c8.119,6.176,19.704,5.361,25.666-3.415c2.193-3.227,2.625-11.646,2.7-11.73c-0.104-0.282-0.18-0.575-0.222-0.875
		c-0.498-1.369-1.131-2.775-1.834-4.22c-0.269-0.463-0.542-0.923-0.868-1.346c-1.494-2.918-2.397-5.259-2.673-7.32
		c-0.655-2.862-0.512-5.726,1.347-8.489c4.226-6.282,11.734-10.381,19.34-10.399c0.44,0,0.827,0.075,1.191,0.183h4.747
		C696.684,82.507,697.809,79.668,697.118,77.481z"/>
	<path fill-rule="evenodd" clip-rule="evenodd" fill="#126D8F" d="M371.294,499.557c-7.378,5.039-14.665,10.216-22.166,15.068
		c-0.569,0.368-1.158,0.711-1.761,1.042c0.512-2.141-0.645-4.745-3.496-4.745c-1.593,0-2.658,0.813-3.201,1.903
		c-0.425,0.381-0.788,0.861-1.039,1.478c-4.189,10.301-10.531,17.296-10.447,29.121c0.018,2.259,1.637,3.448,3.366,3.596
		c1.086,0.463,2.39,0.438,3.449-0.081c0.063,0.06,0.115,0.126,0.18,0.187c0.117-0.172,0.237-0.342,0.355-0.513
		c0.572-0.417,1.016-1.01,1.235-1.782c9.132-13.132,19.174-25.342,31.257-35.711c7.065-6.062,16.127-6.062,14.757-9.741
		C379.195,492.736,375.252,496.856,371.294,499.557z"/>
	<path fill-rule="evenodd" clip-rule="evenodd" fill="#126D8F" d="M405.768,487.184c-6.008,2.285-16.456,0.676-12.568-8.634
		c5.447-3.229,9.455-4.015,12.692-2.363C408.056,477.29,409.021,485.948,405.768,487.184z"/>
	<g>
		<path fill-rule="evenodd" clip-rule="evenodd" fill="#126D8F" d="M390.88,515.068c-1.128-0.415-3.522-7.59-5.726-5.715
			c-5.614,6.907-9.166,18.086-14.27,25.354c-0.282,0.4-3.86,8.542,0.336,8.556c2.516,0.009,7.058-1.472,7.208-1.759
			c2.19-4.213,1.008-1.461,0.665-0.683C379.537,539.828,382.019,534.318,390.88,515.068z"/>
		<path fill-rule="evenodd" clip-rule="evenodd" fill="#126D8F" d="M379.094,540.82C378.973,541.091,379,541.035,379.094,540.82
			L379.094,540.82z"/>
	</g>
	<path fill-rule="evenodd" clip-rule="evenodd" fill="#126D8F" d="M582.029,500.809c-7.289,2.625-12.817,1.381-13.438-5.015
		c-0.271-2.794,0.821-11.562,4.474-11.032C576.718,485.291,586.199,496.596,582.029,500.809z"/>
	<path fill-rule="evenodd" clip-rule="evenodd" fill="#126D8F" d="M954.678,476.333c-0.819-8.677,17.355-12.601,21.82-6.031
		C974.535,476.331,957.191,482.482,954.678,476.333z"/>
	<path fill-rule="evenodd" clip-rule="evenodd" fill="#126D8F" d="M176.708,494.84c-1.562-2.673-7.325-4.363-11.054-4.041
		c-15.344,1.326-30.629,3.422-45.889,5.567c-5.901,0.829-8.054,0.276-6.153-6.686c4.136-15.152,7.538-30.524,10.618-45.929
		c0.549-2.749-1.893-6.093-3.641-11.144c-2.49,3.699-3.49,4.607-3.783,5.702c-4.21,15.861-8.633,31.676-12.352,47.654
		c-2.26,9.712-7.374,13.515-17.513,14.015c-14.088,0.696-28.587,1.327-41.185,9.188c-2.084,1.3-3.497,3.677-4.904,5.211
		c18.666-2.409,36.05-4.654,53.433-6.899c0.569,1.084,1.136,2.168,1.702,3.252c-2.329,6.11-4.916,12.138-6.868,18.366
		c-0.321,1.02-0.573,2.135-0.722,3.265c-0.119,0.209-0.226,0.432-0.306,0.685c-1.95,6.059-5.731,18.854,2.396,21.832
		c4.066,1.489,6.526-3.164,7.264-6.301c0.424-1.798,0.602-3.624,0.736-5.454c0.858-2.313,1.341-4.891,1.544-6.928
		c0.174-0.364,0.328-0.736,0.447-1.111c1.863-5.844,2.353-12.112,3.92-18.071c2.772-10.54,11.615-14.008,22.323-8.95
		c-1.118,3.492-3.407,7.123-3.056,10.477c0.392,3.706,3.387,9.471,4.948,10.214c10.907,5.193,18.862-1.054,27.994-3.142
		c6.634-1.517,12.716-5.014,12.433-13.913c-0.059-1.86,3.345-3.604,4.324-5.775C175.011,502.282,178.05,497.136,176.708,494.84z
		 M149.283,521.506c-8.462,1.681-16.195-1.341-17.272-6.753c-1.077-5.409,4.915-11.162,13.377-12.844
		c2.116-0.421,4.187,1.33,6.12,1.461c5.797,0.395,10.348,1.231,11.156,5.289C163.739,514.07,157.749,519.821,149.283,521.506z"/>
	<path fill-rule="evenodd" clip-rule="evenodd" fill="#126D8F" d="M1144.902,131.569c0.115-0.43,0.184-0.651,0.183-0.988
		c-3.942,0.384-7.882,0.804-11.83,1.131c-11.101,0.919-22.203,2.26-33.315,2.36c-0.201,0.002-0.418-0.023-0.641-0.066
		c-3.378,0.463-6.954-0.945-7.498-4.775c-0.117-0.837,0.005-1.657,0.378-2.326c1.117-3.528,3.486-7.216,6.383-9.277
		c9.027-6.419,18.957-11.568,27.972-18.002c2.039-1.456,3.195-6.526,2.37-9.188c-3.061-9.847-10.7-12.706-18.585-5.268
		c-9.799,9.243-19.393,19.739-25.582,31.527c-8.711,16.599-1.048,27.954,17.775,26.665c13.54-0.928,26.855-5.12,40.245-8.264
		C1143.687,134.206,1144.566,132.816,1144.902,131.569z M1118.089,88.132c4.999,1.562,4.062,5.309,3.749,7.186
		c-0.312,1.877-23.126,14.689-23.126,14.689S1113.088,86.571,1118.089,88.132z"/>
	<path fill="#126D8F" d="M1063.48,81.691c-8.197,1.958-16.196,4.755-25.099,7.423c0-2.338-0.238-3.56,0.036-4.651
		c4.23-16.886,8.663-33.723,12.66-50.662c1.416-2.257,2.589-4.832,2.322-7.545c-0.201-2.032-1.555-3.75-3.75-3.75
		c-0.546,0-1.099,0.155-1.615,0.407c-0.187,0.015-0.375,0.031-0.564,0.046c-0.725,1.001-1.803,1.903-2.121,3.021
		c-3.612,12.715-6.582,25.64-10.75,38.166c-7.48,22.489-15.052,44.989-23.832,66.988c-0.396,0.992-0.628,1.875-0.781,2.705
		c-0.557,0.441-0.986,1.095-1.143,2.048c-1.226,7.556,4.291,10.938,10.802,11.948c1.308,0.886,5.189,0.984,7.717,0.209
		c0.027-0.002,0.058-0.004,0.085-0.006c0.206,0.042,0.413,0.084,0.641,0.095c13.553,0.665,23.175-10.058,32.238-18.648
		c7.403-7.017,13.74-16.339,16.385-26.463c0.754-1.573,1.478-3.149,2.162-4.709C1083.202,88.411,1074.248,79.121,1063.48,81.691z
		 M1025.805,118.917c-0.043-0.529,0.06-1.091,0.355-1.65c0.346-0.646,0.771-1.188,1.238-1.694
		c3.941-15.782,17.608-20.08,31.384-23.972c2.833-0.801,7.173,0.02,9.304,1.853c1.275,1.099,0.712,6.577-0.914,8.425
		c-0.737,0.838-1.493,1.663-2.235,2.496c-3.513,7.806-11.03,15.467-16.612,21.085c-4.57,4.6-11.641,11.488-18.432,12.691
		c-0.001,0-0.001,0-0.001,0c-0.06,0.011-0.119,0.029-0.178,0.038c-0.62,0.101-1.184,0.146-1.718,0.169
		c-0.003,0-0.004,0.001-0.004,0.001c-2.686,0.112-4.342-0.727-5.255-2.157C1020.281,132.37,1023.144,124.315,1025.805,118.917z"/>
</g>
</svg>
