<?xml version="1.0" encoding="utf-8"?>
<!-- Generator: Adobe Illustrator 16.0.0, SVG Export Plug-In . SVG Version: 6.00 Build 0)  -->
<!DOCTYPE svg PUBLIC "-//W3C//DTD SVG 1.1//EN" "http://www.w3.org/Graphics/SVG/1.1/DTD/svg11.dtd">
<svg version="1.1" id="Layer_1" xmlns="http://www.w3.org/2000/svg" xmlns:xlink="http://www.w3.org/1999/xlink" x="0px" y="0px"
	 width="622.185px" height="65.857px" viewBox="0 0 622.185 65.857" enable-background="new 0 0 622.185 65.857"
	 xml:space="preserve">
<g>
	<path fill-rule="evenodd" clip-rule="evenodd" fill="#126D8F" d="M389.403,35.042c-4.804-2.163-8.189-1.226-11.855,3.017
		c-2.057,2.38-3.146,5.627-6.005,7.235c-1.944,1.095-4.075,3.736-6.067,2.38c-1.47-1-0.377-3.912,0.271-6.059
		c0.827-2.745-0.022-5.354-2.702-6.858c-2.439-1.369-4.39-0.026-6.309,1.447c-2.343,1.799-3.829,4.577-7.25,6.136
		c-0.66-2.132-0.32-4.083-1.848-5.477c-1.951-1.779-3.322-1.722-3.755,0.987c-0.836,5.236-1.547,10.5-2.075,15.776
		c-0.204,2.04-0.631,4.562,2.263,5.396c2.883,0.83,4.314-1.353,5.596-3.199c1.864-2.688,3.26-5.701,5.104-8.406
		c1.043-1.529,1.466-4.465,3.864-3.922c2.645,0.6,1.15,3.345,1.246,5.073c0.441,7.96,1.414,8.501,8.363,4.236
		c0.988-0.606,2.08-1.044,3.074-1.643c1.611-0.97,2.953-0.935,3.366,1.138c0.963,4.834,4.577,5.133,8.41,5.091
		c5.37-0.06,14.286-6.06,14.836-9.941C398.537,43.156,394.556,37.362,389.403,35.042z M382.367,52.689
		c-3.268-0.848-3.75-4-3.857-6.717c-0.119-3.008,4.579-7.018,7.858-6.69c2.45,0.929,5.628,1.883,5.487,5.91
		C391.763,47.88,384.97,53.364,382.367,52.689z"/>
	<path fill-rule="evenodd" clip-rule="evenodd" fill="#126D8F" d="M313.995,33.486c5.204-4.775,10.481-9.474,15.571-14.366
		c1.893-1.819,3.515-2.456,5.473-0.409c2.438,2.549-0.577,3.372-1.657,4.593c-3.612,4.082-8.573,6.75-11.63,11.497
		c-2.909,4.518-2.89,6.053,2.034,8.947c4.025,2.366,8.057,4.587,11.189,8.191c1.079,1.24,2.276,2.198,0.788,3.688
		c-1.422,1.425-2.521-0.08-3.363-0.888c-4.039-3.869-9.33-5.724-13.856-8.805c-4.034-2.746-6.176-2.193-8.387,2.107
		c-0.974,1.893-1.563,3.997-2.191,6.046c-0.363,1.184-0.72,2.369-2.147,2.297c-1.368-0.068-1.783-1.427-2.22-2.439
		c-1.352-3.138-0.261-6.324,0.437-9.317c2.793-11.981,4.661-24.125,6.884-36.208c0.503-2.731,0.438-7.554,3.829-6.999
		c3.913,0.641,2.173,5.16,1.762,8.111c-1.086,7.814-2.351,15.604-3.545,23.402C313.309,33.119,313.652,33.302,313.995,33.486z"/>
	<path fill-rule="evenodd" clip-rule="evenodd" fill="#126D8F" d="M528.221,33.727c2.602-2.042,4.564-3.785,6.723-5.238
		c4.244-2.855,9.225-1.109,10.834,3.728c1.338,4.024,1.49,8.179,0.736,12.312c-0.547,2.993-0.352,5.97-0.361,8.959
		c-0.006,1.366,2.078,3.567-1.025,3.735c-1.979,0.106-3.732-0.902-4.307-3.354c-0.943-4.023-0.379-7.971,0.34-11.879
		c0.594-3.234,1.225-7.425-1.449-8.716c-2.92-1.409-5.494,2.321-7.314,4.692c-2.51,3.269-4.271,7.099-6.604,10.516
		c-1.361,1.992-3.07,4.813-5.879,3.425c-2.459-1.216-2.348-4.352-1.611-6.736c3.865-12.516,5.016-25.711,9.609-38.034
		c0.289-0.772,0.432-1.606,0.777-2.35c0.695-1.501,1.27-3.217,3.586-2.464c2.254,0.732,1.955,2.381,1.525,4.058
		c-1.809,7.043-3.584,14.095-5.508,21.105C527.791,29.317,527.695,31.053,528.221,33.727z"/>
	<path fill-rule="evenodd" clip-rule="evenodd" fill="#126D8F" d="M26.414,50.122c5.037-5.965,6.181-12.582,8.484-18.657
		c0.767-2.023,0.754-5.635,3.607-4.662c2.237,0.764,2.873,3.857,1.749,6.939c-2.377,6.521-4.263,13.223-6.218,19.89
		c-0.438,1.492-1.137,2.736-2.025,3.945c-3.771,5.127-6.99,5.047-9.271-0.831c-1.714-4.418-3.223-3.491-5.647-0.942
		c-1.483,1.56-3.05,3.079-4.765,4.369c-2.859,2.151-6.025,1.241-6.226-2.217c-0.467-8.09-2.282-16.257,0.114-24.314
		c0.548-1.843,0.741-4.981,3.775-4.071c2.543,0.764,2.38,3.421,1.639,5.566c-1.612,4.668,0.995,9.214-0.392,14.377
		c4.001-1.082,4.914-5.381,8.406-5.723C23.606,43.403,25.829,45.419,26.414,50.122z"/>
	<path fill-rule="evenodd" clip-rule="evenodd" fill="#126D8F" d="M513.844,32.179c-1.004,7.74-5.127,13.811-10.344,19.283
		c-1.332,1.399-2.336,0.509-3.266-0.613c-1.916-2.316-3.625-4.722-4.297-7.753c-0.682-3.067-2.244-3.55-4.346-1.12
		c-3.07,3.552-6.809,6.345-10.492,9.165c-3.701,2.834-6.086,2.328-7.459-1.915c-3.002-9.273-0.127-18.258,2.152-27.194
		c0.268-1.048,1.352-2.116,2.719-1.474c1.809,0.851,2.789,2.313,2.336,4.442c-0.822,3.875-1.588,7.764-2.484,11.622
		c-0.641,2.765-1.672,6.558,0.451,7.866c2.336,1.439,4.053-2.388,6.029-3.913c0.906-0.697,1.578-1.7,2.34-2.579
		c5.859-6.757,8.521-6.68,12.908,0.866c1.689,2.905,2.484,2.191,3.938,0.012c1.865-2.797,2.953-5.879,3.748-9.076
		c0.48-1.937,0.65-4.56,3.123-4.236c2.359,0.31,2.932,2.828,2.943,5.121C513.846,31.182,513.844,31.68,513.844,32.179z"/>
	<path fill-rule="evenodd" clip-rule="evenodd" fill="#126D8F" d="M210.914,17.551c0.31,3.37-1.673,8.286,1.188,9.744
		c2.788,1.421,6.38-2.321,9.264-4.273c2.116-1.434,4.188-2.173,6.464-1.7c1.735,0.359,4.298,0.778,3.454,3.686
		c-0.654,2.256-1.508,4.271-4.747,3.813c-8.246-1.161-16.203,5.735-16.692,14.049c-0.233,3.966-1.147,7.886-0.836,11.895
		c0.234,3.012-1.202,4.479-4.159,3.979c-3.261-0.552-3.29-3.301-2.532-5.449c1.243-3.52,1.752-6.983,1.74-10.702
		c-0.012-3.87-1.477-3.855-4.122-2.191c-0.141,0.088-0.279,0.183-0.428,0.256c-2.073,1.018-4.777,3.915-6.299,1.312
		c-1.386-2.371,2.272-4.088,4.277-5.148c6.331-3.348,8.061-8.759,7.932-15.355c-0.068-3.484,0.24-6.975,0.326-10.464
		c0.061-2.465,1.016-4.565,3.635-4.345c2.302,0.194,2.242,2.575,2.153,4.409C211.429,13.22,211.131,15.368,210.914,17.551z"/>
	<path fill-rule="evenodd" clip-rule="evenodd" fill="#126D8F" d="M410.998,47.138c2.498-1.543,3.578-3.601,5.014-5.334
		c3.486-4.206,6.557-3.731,8.893,1.375c0.742,1.62,0.965,4.002,3.176,3.835c1.871-0.142,2.729-2.206,3.508-3.866
		c2.111-4.506,3.865-9.137,4.832-14.039c0.26-1.319,0.494-2.865,2.256-2.75c1.627,0.107,1.869,1.717,2.199,2.935
		c2,7.354-2.254,19.098-8.611,23.12c-2.355,1.49-4.645-0.135-6.762-1.371c-6.639-3.878-6.643-3.87-12.357,1.58
		c-0.604,0.574-1.23,1.122-1.818,1.71c-1.453,1.457-3.059,2.948-5.215,1.881c-1.994-0.986-2.361-3.093-2.23-5.16
		c0.334-5.294,0.616-10.597,1.18-15.868c0.203-1.911,0.799-4.685,3.029-4.55c1.816,0.11,2.621,2.816,2.779,4.704
		c0.234,2.801-0.092,5.646-0.127,8.474C410.73,44.749,410.879,45.685,410.998,47.138z"/>
	<path fill-rule="evenodd" clip-rule="evenodd" fill="#126D8F" d="M110.26,34.58c-1.444-0.421-3.537,0.86-4.209-1.468
		c-0.417-1.444,0.346-2.898,1.723-3.216c9.45-2.175,7.995-10.15,9.01-16.765c0.452-2.951,0.484-5.964,0.841-8.932
		c0.237-1.969,0.653-4.663,3.133-4.132c2.355,0.504,3.404,2.862,2.588,5.576c-1.555,5.166-1.161,10.521-1.549,15.809
		c-0.264,3.592,1.138,3.991,3.93,3.278c2.414-0.617,4.807-1.321,7.225-1.923c1.664-0.413,3.638-0.707,4.374,1.183
		c0.922,2.366-1.535,2.529-2.867,3.2c-3.549,1.786-7.672,1.821-11.218,3.918c-2.543,1.504-3.444,3.22-3.396,6.009
		c0.081,4.659-0.01,9.328-0.222,13.983c-0.071,1.569-0.155,3.742-2.292,3.889c-1.906,0.131-2.729-1.766-3.312-3.285
		c-0.991-2.581-0.748-5.34,0.085-7.858c0.655-1.979,0.53-3.911,0.731-5.876C115.226,34.154,113.259,33.727,110.26,34.58z"/>
	<path fill-rule="evenodd" clip-rule="evenodd" fill="#126D8F" d="M99.062,44.177c-0.108,2.642-0.608,5.26,2.867,6.579
		c1.602,0.608,1.259,2.443,0.283,3.849c-1.101,1.586-2.362,2.264-4.18,1.063c-3.15-2.081-3.851-5.16-3.629-8.647
		c0.081-1.283,0.449-3.095-0.706-3.589c-1.686-0.72-2.507,1.122-3.335,2.3c-2.471,3.513-4.811,7.12-7.359,10.574
		c-0.908,1.23-2.121,3.142-3.98,1.483c-1.441-1.285-4.133-2.264-2.716-5.112c2.092-4.206,2.862-8.746,3.79-13.291
		c0.896-4.386,2.962-4.964,6.294-1.721c1.339,1.305,1.827,1.467,3.541,0.582C96.278,34.97,99.09,36.901,99.062,44.177z"/>
	<path fill-rule="evenodd" clip-rule="evenodd" fill="#126D8F" d="M613.711,54.812c-1.717-3.437-2.793-7.057-4.006-10.67
		c-0.729-2.173-1.477-4.561-3.777-6.197c-4.586-3.263-7.258,0.198-10.578,2.185c-0.896,0.536-2.107,3.525-3.264,1.069
		c-1.881-4-3.449-1.474-4.398,0.043c-5.322,8.52-14.344,10.124-22.898,12.644c-2.668,0.785-4.775-0.181-6.795-2
		c-2.213-1.99-2.129-3.51,0.303-5.099c3.053-1.993,6.014-4.135,9.125-6.029c4.699-2.86,4.996-4.669-0.361-8.889
		c-1.723-1.357-3.705-1.178-5.678-0.434c-5.35,2.016-11.277,10.776-11.197,16.583c0.082,5.909,7.656,11.294,14.615,10.381
		c4.834-0.635,9.225-2.714,13.75-4.336c1.256-0.451,2.172-1.414,3.326,0.312c2.785,4.163,5.674,2.678,8.568-0.035
		c3.039-2.849,4.982-6.695,8.439-9.155c2.402-1.709,4.123-2.293,5.369,1.465c1.191,3.594,3.16,6.947,4.939,10.325
		c0.949,1.805,2.754,2.792,4.609,1.799C615.709,57.751,614.283,55.955,613.711,54.812z M560.398,36.359
		c0.682-1.051,1.883-1.618,2.936-0.825c1.273,0.959,0.945,2.433,0.035,3.464c-1.318,1.493-3.211,2.014-6.123,2.916
		C558.654,39.407,559.445,37.83,560.398,36.359z"/>
	<path fill-rule="evenodd" clip-rule="evenodd" fill="#126D8F" d="M74.616,55.122c-0.683-1.462-2.023-0.444-3.095-0.308
		c-4.993,0.299-7.318-2.334-5.961-7.527c1.391-5.318,3.988-10.589-2.882-14.118c-0.249-0.128-0.334-0.561-0.515-0.838
		c-2.844-4.378-5.319-4.512-8.989-0.547c-3.52,3.804-5.9,8.317-7.927,12.999c-1.331,3.075-2.173,6.253,0.529,9.298
		c2.871,3.236,7.121,3.559,10.01,2.225c3.876-1.789,5.996-0.585,8.682,1.529c2.626,2.067,5.608,3.17,8.496,0.519
		C73.79,57.595,75.308,56.603,74.616,55.122z M53.425,51.781c-2.075,1.021-3.58,1.122-3.472-1.844
		c0.132-3.598,4.021-10.33,7.373-12.816C59.852,44.568,58.592,49.241,53.425,51.781z"/>
	<path fill-rule="evenodd" clip-rule="evenodd" fill="#126D8F" d="M242.204,31.903c-3.739,0.575-7.467,1.368-11.112,2.38
		c-4.349,1.207-8.301,6.674-7.706,10.212c0.708,4.219,4.43,7.064,9.372,7.167c5.105,0.595,17.058-6.54,19.167-9.88
		c0.33-0.521,0.784-1.169,0.72-1.702C252.192,36.375,245.907,31.334,242.204,31.903z M244.776,40.669
		c-3.591,4.095-8.384,5.358-13.78,5.688c1.588-5.554,7.207-9.36,12.359-9.058C246.562,37.487,246.249,38.99,244.776,40.669z"/>
</g>
</svg>
