<?xml version="1.0" encoding="utf-8"?>
<!-- Generator: Adobe Illustrator 16.0.0, SVG Export Plug-In . SVG Version: 6.00 Build 0)  -->
<!DOCTYPE svg PUBLIC "-//W3C//DTD SVG 1.1//EN" "http://www.w3.org/Graphics/SVG/1.1/DTD/svg11.dtd">
<svg version="1.1" id="Layer_1" xmlns="http://www.w3.org/2000/svg" xmlns:xlink="http://www.w3.org/1999/xlink" x="0px" y="0px"
	 width="192.913px" height="372.382px" viewBox="0 0 192.913 372.382" enable-background="new 0 0 192.913 372.382"
	 xml:space="preserve">
<g>
	<path fill="#D7D7D7" d="M92.989,104.741c-0.094,0.382-0.091,0.722-0.059,1.076c0.016,0.176,0.042,0.35,0.078,0.519
		c0.036,0.169,0.076,0.258,0.12,0.389c0.087,0.235,0.199,0.492,0.307,0.683c0.095,0.154,0.196,0.305,0.3,0.45
		c0.225,0.318,0.372,0.439,0.567,0.653c0.344,0.333,0.652,0.574,0.935,0.778c0.562,0.399,1.048,0.676,1.5,0.92
		c0.248,0.13,0.392,0.205,0.701,0.353c0.355,0.17,0.701,0.32,1.035,0.46c0.338,0.121,0.705,0.041,1.035,0.07
		c0.234,0.002,0.459,0.003,0.675,0.004c0.31-0.001,0.595-0.001,0.858-0.002c0.527-0.002,0.967-0.004,1.348-0.006
		c3.983-0.02,7.203-0.229,10.216-0.619c1.507-0.195,2.962-0.436,4.435-0.72c1.555-0.313,3.155-0.636,4.868-0.981
		c0.392-0.932,0.733-1.807,1.01-2.604c-0.672,0.624-1.245,1.12-1.657,1.395c-0.772-0.185-1.126-0.359-1.988-0.523
		c-0.76-0.155-1.502-0.308-2.233-0.458c-1.473-0.284-2.928-0.524-4.435-0.719c-3.013-0.39-6.232-0.6-10.216-0.619
		c-0.591-0.003-1.368-0.006-2.497-0.01h0.002c-0.125-0.064-0.255-0.132-0.39-0.201c-0.188-0.102-0.373-0.212-0.549-0.322
		c0.013-0.104,0.025-0.21,0.035-0.308c0.017-0.191,0.035-0.388,0.053-0.588c0.006-0.136,0.012-0.274,0.019-0.416
		c0.01-0.264,0.021-0.537,0.032-0.819c0.027-0.571,0.027-1.138,0.042-1.752c0.008-1.206,0.016-2.518,0.024-3.881
		c-0.003-2.713-0.035-5.616-0.078-8.285c-0.05-2.667-0.096-5.103-0.13-6.87c-0.016-0.715-0.03-1.294-0.039-1.696
		c1.226,0.001,11.85,0.012,18.056,0.019c0.766-0.001,1.5-0.001,2.174-0.001c0.293,0,0.574-0.001,0.84-0.001
		c0.001,0.743,0.002,1.373,0.003,1.912c0.004,1.157,0.006,1.929,0.008,2.545c0.045,8.99,1.056,14.089,2.925,21.6
		c1.869-7.511,2.88-12.609,2.926-21.6c0.002-1.722,0.006-4.314,0.014-10.34c-0.513,0-4.312-0.003-8.89-0.006
		c-7.447,0.007-20.196,0.018-21.665,0.019c-1.274,0.102-2.85-0.396-2.362,0.883c0.021,0.824,0.035,1.405,0.044,1.813
		c0.02,0.817,0.023,0.945,0.023,0.945s0.087,4.913,0.193,10.862c0.021,2.648,0.043,5.527,0.064,8.205
		c-0.008,1.329-0.015,2.607-0.022,3.783c-0.013,0.576-0.012,1.148-0.035,1.649c-0.015,0.421-0.028,0.815-0.041,1.179
		c-0.013,0.142,0.09,0.121-0.014,0.505l-0.011,0.056l0.03,0.012l-0.023,0.058C93.084,104.368,93.03,104.555,92.989,104.741z
		 M119.982,80.089c0,0.005,0,0.01,0,0.015l-0.003-0.001L119.982,80.089z M96.608,105.508L96.608,105.508
		C96.565,105.498,96.576,105.5,96.608,105.508z M98.436,104.326c-0.005,0.005-0.001,0.002-0.001,0.002l-0.001-0.001L98.436,104.326z
		"/>
	<path fill="#D7D7D7" d="M176.416,47.005c-0.699-3.164-1.735-6.229-3.066-9.116c-0.352-0.712-0.702-1.423-1.051-2.131l-0.674-1.202
		l-0.28-0.497c-3.059-5.24-6.503-8.83-8.267-10.566c-3.389-3.317-6.532-5.347-9.664-6.864c-3.147-1.485-6.331-2.507-10.162-3.131
		c3.074,2.335,5.358,4.521,7.78,6.703c2.396,2.207,4.917,4.438,7.924,7.443c1.57,1.574,4.628,4.793,7.297,9.38l0.245,0.435
		l0.59,1.049l0.916,1.857c1.158,2.513,2.054,5.168,2.661,7.918c0.597,2.751,0.955,5.592,0.961,8.482
		c-0.019,2.931-0.116,5.926-0.559,8.862c-0.415,2.944-1.04,5.869-1.937,8.724c-0.914,2.848-2.094,5.62-3.538,8.272
		c-2.885,5.312-6.849,10.091-11.531,14.28c-2.334,2.107-4.821,4.092-7.422,6.035c-2.593,1.971-5.293,3.825-8.01,6.13
		c-0.678,0.583-1.357,1.207-2.027,1.908c-0.619,0.678-1.135,1.342-1.708,2.015l-1.674,2.016c-0.533,0.683-1.004,1.387-1.508,2.08
		l-1.49,2.089l-0.745,1.045l-0.682,1.075l-2.726,4.304c-0.88,1.449-1.687,2.938-2.533,4.406l-1.255,2.209
		c-0.404,0.744-0.774,1.508-1.162,2.26l-2.301,4.531l-2.085,4.644l-1.036,2.324c-0.322,0.786-0.607,1.592-0.912,2.387l-1.792,4.784
		c-0.943,3.261-1.885,6.517-2.824,9.764c-1.806,6.314-3.602,12.598-5.384,18.829c-1.78,6.232-3.526,12.412-5.386,18.526
		c-3.652,12.227-7.22,24.169-10.656,35.67c-6.926,22.989-13.321,44.214-18.807,62.422c-2.758,9.1-5.288,17.445-7.542,24.88
		c-0.564,1.858-1.111,3.66-1.64,5.402l-0.197,0.65l-0.139,0.456c-0.034,0.11-0.041,0.193-0.061,0.292l-0.04,0.222
		c-0.083,0.416-0.166,0.829-0.248,1.238c-0.175,0.826-0.359,1.639-0.555,2.433c-0.771,3.18-1.682,6.061-2.652,8.581
		c-1.902,5.062-4.333,8.597-6.282,9.979c-0.215,0.209-0.494,0.36-0.758,0.505c-0.257,0.151-0.501,0.293-0.73,0.428
		c-0.506,0.222-0.95,0.417-1.329,0.583c-0.796,0.288-1.348,0.444-1.583,0.53c-3.001,0.812-5.53,0.942-7.404,1.013
		c-1.89,0.059-3.191-0.028-4.067-0.065c-1.754-0.116-1.839-0.141-1.839-0.14c0,0-0.647-0.052-1.872-0.209
		c-0.218-0.031-0.461-0.065-0.731-0.104c-0.072-0.028,0.145,0.095-0.376-0.224c-0.73-0.458-1.579-1.039-2.492-1.753
		c-1.822-1.427-3.959-3.374-5.885-6.017c-1.921-2.631-3.552-6.021-3.982-10.032c-0.197-2.004-0.078-4.151,0.402-6.372
		c0.063-0.279,0.111-0.551,0.186-0.843l0.267-0.903c0.178-0.606,0.358-1.219,0.541-1.838c0.354-1.233,0.732-2.501,1.183-3.82
		c1.693-5.244,3.651-10.894,5.727-16.898c4.205-12.002,9.018-25.411,14.25-39.853c10.487-28.878,22.664-61.89,35.359-96.011
		c1.589-4.265,3.185-8.547,4.785-12.841c1.589-4.267,3.265-8.623,4.714-13.066c0.378-1.103,0.732-2.218,1.072-3.34
		c0.335-1.126,0.717-2.226,1.014-3.374l0.939-3.417l0.794-3.513l0.196-0.879l0.138-0.929l0.261-1.864
		c0.235-1.245,0.171-2.479,0.215-3.718c0.005-0.614,0.036-1.247,0.018-1.847l-0.087-1.778c-0.067-1.183-0.096-2.379-0.197-3.548
		c-0.398-4.678-0.886-9.309-1.6-13.906c-0.308-2.3-0.747-4.601-1.148-6.896c-0.497-2.329-0.885-4.555-1.816-7.188
		c-0.1-0.339-0.214-0.586-0.327-0.847l-0.336-0.785l-0.671-1.566l-1.341-3.129c-0.893-2.084-1.784-4.162-2.672-6.235
		c-1.72-4.014-3.431-8.004-5.129-11.968c1.823-0.119,3.64-0.238,5.449-0.355c4.411-0.288,8.785-0.573,13.115-0.855
		c8.659-0.565,17.139-1.118,25.385-1.656c4.123-0.27,8.187-0.534,12.185-0.796l1.167-0.076l0.375-0.024
		c0.128,0.002,0.251-0.014,0.352-0.099l0.644-0.387l1.498-0.898c0.852-0.512,1.7-1.021,2.544-1.527
		c1.688-1.013,3.362-2.018,5.021-3.013s3.301-1.98,4.927-2.957c1.347-0.808,2.687-1.611,4.02-2.412l0.151-0.091l-0.024-0.175
		l-0.049-0.35l-0.097-0.697l-0.193-1.394c-0.092-0.668-0.185-1.334-0.277-1.999c-0.084-0.604-0.167-1.193-0.247-1.77
		c-0.482-3.424-0.87-6.173-1.1-7.81c-1.28-8.897-2.981-13.81-5.864-20.993c-0.82,7.696-1.121,12.886,0.069,21.797
		c0.223,1.637,0.599,4.389,1.066,7.813c0.079,0.577,0.161,1.167,0.244,1.771l0.096,0.69l0.009,0.069l-0.225,0.135l-0.609,0.365
		c-1.626,0.976-3.269,1.961-4.927,2.956c-1.659,0.995-3.333,1.999-5.021,3.013c-0.844,0.506-1.692,1.015-2.544,1.526l-1.06,0.636
		l-0.329,0.021c-0.417,0.027-0.843,0.055-1.262,0.082c-4.601-4.298-3.518-2.816-10.897-7.016c-0.208-0.118-0.437-0.248-0.812-0.461
		c-0.284-0.16-0.185-0.105-0.201-0.115h0.003l0.003,0.002l0.001,0.002c0-0.217,0.001-0.447,0.001-0.692
		c0.001-0.998,0.002-2.241,0.004-3.87c0.001-4.348,0.003-10.184,0.005-16.491c0-1.577,0-3.184-0.001-4.805c0-0.81,0-1.623,0-2.438
		l-0.093-4.475c-0.035-1.58-0.07-3.159-0.105-4.734c0.074-0.32-0.211-0.076-0.369-0.033l-0.532,0.232l-1.057,0.462
		c-0.705,0.313-1.408,0.626-2.108,0.938c-1.422,0.615-2.809,1.351-4.189,2.059l-0.259,0.133l-0.14,0.077l-0.27,0.15l-0.537,0.299
		c-0.356,0.202-0.717,0.392-1.063,0.603c-5.612,3.229-10.326,6.966-13.398,10.155c-0.792,0.766-1.444,1.541-2.02,2.219
		c-0.289,0.338-0.557,0.653-0.804,0.942c-0.227,0.312-0.435,0.597-0.623,0.853c-0.373,0.514-0.662,0.913-0.859,1.184
		c-0.198,0.27-0.293,0.419-0.293,0.419s-0.307,0.513-0.864,1.446c-0.601,0.934-1.243,2.298-2.032,4.011
		c-1.517,3.436-3.105,8.334-4.247,13.897c-0.554,2.63-0.999,5.41-1.357,8.25c-0.104,0.007-0.207,0.014-0.311,0.021
		c-2.595,0.169-5.201,0.339-7.817,0.51l-3.351,0.219l-1.678,0.109l-0.839,0.055c-0.11-0.02-0.061,0.058-0.03,0.124l0.083,0.193
		l0.166,0.387c0.884,2.063,1.77,4.13,2.658,6.201c1.807,4.215,3.626,8.46,5.456,12.729c0.888,2.072,1.779,4.151,2.672,6.234
		l1.341,3.129l0.671,1.567l0.336,0.784c0.113,0.262,0.236,0.532,0.284,0.745c0.581,1.671,1.047,3.94,1.488,6.082
		c0.384,2.207,0.806,4.405,1.106,6.651c0.695,4.464,1.169,8.983,1.553,13.479c0.098,1.125,0.121,2.232,0.186,3.35l0.083,1.672
		c0.017,0.552-0.015,1.071-0.019,1.608c-0.041,1.062,0.031,2.146-0.18,3.173l-0.22,1.56l-0.111,0.782l-0.182,0.807l-0.73,3.231
		l-0.893,3.248c-0.279,1.084-0.654,2.163-0.975,3.244c-0.327,1.082-0.67,2.161-1.038,3.235c-1.405,4.312-3.031,8.538-4.641,12.862
		c-1.601,4.296-3.196,8.58-4.785,12.847c-12.697,34.135-24.872,67.157-35.362,96.061c-5.235,14.457-10.052,27.883-14.267,39.923
		c-2.084,6.034-4.049,11.703-5.771,17.042c-0.448,1.312-0.852,2.655-1.234,3.989c-0.194,0.662-0.386,1.318-0.576,1.967
		c-0.095,0.324-0.189,0.646-0.283,0.968c-0.086,0.334-0.155,0.696-0.232,1.04c-0.601,2.78-0.764,5.571-0.5,8.194
		c0.558,5.279,2.715,9.657,5.066,12.872c2.37,3.246,4.889,5.521,7.034,7.203c1.079,0.842,2.076,1.526,2.983,2.096
		c0.249,0.153,0.372,0.236,0.833,0.498c0.194,0.107,0.384,0.214,0.57,0.316c0.187,0.097,0.416,0.091,0.586,0.132
		c0.859,0.145,1.061,0.163,1.451,0.22c1.381,0.178,2.095,0.233,2.095,0.233s0.094,0.026,2.045,0.156
		c0.979,0.042,2.417,0.138,4.567,0.073c2.148-0.089,5.016-0.202,8.845-1.233c0.316-0.109,1.026-0.309,2.096-0.701
		c0.532-0.231,1.157-0.487,1.862-0.82c0.346-0.198,0.713-0.409,1.102-0.632c0.389-0.22,0.797-0.454,1.201-0.801
		c3.436-2.55,6.14-7.013,8.282-12.583c1.079-2.8,2.055-5.902,2.883-9.308c0.21-0.852,0.408-1.723,0.598-2.617
		c0.09-0.452,0.182-0.909,0.274-1.37l0.028-0.145c-0.001,0.001,0-0.002,0.008-0.03l0.049-0.161l0.197-0.651
		c0.529-1.742,1.077-3.544,1.642-5.403c2.256-7.436,4.788-15.782,7.548-24.884c5.491-18.211,11.891-39.441,18.824-62.436
		c3.439-11.506,7.01-23.454,10.667-35.687c1.855-6.097,3.622-12.342,5.418-18.629c1.797-6.287,3.609-12.625,5.43-18.995
		c0.894-3.09,1.79-6.188,2.688-9.291l1.7-4.526c0.289-0.754,0.556-1.515,0.863-2.264l0.994-2.225l1.996-4.45l2.218-4.361
		c0.374-0.725,0.729-1.46,1.118-2.176l1.21-2.127c0.815-1.412,1.592-2.85,2.437-4.24l2.608-4.117l0.651-1.029l0.702-0.982
		l1.401-1.963c0.471-0.647,0.922-1.325,1.41-1.948l1.504-1.806c0.5-0.589,1.001-1.234,1.496-1.778
		c0.474-0.495,1.012-0.994,1.587-1.488c2.324-1.979,5.062-3.882,7.708-5.887c2.668-1.994,5.318-4.102,7.835-6.374
		c5.051-4.519,9.512-9.854,12.755-15.835c1.625-2.983,2.954-6.11,3.978-9.304c1.006-3.199,1.703-6.457,2.159-9.709
		c0.485-3.258,0.597-6.493,0.613-9.721C177.508,53.431,177.105,50.17,176.416,47.005z M144.737,45.649L144.737,45.649l0-0.003
		L144.737,45.649z M130.35,54.269h0.003H130.35L130.35,54.269z M86.759,50.51c1.067-5.227,2.528-9.711,3.859-12.737
		c0.688-1.493,1.255-2.709,1.727-3.421c0.443-0.753,0.688-1.166,0.688-1.166s0.078-0.121,0.245-0.344
		c0.164-0.225,0.405-0.555,0.715-0.979c0.155-0.213,0.326-0.45,0.514-0.709c0.212-0.246,0.442-0.513,0.689-0.8
		c0.491-0.575,1.042-1.236,1.741-1.906c2.665-2.764,6.941-6.171,12.151-9.161c0.613-0.344,1.232-0.69,1.856-1.041
		c0.01-0.005,0.021-0.01,0.03-0.015c0,2.525-0.001,5.058-0.002,7.499c0.002,6.308,0.004,12.144,0.005,16.491
		c0.005,4.147,0.008,6.331,0.01,7.988c2.541,1.424,3.339,1.872,4.005,2.245c6.37,3.541,7.124,1.785,11.157,2.087
		c-2.747,0.18-5.512,0.359-8.315,0.542c-8.246,0.537-16.726,1.09-25.385,1.654c-2.26,0.147-4.534,0.296-6.817,0.445
		C85.942,54.882,86.313,52.633,86.759,50.51z"/>
	<path fill="#D7D7D7" d="M53.76,324.22c-0.761-2.31-2.171-4.712-4.885-6.738c-0.329-0.258-0.741-0.562-1.275-0.868
		c-0.264-0.157-0.543-0.34-0.858-0.512c-0.324-0.157-0.671-0.326-1.043-0.506c-1.502-0.67-3.523-1.354-6.105-1.512
		c-2.53-0.156-5.678,0.23-8.53,1.646c-2.888,1.326-5.362,3.61-7.004,6.042c-1.628,2.463-2.404,5.032-2.687,6.889
		c-0.171,0.931-0.188,1.689-0.212,2.212c-0.036,0.522-0.014,0.81-0.014,0.81c0,0,0.017,0.343,0.046,0.961
		c0.008,0.618,0.155,1.508,0.366,2.59c0.466,2.146,1.62,5.067,3.822,7.586c2.162,2.53,5.336,4.575,8.613,5.409
		c3.271,0.913,6.47,0.662,8.712,0.087c1.89-0.444,3.178-1.114,4.15-1.602c0.938-0.56,1.577-0.955,2.019-1.319
		c2.714-2.026,4.124-4.428,4.885-6.737c0.736-2.336,0.802-4.712,0.207-7.219c-0.658,2.502-1.646,4.307-2.792,5.991
		c-1.18,1.657-2.504,3.285-4.625,4.833c-0.715,0.488-1.876,1.486-4.785,2.245c-1.729,0.439-4.227,0.636-6.749-0.073
		c-2.532-0.639-4.991-2.224-6.673-4.183c-1.711-1.952-2.604-4.21-2.971-5.868c-0.158-0.839-0.287-1.525-0.287-2.008
		c-0.025-0.481-0.04-0.748-0.04-0.748c0,0-0.019-0.223,0.015-0.629c0.021-0.406,0.029-0.998,0.168-1.718
		c0.222-1.438,0.827-3.42,2.087-5.329c1.281-1.879,3.199-3.656,5.435-4.675c2.202-1.099,4.636-1.387,6.604-1.272
		c2.003,0.119,3.56,0.647,4.726,1.16c0.289,0.138,0.559,0.267,0.81,0.387c0.245,0.132,0.46,0.275,0.666,0.396
		c0.417,0.232,0.738,0.468,0.994,0.666c2.121,1.548,3.445,3.177,4.625,4.834c1.146,1.686,2.134,3.489,2.792,5.991
		C54.562,328.931,54.496,326.555,53.76,324.22z"/>
</g>
</svg>
